<mxfile host="app.diagrams.net" agent="Mozilla/5.0 (Macintosh; Intel Mac OS X 10_15_7) AppleWebKit/537.36 (KHTML, like Gecko) Chrome/129.0.0.0 Safari/537.36" version="24.7.16">
  <diagram id="C5RBs43oDa-KdzZeNtuy" name="Page-1">
    <mxGraphModel dx="6068" dy="3322" grid="1" gridSize="10" guides="1" tooltips="1" connect="1" arrows="1" fold="1" page="1" pageScale="1" pageWidth="1920" pageHeight="1080" background="#000000" math="0" shadow="0">
      <root>
        <mxCell id="WIyWlLk6GJQsqaUBKTNV-0" />
        <mxCell id="WIyWlLk6GJQsqaUBKTNV-1" parent="WIyWlLk6GJQsqaUBKTNV-0" />
        <mxCell id="sKCnBn6jHw3cgLW9KgB4-53" value="" style="whiteSpace=wrap;html=1;rounded=0;shadow=1;glass=0;strokeColor=none;strokeWidth=2;align=center;verticalAlign=middle;arcSize=14;fontFamily=Pretendard;fontSource=https%3A%2F%2Ffastly.jsdelivr.net%2Fgh%2FProject-Noonnu%2Fnoonfonts_2107%401.1%2FPretendard-Regular.woff;fontSize=24;fontColor=#FFFFFF;fontStyle=1;labelBackgroundColor=none;resizable=1;fillColor=#000000;gradientColor=none;movable=1;rotatable=1;deletable=1;editable=1;locked=0;connectable=1;" vertex="1" parent="WIyWlLk6GJQsqaUBKTNV-1">
          <mxGeometry width="1920" height="1080" as="geometry" />
        </mxCell>
        <mxCell id="sKCnBn6jHw3cgLW9KgB4-4" value="" style="group" vertex="1" connectable="0" parent="WIyWlLk6GJQsqaUBKTNV-1">
          <mxGeometry x="40.004999999999995" y="40" width="320" height="80" as="geometry" />
        </mxCell>
        <mxCell id="sKCnBn6jHw3cgLW9KgB4-2" value="" style="shape=image;verticalLabelPosition=bottom;labelBackgroundColor=default;verticalAlign=top;aspect=fixed;imageAspect=0;image=data:image/png,iVBORw0KGgoAAAANSUhEUgAADZkAAAO/CAYAAAAX1SkLAAAACXBIWXMAACxKAAAsSgF3enRNAAAgAElEQVR4nOzdMXLcWJo26rcmxpfGuLbYKxDbwHWLvQKxFoBQtgmr2Sso1gqaZcHsVGABQ62gSec3fhhDrqBJ+xojrkDXAFhkkZSKEjPzAJnPE5FBiVIl3iil8kDI8+L74fPnzwEAAAAAAAAAAAAAAABgN/1n6QAAwHT1bb2XZC/J6yT747fv/zjjr79Z4WHP7/34U5KL8cdX4yNV052t8HgAAAAAAAAAAAAAADvtB5PMAGB39W19WxjbGx/7uSuRvSoW7PnOc1dEuxofF1XTfSqYCQAAAAAAAAAAAABgVpTMAGBH9G29n6E8dv8xhyLZ97jJUDw7y13x7OJr/wEAAAAAAAAAAAAAwK5SMgOALdS39V6Sg9yVyX4smWdCznNXPruomu6qaBoAAAAAAAAAAAAAgAlQMgOALTBOKTu499jWCWWrdp2hcHaW5EzpDAAAAAAAAAAAAADYRUpmADBD9yaVHSQ5jFLZqtwvnZ1WTfepaBoAAAAAAAAAAAAAgA1QMgOAmRinlR2Oj7eF4+yKyySnGQpnF6XDAAAAAAAAAAAAAACsg5IZAEzYWCxbZCiWvSmbZufdTjk7rZrutHAWAAAAAAAAAAAAAICVUTIDgIlRLJuFm9xNOFM4AwAAAAAAAAAAAABmTckMACagb+u9DKWyoyiWzc1t4eykarqL0mEA1q1v69dJ9h98ez/J6xc87UWST0k+eS8FAAAAAAAAAACAzVMyA4CC+rY+zDC17F3hKKzGde4KZ1eFswA821h23stQFLstkN1+L+P3Xm0w0k2G4tlFkqskF1XTnW3w+AAAAAAAAAAAALBTlMwAYMPGCTBHGcplppZtr8skJ0lOq6b7VDoMQN/WB7krke3de8xpLTrPUDw7VToDAAAAAAAAAACA1VEyA4ANGafEHCd5XzYJG3aTYbrZUiEC2ISxTHZbJLv9Oqci2bf4mOE9VqEXAAAAAAAAAAAAXkDJDADWbNzsf5zkx7JJmIDrDNPNlsoQwEuN5eX9B49tLZM9x8cMZbNl6SAAAAAAAAAAAAAwN0pmALAmymV8xe10s5Oq6S5KhwGmr2/r1xlKZAfjYz/Jq4KRpuwmyTLDe+xV2SgAAAAAAAAAAAAwD0pmALBifVsfZphWtcvTZHi+ywxFiGXpIMB0jFPKDnJXKHtbMM6cfYhCLwAAAAAAAAAAAPwhJTMAWBGTy3ihmwzlxJOq6T6VDgNsVt/Wt1PKbr8qKq/WeZLjqunOSgcBAAAAAAAAAACAKVIyA4AXGosBJ1EuY3VM3oEt92BS2UGUyjblQ4ay2VXpIAAAAAAAAAAAADAlSmYA8J3GgsBxkvdlk7DFzjOUzU5LBwFepm/r17krlB1Gqay0X2JyJAAAAAAAAAAAAPxGyQwAvkPf1sdJjpK8KhyF3XCdYfLOsnQQ4PnGSZcHGUplpl1Oz3WSI0VeAAAAAAAAAAAAUDIDgG/St/VhkpOYQEMZNxlef6bvwATdm1Z2OH61VszDxyQL76sAAAAAAAAAAADsMiUzAHiGvq33MpR73hWOAslQNjvNMN3sqnAW2Gnj+nAY08rm7iZD0cxUMwAAAAAAAAAAAHaSkhkA/IG+rY+SHCd5VTgKPOVDkmXVdGelg8Cu6Nt6P8kiQ7HMtLLt8mvVdEelQwAAAAAAAAAAAMCmKZkBwBeMJYJlkreFo8BznGeYbHZWOghsm76tXyc5yN3EMqXj7XaZ5NCkSAAAAAAAAAAAAHaJkhkAPKFv6+MkP5fOAd/hOkPZbFk6CMzZWCy7LZW9KxyHzbtJclA13UXpIAAAAAAAAAAAALAJSmYAcI/pZWyR6wyv5ZOq6T4VzgKz0Lf1XoZS2SLWAQZ/VdoFAAAAAAAAAABgFyiZAcCob+ujJMdJXhWOAqt0k+Q0w3Szq8JZYHLGcvEiyUEUy3jaL1XTHZcOAQAAAAAAAAAAAOukZAbAzuvb+nWGiU/vCkeBdfuQZFk13VnpIFBS39YHGSaWHSZ5UzYNM/GharpF6RAAAAAAAAAAAACwLkpmAOy0sWhwGtPL2C2XSU6qpluWDgKbMJaJD3JXLPOez/dQNAMAAAAAAAAAAGBrKZkBsLP6tj5O8nPpHFDQdYYpfidV030qnAVWqm/rvdwVy0yqZFUUzQAAAAAAAAAAANhKSmYA7Jxxos1pkh9LZ4EJ+ZChbHZROgh8r76t9zMUyxZJ3hYNwzZTNAMAAAAAAAAAAGDrKJkBsFPGAsJpkjels8BEnSdZVk23LB0EnqNv68PcTSzz3s6mKJoBAAAAAAAAAACwVZTMANgZfVsvkvyzdA6YiZskJxkKZ1eFs8Bv+rbey1AoO0jyrmgYdt0vVdMdlw4BAAAAAAAAAAAAq6BkBsBO6Nt6meR96RwwUx8zlM1OSwdhN5lWxoT91eRHAAAAAAAAAAAAtoGSGQBbrW/r10lOk/xYOgtsgZskyyQnppuxTn1b7+euVOb9m6n7S9V0Z6VDAAAAAAAAAAAAwEsomQGwtcaSwjLJ28JRYBtdZvj7taya7lPhLMzcvVLZ7eNVwTjwrW6SHFRNd1E6CAAAAAAAAAAAAHwvJTMAttJYWDiLogJswscMEwNPFc54DqUyttBlhqKZ90AAAAAAAAAAAABmSckMgK3Tt/UiyUmUFqCEDxkKZ2fKFtzq2/ogQ5nstlzm/Zlt9LFqusPSIQAAAAAAAAAAAOB7KJkBsFXGgtk/S+cAkphwtpP6tt7LXaFsP8mPJfPAhv1SNd1x6RAAAAAAAAAAAADwrZTMANgafVufJPlb6RzAky6TLDNMOLsonIUVGQtlt2Wyg/GrKWXsuj97nwMAAAAAAAAAAGBulMwA2Ap9Wy+TvC+dA3iWmwwTzs4ylM6uiqbhWfq2vi2T7UWhDL7mOsm+CY4AAAAAAAAAAADMiZIZALOnYAazd52xcJbkwgSgssYy2V7uJpTtJXlbMBLM0ceq6Q5LhwAAAAAAAAAAAIDnUjIDYLb6tn6dZJnkXeEowGrdJLnIWDrLUDy7Khlo24xFstcZSmSvM0wm20vyplwq2Do/VU13WjoEAAAAAAAAAAAAPIeSGQCzNBbMzmK6DuyK2+LZRZKr3JXPPpUMNVVPlMj27j0UyWAzbpLseZ8CAAAAAAAAAABgDpTMAJgdBTPggfMkn3JXQLtK8qlquouCmVbuXnEsuSuMJXdFstfxvghT87FqusPSIQAAAAAAAAAAAOCPKJkBMCsKZsB3uMxQQkuG949bV+Pjvquq6R5+77v1bX3wlV9++Gu3k8fu+3FVWYBi/lI13VnpEAAAAAAAAAAAAPA1SmYAzIaCGQAwQ9dJ9qum+/SHvxMAAAAAAAAAAAAK+Y/SAQDgORTMAICZepPkqHQIAAAAAAAAAAAA+BqTzACYPAUzAGAL/KlquqvSIQAAAAAAAAAAAOApJpkBMAdnUTADAObtpHQAAAAAAAAAAAAA+BIlMwAmrW/rZRTMAID5e9e39UHpEAAAAAAAAAAAAPAUJTMAJmssmL0vnQMAYEVMMwMAAAAAAAAAAGCSlMwAmCQFMwBgC73t23pROgQAAAAAAAAAAAA8pGQGwOT0bX0cBTMAYDsdlw4AAAAAAAAAAAAADymZATAp43SPn0vnAABYkzemmQEAAAAAAAAAADA1P3z+/Ll0BgBIkvRtfZjkv0vnAABYs+sk+1XTfSodBAAAAAAAAAAAABKTzACYiL6t95MsS+cAANiAN0mOSocAAAAAAAAAAACAWyaZAVDcWDA7S/KqcBQAgE25SbJnmhkAAAAAAAAAAABTYJIZAEX1bf06wwQzBTMAYJe8SnJYOgQAAAAAAAAAAAAkSmYAlHeW5G3pEAAABRyXDgAAAAAAAAAAAACJkhkABfVtvYyCGQCwu970bb0oHQIAAAAAAAAAAACUzAAoom/r4yTvS+cAACjsuHQAAAAAAAAAAAAAUDIDYOPGiR0/l84BADABb/q2PigdAgAAAAAAAAAAgN2mZAbARvVtvZ/kpHQOAIAJOS4dAAAAAAAAAAAAgN32w+fPn0tnAGBH9G39OslVkleFowAATM2fqqa7Kh0CAAAAAAAAAACA3WSSGQAbMRbMzqJgBgDwlOPSAQAAAAAAAAAAANhdSmYAbMpJkrelQwAATNT7sZQPAAAAAAAAAAAAG6dkBsDa9W19lOR96RwAABO3KB0AAAAAAAAAAACA3aRkBsBa9W19kOQfpXOwk/4ryU9JPiS5KZwFAJ7jqHQAAAAAAAAAAAAAdtMPnz9/Lp0BgC3Vt/VekoskrwpHYfecV013cP8bfVsfJrl9eE0CMFU/VU13WjoEAAAAAAAAAAAAu+U/SwcAYDv1bf06yWmUeShj+fAb44b900ThDIBJW2RcrwAAAAAAAAAAAGBT/qN0AAC21kmSt6VDsJNu8geb86umO62abpFkL8lfk5yvPRUAPM+7cRosAAAAAAAAAAAAbMwPnz9/Lp0BgC3Tt/VRkn+UzsHO+jAWyL7JuKH/KMMEGdPNACjpl6rpjkuHAAAAAAAAAAAAYHcomQGwUn1b7yf5n9I52Gl/qpru6iVP0Lf1IkPhzDQ+AEq4rppur3QIAAAAAAAAAAAAdoeSGQAr07f16yRXMQVqE24y/L9Wgvq986rpDlb1ZGNp8ijJ+1U9JwA801+qpjsrHQIAAAAAAAAAAIDd8B+lAwCwVU6jYLYJHzKUy/YK55ii5SqfrGq6i6rpFkn+K8kvGcp9ALAJi9IBAAAAAAAAAAAA2B0mmQGwEn1bHyf5uXSOLXedZFE13Vnf1kdJ/lE60MRcV023t+6D9G29SHKc5M26jwXAzvuvquk+lQ4BAAAAAAAAAADA9jPJDIAX69v6MApm6/Zrkv2q6c7Gnx8VzDJVy00cpGq65Vhm+0uS800cE4CddVg6AAAAAAAAAAAAALvBJDMAXqRv670kF0leFY6yrX6bXnb7jb6tD5L8q1SgCftT1XRXmz5o39b7GUp/7zd9bIB7/r8k/0/pEKzcZdV0+6VDAAAAAAAAAAAAsP1MMgPgpU6jYLYuH/L76WW3TDF77EOJglmSVE13UTXdIsmfMkycuymRA9g51xnWib9meP/5P2XjsCZvx0I/AAAAAAAAAAAArNV/lg4AwHz1bX2S5G3pHFvoJslR1XTLh78wbjR/t+lAM7AsHWAsuR31bX2coQi4SPKmYCRg+3xMcpbkrGq6i9tvWhu23iLJceEMAAAAAAAAAAAAbDklMwC+S9/Wh0n+VjrHFrpMsrhfHnhgscEsc3H9xLS3Yqqm+5ShDHDct/Vi/LGyGfA9rjNMDD2rmu70K7/PhMvttoiSGQAAAAAAAAAAAGumZAbANxsnpiwLx9hGHzMUzD595fcsNpRlTk5KB/iScRrdsm/rgwwFgR9L5gFm4TxDsex0nJD4HIu1pWEK3vRtvf+VAjoAAAAAAAAAAAC8mJIZAN/jNMmr0iG2zK9V0311Es04FctErN+7yQwKj+OktYO+rfczTBx6XzYRMCE3GaeVZSiWfa1o/Mi4NliTt98iJtYBAAAAAAAAAACwRkpmAHyTvq1PkrwtnWPL/HWcePVHFmvOMUffXMgoaZxCs+jb+jhDWWAR5RDYRde5m1Z29sLnWrw4DXOwiJIZAAAAAAAAAAAAa/TD58+fS2cAYCb6tj5M8t+lc2yRmyQHY/Hoq/q23kvy77Unmp8/P+f/31T1bf06d8UBU+pgu11mmLx4tqr3rXE64v+s4rmYhZ+qpjstHQIAAAAAAAAAAIDtZJIZAM8ylpyWhWNsk2cXzEbHa8wyV+dzLpglyTiF7STJSd/WiwyFsx9LZgJW6mOSswwTy67W8PwmW+2WwwwT8AAAAAAAAAAAAGDllMwAeK5lklelQ2yJyySHzy0cjNOuDteaaJ6WpQOsUtV0yyTLvq0PMpTN3pfMA3yXm4ylsgzFsk/rOpC1YSf58wYAAAAAAAAAAGBtfvj8+XPpDABMXN/Wx0l+Lp1jS1xmmGD27OLBOOHqn2tLNE83VdO9Lh1incbpgYsMk4oUPGG6bnJXKtvYlKm+rY+S/GNTx2Myftrk6wwAAAAAAAAAAIDdYZIZAF81TlVSMFuNby6YjY7XkGXulqUDrNs46e44yfFYNDxK8rZgJODOdYZi2bJquotCGY4KHZeyDjO89gAAAAAAAAAAAGCllMwA+KK+rV/HRuZV+a6C2Vjye7OWRPN2UjrAJlVNt0yyHF8PiyTvS+aBHXWZoeB6VrBYlsTasOMOSwcAAAAAAAAAAABgOymZAfA1yySvSofYAt87wSwZCkX83sdxytfOqZruLMlZ39ZHGaYYLaJoAuv0MUPZ+mxi7zuL0gEo5lXf1odV07kJAAAAAAAAAAAAACv1w+fPn0tnAGCCxhLLP0rn2ALfXTAbJ8n97+ojzd5PNtff6dv6MEPh5F3hKLANrpOcJTmd6vtM39Z7Sf5dOgdFfaiablE6BAAAAAAAAAAAANvFJDMAHunbej8KZqvwkglmyTCpit+7nmrxo5Tx/8fpWDxZxHQz+FaXGaaVnVZNd1E6zDMsSgeguMPSAQAAAAAAAAAAANg+SmYA/M44PWtZOscWeGnBLFEkeMpJ6QBTVTXdVZLjJMfjdLPDJO9LZoKJuslQKjvLUCx7yft0CYvSASjuVd/Wh0rXAAAAAAAAAAAArJKSGQAPnSR5WzrEzL24YDaWhEyjemxZOsAc3JtudpShbHYUf6/Zbee5K5XNYVrZk/q2XsTawOAwQ1kSAAAAAAAAAAAAVkLJDIDfjMUmk49e5ibJYgWTcY5WEWbLfJjhxKGixv9fyyTLvq33clc4U1Jh211mKJWdJTnboveORekATMZh6QAAAAAAAAAAAABslx8+f/5cOgMAEzAWUC6SvCocZc5uMkwwe9GUnPHP4t8rSbRd/jznCURT0rf1foayiol5bIvr/L5UdlUyzDpYG3jCT+PkSgAAAAAAAAAAAHgxk8wAuHUaBbOXOlxRCcoUs8cuFcxWZ/x/eZTkSOGMmdr6UtkTjksHYHIOM5y/AQAAAAAAAAAAwIspmQGQvq1PkrwtnWPm/lo13dmKnmuxoufZJielA2yrJwpnBxleg94TmJLL3JXKLnakVPabvq1fZygUwX1eEwAAAAAAAAAAAKzMD58/fy6dAYCC+rY+SPKv0jlm7u9V062kBNW39SLJP1fxXFvkJsle1XSfSgfZJX1b72UonB2OX006ZFNuklzkbkrZWdE0E2Bt4Cv+bNInAAAAAAAAAAAAq2CSGcAOGyejnJbOMXMfVlUwGx2t8Lm2xVLBbPPGSVHL8XFbSL0tnJlyxiqdZyiVXWQolV2VjTNJ1ga+ZBGvDwAAAAAAAAAAAFZAyQxgt53GdKKXOK+abrGqJ+vbej/KO09ZZYmP7zROkzpLfiuo3hbODpK8KRSL+blfKLswgemPjQVPawNfchglMwAAAAAAAAAAAFZAyQxgR/VtfZTkx9I5Zuwyw8buVbJJ/LFzU42mZ5wst8zdlLO93BXOlCVJkuskVxmKiRdJrhTKvtuidIAJ+r9J/t/SISbiTd/W+/5+AQAAAAAAAAAA8FI/fP78uXQGADZsnJj1P6VzzNhNkoNVbugeJ0P976qeb4v8VDXdaekQfJvx9XyQoXB2EIXWbXaTu8lkV7mbUPapZKhtYW34op8ylFxNYx38WjWdojoAAAAAAAAAAAAvYpIZwI4ZN6wr7bzM4RomhixW/Hzb4FrBbJ7GgtFp7r3XjOXW+w/Fs3k5T/Ipd2Wyq6rpzkoG2hGKQ49dV0132rf1aZL3pcNMxEHpAAAAAAAAAAAAAMyfkhnA7lkmeVM6xIz9dU3FCkWCx5alA7A6YzHzd+XMvq338vvi2V6St5vORpK7iWRXDx6mkpW1KB1ggk7Gr0pmd972bb1XNd1V6SAAAAAAAAAAAADMl5IZwA7p23qR5F3pHDP2oWq65aqftG/rwyj+PWVZOgDrNRYirvJguuI49Wwvd8Wz2x+/2mC8bXJbIEuSs/HrVe4mkl1tPBF/yNrwRcskGaeZXcf/o1uHuSvgAQAAAAAAAAAAwDdTMgPYEWNpw+bj73dZNd1iTc+9ruedsw+KL7vr3tSz04e/Nr6Xvc5QOnuduxJakvy4mYSTcJnkdsLY1fh4+GNTyOZtUTrABH148Jo+TfK3UmEmZhHneQAAAAAAAAAAALyAkhnADujb+nWGyR+mAH2fmyQH63jivq33YrrcU5alAzBNYwEtuZvI9cj492pv/OltIe3W/V/Lvd/zdgXxvub8K792kbvC2Je+Z+LYDrE2fNHyiZ8rmQ3e9m29530CAAAAAAAAAACA76VkBrAbTrL+AsU2O1jjNKDFmp53zq6rpjsrHYL5GksWV/e+9WgiGkzcUekAE3T5cG2omu6ib+vrJG/KRJqcw5hmBgAAAAAAAAAAwHf6j9IBAFivvq0XSd6XzjFjf703OWkdFAkeOy4dAKCwRekAE/Sl8pQS6Z2D0gEAAAAAAAAAAACYLyUzgC3Wt/V+TLR4iQ9V0y3X9eRjAfDVup5/pm6iMADsMGvDk762Niw3mGPq3vVt/bp0CAAAAAAAAAAAAOZJyQxgS42bjJexUf17XWb9U8YWa37+OTqtmu5T6RAABZlw+djyS2vDOG30esN5puywdAAAAAAAAAAAAADmSckMYHudJHlbOsRM3SQ5XGfZaZwy9+O6nn/GjksHAChlXBus3Y/90VRWEzDvKJkBAAAAAAAAAADwXZTMALZQ39aLJO9L55ixRdV0V2s+hkk1j51v4P87wJRZGx57ztpwtoEcc/FunGYLAAAAAAAAAAAA30TJDGDLjFNQ/mjiB1/2a9V0a52IMm7+NmnksWXpAACljGuDgvhjyz/6DeO6fbP+KLPhHAMAAAAAAAAAAIBvpmQGsEXGDerLJK8KR5mr86rpNjFF5jD+jB66qZpuWToEQEGL0gEm6Pob1oa1FsRnRskMAAAAAAAAAACAb6ZkBrBdTpK8LR1ipm6yuU3Zxxs6zpyYvgfsuk2UnOdm+Q2/V8nszrvxxgMAAAAAAAAAAADwbEpmAFuib+tFkvelc8zYYdV0n9Z9kL6tD5K8WfdxZmhZOgBAKdaGL1o+9zdWTXeaoTDOwDQzAAAAAAAAAAAAvomSGcAW6Nt6PyZBvcQvVdOdbehYiw0dZ04+Vk13VToEQEGmmD324TvWBtPM7iiZAQAAAAAAAAAA8E2UzABmrm/r1xk2Vb8qnWWmzqumO97Egfq23otpc09RkAR21rg2vCudY4KW3/HfKJndeTeeIwIAAAAAAAAAAMCzKJkBzN8yyZvSIWbqJpudLLbJY83F9QanyAFM0aJ0gAn6rrWhajols98zzQwAAAAAAAAAAIBnUzIDmLG+rY9i+slLLKqmu9rk8TZ4rLkwxQzYdUelA0zQ8Qv+24+rCrEFlMwAAAAAAAAAAAB4NiUzgJnq2/ogyT9K55ixXzc58aRv60VMnHvKsnQAgFLGteFV6RwTc5PkJeuzaWZ33vVt/bp0CAAAAAAAAAAAAOZByQxghvq23otN1C9xWTXdpifHLDZ8vDn4UDXdp9IhAApalA4wQacvXBucH/2eaWYAAAAAAAAAAAA8i5IZwDydxuST73WTDW+4HkuBP27ymDNxUjoAQCnWhi960dowFtQ+rijLNlAyAwAAAAAAAAAA4FmUzABmpm/rZZK3pXPM2FHVdFebPuaGjzcHl1XTXZQOAVDQcekAE3S+orXBNLM77/q2fl06BAAAAAAAAAAAANOnZAYwI31bL5K8L51jxj5UTbfc5AHHjd2LTR5zJkwxA3bWuDaYMPXYckXPo2T2e4vSAQAAAAAAAAAAAJg+JTOAmejbej/JP0vnmLHrlJkodpjkVYHjTtnNpst+ABNjbXhsZWtD1XSfkpyv4rm2xKJ0AAAAAAAAAAAAAKZPyQxgBvq23ktyVjjG3B2Om843rUSxbeqWpQMAFHZcOsAErXrCpWlmd96O55IAAAAAAAAAAADwRUpmABPXt/XrDBulTTz5fn+vmu5i0wft2/ogydtNH3cGVl0kAJiNcW14UzrHBC1X/HxKZr+3KB0AAAAAAAAAAACAaVMyA5i+kygqvcR51XSlSk2LQsedso9V012VDgFQ0KJ0gAla+dowPt/lKp9z5halAwAAAAAAAAAAADBtSmYAE9a39XGS96VzzNhNksMSBx4n0Pmze2xZOgBAKX1b78Xa8JTlzJ53jt70bb1fOgQAAAAAAAAAAADTpWQGMFF9Wx8m+bl0jpk7rJruU6FjLwodd8quq6Y7LR0CoKBF6QATtM61wZrze0elAwAAAAAAAAAAADBdSmYAEzROmliWzjFzv1ZNd1bw+DZyP7YsHQCgsEXpABN0sq4nrpruKsnlup5/hopMdwUAAAAAAAAAAGAelMwAJqZv69dJzpK8Khxlzi6rpitW8hqn0L0pdfwJW1uRAGDqrA1ftJz588/Jq76tF6VDAAAAAAAAAAAAME1KZgATomC2EjcpP6ljUfj4U/SharpPpUMAFGTC5WObWBtO1/z8c7MoHQAAAAAAAAAAAIBpUjIDmJaTJG9Lh5i5o6rprkodvG/rvSTvSh1/wpalAwCUMq4NP5bOMUFrn3A5nhNcrvs4M/Lj+HoEAAAAAAAAAACA31EyA5iIvq1PkrwvnWPmPlRNtyycwaSaxy6rpjsrHQKgIGvDY5dV011s6FhnGzrOXHg9AgAAAAAAAAAA8IiSGcAE9G29SPK30jlm7jrT2DS9KB1ggtY+qQZgqvq2fh1rw1M2uTYsN3isOViUDgAAAAAAAAAAAMD0KJkBFNa39WGSf5bOsQUOq6b7VDLAWBZ8VTLDBN0kOS0dAqCgw1gbHrrZ5OTRcWLa9aaONwOvxnMWAAAAAAAAAAAA+I2SGUBBfVvvx3SNVfj7uIG8tClMUpua0wfq288AACAASURBVNLlP4DCrA2PLQscU+H59xalAwAAAAAAAAAAADAtSmYAhYwFs7OYbvJSH6umOykdYvzzfFs6xwQdlw4AUIq14YtKrNvLAsecsh/H1ycAAAAAAAAAAAAkUTIDKKJv69cZNjsrmL3MTaYzicOkmsfOq6a7Kh0CoCBrw2NF1oZx4unlpo87cV6fAAAAAAAAAAAA/EbJDGDDxoLZWUw2WYXDquk+lQ4x/pkels4xQcvSAQBKGdeG96VzTFDJ6aPLgseeovfj6xQAAAAAAAAAAACUzAAKOIuC2Sr8UjXdWekQo0VMpXvoumq6ZekQAAUtSgeYoOuq6U4LHr/ksafKNDMAAAAAAAAAAACSKJkBbFTf1ssomK3CedV0x6VD3GOD9mPL0gEACrM2PLYsefCq6a6SXJbMMEFepwAAAAAAAAAAACRRMgPYmLFg9r50ji1wkwlNh+nb+iDJm9I5JmhZOgBAKX1bH8ba8JST0gFifXroVd/Wi9IhAAAAAAAAAAAAKE/JDGADFMxWajFOIpkKE0Ae+zCxPyOATVuUDjBBH6qm+1Q6RJLT0gEm6Lh0AAAAAAAAAAAAAMpTMgNYs76tT6Jgtiq/Vk03mc3hfVvvJXlXOscELUsHACjF2vBFy9IBkmQsQX8snWNi3phmBgAAAAAAAAAAgJIZwBqNG3b/VjrHlrismm5qU8MWpQNM0HXVdGelQwAUNLW1agqmtjZMprA+IcelAwAAAAAAAAAAAFCWkhnAmowFs3+WzrElbpIclg7xhEXpABN0UjoAQGGL0gEm6Lh0gAeUzB4zzQwAAAAAAAAAAGDHKZkBrIGC2cotqqa7Kh3ivvHP+E3pHBNzk2RZOgRAKePa8Kp0jom5ycRKXVXTfUryoXSOCTouHQAAAAAAAAAAAIBylMwAVkzBbOV+rZpuUpvTR4vSASbodNy4D7CrFqUDTNBU14YpnluUZpoZAAAAAAAAAADADlMyA1ghBbOVu6ya7qh0iIf6tt5L8mPpHBN0UjoAQCl9W+/H2vCU49IBnjIW2G9K55ig49IBAAAAAAAAAAAAKEPJDGBFFMxW7ibJYekQX3BcOsAEnVdNd1E6BEBBkytFT8B51XRXpUN8xbJ0gAl607f1cekQAAAAAAAAAAAAbJ6SGcAKKJitxWKKG9P7tn6d6ZbfSlqWDgBQirXhi5alA/yBZekAE3U0vqYBAAAAAAAAAADYIUpmAC+kYLYWv1RNd1o6xBccJnlVOsTE3FRNtywdAqCgRawND11PfW0YJ3Bels4xQa9iaisAAAAAAAAAAMDOUTIDeIG+rU+iYLZq51XTHZcO8RXHpQNM0LJ0AIDCjkoHmKBl6QDPtCwdYKL+1rf1fukQAAAAAAAAAAAAbI6SGcB36tt6meRvpXNsmZsMk8ImqW/rgyRvSueYoJPSAQBKsTZ80bJ0gGdalg4wYcvSAQAAAAAAAAAAANgcJTOA7zAWzN6XzrGFDqqm+1Q6xFcsSgeYoI9V012VDgFQ0KJ0gAmazdownnd8KJ1jot72bW1KHwAAAAAAAAAAwI5QMgP4Bn1bv1YwW5u/V013UTrEl/Rt/Tr+3J+yLB0AoJS+rfdibXjK3CZcLksHmLDj8XUOAAAAAAAAAADAllMyA3imsWR0FpvJ1+FD1XRT35Buksdj11XTnZYOAVDQonSACbqumu6sdIhvMea9Lp1jol5FCQ8AAAAAAAAAAGAn/GfpAABzcK9g9rZwlG10mXkUuBalA0zQ1IuBAOu2KB1ggua6Npwk+UfpEBP1Y9/Wx1XTHZcOArAtxmsM++NP95O8fuLHX3M1Pu7/+NOUp4MDADw4Bzq490sHj37z067y+Bwoc7vZDQAAAAAATNkPnz9/Lp0BYNL6tt7PUDB7VTjKNrpJsl813VXpIF/Tt/Vhkv8unWOC/qtquk+lQwCU0Lf1Isk/S+eYmJske3NcG8aNbv9bOsfE/Vl5AeD5+rbeS7KXYdP07Ybq11n/zWuuM2y4Phu/Xnj/BgA2aTwP2r/32MtmbuB3Pn49S/IpyUWGc6HZXacAAAAAYFr6tj548K37N1S6dXtN6nff81kdMDdKZgBfoWC2dj9VTXdaOsQf6dv6LMmPpXNMzIeq6RalQwCUYm140qzXhr6tl0nel84xYbMtEQKs21hWPsjwQdLt16ldRzjPcH3jzLQPAGCVxs9RDnJ3HvSmZJ4nXGcsnMW5EPndDSGSx5P0Hv78vqvcTdNLhtfUpyRXU7+ZIgAAAPB1Y4lsb3zc3jxy1Z/5XeauiPYp400jXVcApkbJDOALTChZu1+qpjsuHeKPjB82/rt0jgkyzQTYWdaGL5r12jBeMPxX6RwTd5nkQNEM4LfN1IfjYxOTOVbpJsOHVqdJTr2vAwDfqm/r2/Ogg0yvVPYcHzOeD9nEs73Gaz230/Ruv67z9Xp/qvDtJL2rNR4PYBbGm/Pcvg/v5fcTH5479f383o9vN+Tebs61KRcAgG8yfs53/+aRpT/ru8l4g6Tc3SjJ53dAMUpmAE/o2/o4yc+lc2yxj1XTHZYO8Rx9W58k+VvpHBNzWTXdw1HPADvDxKsnbcXa0Lf1RcpfPJy6WU+sA3iJ8QOnRYYN1XPcTP0lH6NwBgD8gXvFssNMb2rrS1wmWUbhbNbGm0IdZDqbw27d3uDhLMMGsdneoAngOQpPe7/MWDrLuDnXdQ4AAJLfXTe4vWnSHK5tXebuJklnZaMAu0bJDOABG8fXblYTMPq2/pR5/KNik/5aNd2ydAiAEsYPSK9ibXhoK9YGk2yfTdEM2Bnj2r9IcpTtKpY95SZD2WzpwyoAIPltA85RhvOhXbgWcp7hXGhZOghfd6/EMLeJerfn3KdV052WDgOwCuPkyNv346mUfG/dFs/OMpR9r4qmAQBgY8brWocZrmtN7Tz1W7meAGyUkhnAaPxA6izzP6GcspsMBbNZ3KnRRvMn3STZm0tJEGDVrA1Puqma7nXpEKuiYP5simbAVhunlh1ld29Cc5nkxAZrANhN49SyoyQ/ls5SyE2SkwyFs6vCWRiNn+PdTtN7VzjOKtggBszWjCecmgYBALDF7l07OMr27gN200hg7ZTMAPLb5rFltvfEcir+MqcT276tL+I18dCvVdMdlQ4BUIq14UlbtTb0bX2c5OfSOWZC0QzYOuPdt4+zuxuqH7pOcqxsBgC7Yby5znHmMxVqEz5kOB+6Kh1kV42vy20pln3JdYYNYidea8BUbeGEU2VfAIAtMZ6rHmd+N0F4qevc3SjJ0ABgZZTMgJ03biA7zW6dXJbw96rpTkqHeK6xePg/pXNM0J98wAnsqvGc4V+lc0zQVq0N48XHf5fOMSOKZsBWGN//l1Eu+xJlMwDYYsplz/IhyZENO5uxhUWGb/ExQ9nsrHQQgOS384RFtvuayU2G60LKvgAAM+Lmkb9xPguslJIZsNP6tj5K8o/SOXbA7DYf9229TPK+dI6JOa+a7qB0CIBSrA1P+lg13WHpEKvmz/qbfUyysNEOmKO+rV9nuMOf9/3nuc6wudodvgFgC4wbcU5iavtz3WTYrHNcOsi26tv6MEO5bNc3hyXJeYYbPZyVDgLsph0uoXv/BQCYOOWyr/qQ4Xz2qnQQYL6UzICdZfPwxlxWTbdfOsS3GDcZ/m/pHBP0k42EwK6yNnzRVq4Nppl9l8skB4pmwJyMN545zu5NRliF8wwF46vSQQCAbzf+u/ckybvCUebqOsO50FnpINtgvO62yFAu27Uiw3MoOwAbtcPlsodMdQcAmBjlsm/ya4bzWXs4gG+mZAbsnPHDqrO4M+cmXCfZn9uJqgl3T7qumm6vdAiAUvq2Pk7yc+kcE7PVa0Pf1mdxYfJbXSc5rJruonQQgK8ZN1Uv431+FX4xyQMA5kXRfqVs1nmB8fO6o/Hh9fjHzjNMFXbdBViLccPuMsplDyn7AgAU5oZJ3+0myYnP8oBvpWQG7JS+rfczFMx8WLV+NxmmWczuw66+ra/i4vlDNg4CO83a8KS/V013UjrEuowfqP+rdI4ZuslwN/etm3AHbIfxbtwncV1glS4zvPfP7t//ALBLxs9HlnEDvlUz1ew7OC9/kQ8ZymbKjcBKuBnPs33M8P57VToIvNT4936vcAym5ZPru8BUuSn0Srh+BXwTJTNgZ4wfWP2zdI4d8tMcNxf3bX2Y5L9L55igP7lgDuwqa8MX/de2b2YxzexFtrqECMzPOCVhGXc4XCc3JwGAiTK9bCOcCz3DeFOfkyg7vtRNhqk6rr0AL2LD7jczCYLixvOpJHmdZP/eL+2P37u1FzfQZHVukjwsoX168L3f/VyRAXgpk3bXwo1rgGdRMgN2Qt/WyyTvS+fYIX+tmm5ZOsT36Nv6NDYdPvSharpF6RAApVgbnrQTa4NpZi/mAiUwCaZ2bNR5kkPv/QAwDYr2G+dc6AvG1+Jxkr8VjrJtzjPcifyqdBBgXlwreTFT3VmL8e/mbXns/te92GDPvJ2PX+8X0c7Grxf+DQXc5xrC2t1kuH51VjoIMF1KZsBWG0e8n8bF0U2a7abz8fXy79I5Jugv/lEB7CprwxftzNrQt/VFnEu+hA/bgaLGiaTLmNqxSdcZPpzy3g8ABdk8Xox/Bz/gzuNrZ6oZ8E1ML1uZmww3WVuWDsL8jOdHe+Pj9sfOldh110munngoocEOcT1ro37NcD3BeyzwiJIZsLXGizKnsZFskz5WTXdYOsT3ckH9SddV0+2VDgFQSt/WJ3F3pIcuq6bbLx1iU/q2XiT5Z+kcM3eTYYPdaekgwG7xHl6UjVYAUJDPR4q7SXKgaOZzlw37mOH6i81hwJPGiRCnSX4snWXLfMhwDcT7L08az80PMkwl24tN8/C9znOveJbkyr+5YLv0bX2U5B+lc+wYN0sCnqRkBmwlH1oVcZnhQ9PZXjzt2/pTfOj+0F9tCgR2mbXhSTu3NphmtjK/Vk13VDoEsBv6tl4meV86B7t33gAApSnaT8rOnguNRYZlkneFo+waBUfgSQroazf7vRKsxngOdHDv4bMlWL/L3BXPzjKUz64K5gG+0bh+nsTneqW4aTDwiJIZsFXcfauYmyR7c75o6oP3J83+zxXgJawNT9rJtWH8AP5fpXNsicskhz7cAdZJwWxydnZzNQBsmmsZk7Rz50J9W+9nKJjZVF3Ozr3ugC8zEWJjFH13VN/Wh1Eqg6m5yV3p7CLJhc8mYZr6tt7LsN/XGlreL1XTHZcOAUyDkhmwNdx9q5ituFjat/VZlBMf+lA13aJ0CIBSTK960s5OonKusFI3SY5sdgLWQcFssmxyBYA1UzCbtJ05FxoLZmfxWd0U+IwHcJ1k87Zi7wRfN26GP0hyGFNbYU5uclc6O6ua7qxoGsA1hGn6kGEvx07deBp4TMkM2Ap9Wx8n+bl0jh31l7n/w3v8B8v/lM4xQX92ARzYVdaGL/rTrt7lzTSztXCBElgpG6cmb2c2VwPApimYzcLWnwvZHDZJlxnKDq69wI7p2/p1hvdkN9IrY+vX/V0z/p1ajA9/r2B7XGZYL88yFM+cN8OGjNeyTuIawhS5lgAomQHzNl7IOY2pEqVsxcVRGxGfdF413UHpEAClWBuetPNrg2lma3Gd5FCxHXgpa/dsbMV1BACYEjdFmZWtPRdSdJw0m8Ngx4yl32UUYUrb2nV/l4znOCaWwe5QOoMNcA1hFi4z7OO4Kh0EKEPJDJitvq0PM1wcdTeDMrbiouhYVLyK19FDW/HnC/A9xrXhf0vnmKCdXxtMuFurX6qmOy4dApgnH0bNjqnZALAiJkfN0tadCyk6zsJNhqLZVr32gMecG0zOT1XTnZYOwbfp23ovyVGGqWX+LsFuu8xw8/tT59KwGj7TmxXXEmCHKZkBszNu/D5O8rfCUXbZh6rpFqVDrIJ/uDzppmq616VDAJTSt/VRkn+UzjEx11XT7ZUOMQUm5ayVu2EB38y/6WbpJsm+93sob7zOuj/+dD/J/etBD3/+0NX4ePTzqunOVpMQ+Jrx7/BZTCmZm63aoKPMMCtb9doDHvOePEnee2dkLM4v4jMg4Gk3GQpnZxlKZ6acwTfymd4sOZ+FHaVkBszKeGF0GR+alrQ1BbMk6dv6Ksmb0jkmxiQRYKdZG55kbRiNd7C8iA/q1+UmyXHVdCelgwDTZ/PUrF1WTbf/x78NWIVxo9ze+DjIUB7bxPXV8ySfMpw/XyS58mE0rE7f1qdJ3pXOwXe5zLBBZ9abEp2Pz5LNYbClvCdPmvfeiRv/zXyc5MeySYCZucywh/HUDdXgjymYzdpNkr25X8cCvo2SGTAbpopMwseq6Q5Lh1iV8WLhv0rnmKA/uQAC7CprwxdZG+7p2/o4yc+lc2y58wxTzVyoBJ40Tu64iGL4nP1aNd1R6RCwbcbNpfsZymT7mebNus4zvIefJbnwbw34djbmbIVZf97ifHzWlB1gyyiYzcJWFMy3jXIZ/P/s3T9vHFmWN+iDwWsssAb1DcgBFliTaiOwxhqKttaU+gMElG2GVRrv9SrKXKtUVpiVQnyAZnnrdcpchNGSuVaT3noreq+5RoaqVKL+JMnMOPHneYDCAD2D4m+aybiR995zDkf0PvZr8dZ7NtxlH2sRvM/CyigyAyZvmBaxDRs72Rb3oti31TYiXmbnmJhZH2wDPJYu4F+0qCmmx+Ai1WhuI2JT1N1VdhBgevq22oV9giX4a1F3u+wQMGfD3mk5/PMi5nmx9CYirmJ/GWe3pP1HOAUTthdltpPj+7Z6F9MsZOYwtxHxVKE3zJ8Cs1l5W9RdmR0Cd5CAk/u4z/Xa+zb8/r76r+wcHMX7ou6eZocAxqHIDJi0YXpZEzZFsy2xwOwiIv6dnWOCXPADVsva8FXWhi/o2+pFRPwjO8dK/Bb7YrPFvIsCj2PS+aLcxP5yq2c83MNwMP9i+GeJF/x/i/1F2SuXceAuxfaLM7t9l76tXkfED9k5eLTFnf3B2igwm6XZFpgvwdBA8FVE/JidBViN97EvarXHxSpplLRImlTDSigyAyZp2Ny5CgelU7DIQ6a+rZqwefi5m6LuLrJDAGSxNnyRteEbXOwblalmQEToeLhQvxR19yo7BEzdcCD/IvYX4tY0Ufd9RLyO/WWcRe1PwkP0bbWJiF+zc3BUsyq613RncRZ5Bghr4MLurM2uwHwJhneY17Gu79PAtPwW+7uQ9rhYheH+7y6W2SRt7f6rqLvX2SGA0/qP7AAAnxsOSa/Dhd0puI2IFwv9crvJDjBBXv6BtXO5+a4mO8DEbbIDrMhZRPyjb6urYUMaWK9tdgCO7oe+rcrsEDBFfVs96dtqMzQ3+Hfspziu7ULcZewLav6/4V3wRXYgyDJ8F7KHuzznMZP9l6GgYZscg+O6DM8VmJ1PGvYqMJsne9wjGr5XX8W+SH5t36eBaXke+z2u676ttkNDPViy16HAbKl+9gyD5VNkBkxG31YXw4WJX8OG6BTcxr574XV2kGMbChltIN61zQ4AkGVYG7x//Nlt7A+q+YrhPemn7Bwr8zz2hy9ldhBgfMPUUQdSy9RkB4ApGfZJX8e+EdevoRnXR89j33jgum+rxsVMVuhV2LtYqrkU3StoWKaXw3ctYD6uwv7InJ2Fc/lRDO9X72L/XRJgKs4i4mVE/Ktvq3dDgyl7XCzK0CjsZXYOTkrjBFg4RWbAJPRt9Sr2mzsuTEzDxwKzd9lBTmSTHWCC3ix0Yh3AoTbZASboytrwfUXdNRFxk51jZc4i4p99W722cQnrMUxNMHV0uZ4NRf+wan1blUOH9X9HxA/hIv/XnEfEj7GfbrYd1ghYNO9CqzDpaVIaPizej6aFwjz0bbUNdyqW4Lnn7mkN7y7/DM2HgWm7jD9PN7tIzgOPZgr6apyH3zMsmiIzINUn08t+DpcmpmLRBWbDFxkb73dN+gAb4JSsDV9lbTjcJjvASv0QEe/6tnqaHQQYxeuwb7B0TXYAyNK31Ythj/SfocP6fb2MiH8PF3HK7DBwQk14F1q6y6Eh4+QMe2c/Zufg5FxqhYkbmrOYCLEcW03Ujq9vqydD8xbvLsCcfJxu9u++rXYKkZm5bdjDWguNE2DBFJkBaYbOQf8Ol7qnZNEFZoNJHtIme7/w3znA9zTZASborbXhcEXd7SLil+wcK3UeEf8avlsACzUUDSi6WL5z08xYm2Fy2XVE/CPskT7Wy9hPu90pNmNphqIPF8rXoZnoZfNtdgBGcRYRV9khgC8bGm39mp2DozoL51NHNfyd7MI+IjBvzyLiH31bXfdttZnod0T4ouGMxz73umicAAulyAwY3SeXJ3QOmpbFF5gNL7Sb7BwTZFINsFrD2qCzzl3b7AAz1ETETXaIFfuxbytTzWC5muwAjKbJDgBjGPZHd7GfXHaeHGdpnsW+2Mw0FpZkkx2A0ZzFxBrluSC2Opd9WzkzgokZzjEUgS7TD/a0j+OTArPL5CgAx3Ie+wLz676tptqQBH43fEZ9n1wfjRNgoRSZAaMZxtJvw+WJKVp8gdngRRjH/Lnbou622SEAElkb7rI2PEBRdx/Cxb9slxGx69tqUhfygMcZptG41LoeppmxaH1bXXxSXObZdlovI+LffVu9dgmHORs+v77jrMurqTy3hhxNdg5G90PfVppywbRsw/2KJXMZ+5GGdWsXzvuAZTqLfSP/a02VmLgmrMVrpXECLJAiM2AUw0XP69gf7jMtaykwi3AY/yXb7AAAyZrsABPkQPOBirrbRcQv2TlW7iwifu7b6moql/KAR2uyAzC6TXYAOLah+VYTEf8OxWVj+yH2l3DsCzJXmuOsz5Smmb0KRQ1rtbWvAtMwvMc+z87BST0bmizxAEOzon+Ed2Zg+c7ij6ZKis2YlOHz+EN2DlK5ZwQLo8gMOKm+rcq+rd5FxM9hU2eKVlNgNmzMXmbnmCAv+MBqDWuDizJ3bbMDzFlRd68i4n12DuJ57C8T67wNM2aK2Wo90/GQJRmeZe9i33GYHB8bEexcwGGGplJsxLjSf++m6K3eWdgjhHTDd+MmOwejaLIDzNFQYPZrdg6ABIrNmJptdgDSaZwAC6PIDDiJoTvvNiL+GQp7pmo1BWaDTXaACXpb1N11dgiARJvsABP0m7XhKDaxf9ci11lE/KNvK0X1MF8uta6X3z2zN+yPvo79/qjmFtPwLCLemWrGXAwXy52vrNPZcGk606vQPHLtnmveA+m24Vm8Fi7l3tPw35cCM2DtFJuRTsNIPtFkBwCOR5EZcHR9WzURcR37LzJM06oKzIaOmz6Pd7lwDazWsMlqbbhrmx1gCYZ3LBdXp+OHvq3emYoD8zKs1c+zc5DGZVZmbXjv2EXED8lRuOvjVLOrYc8QpmyTHYBUafsKppjxia31EnIMdy4Um6/LJjvAXAzfua+ycwBMyMvYN1ZqvL+ToMkOwGRonAALosgMOJq+rV70bXUdET+GjlpTtqoCs8EmO8AE3RR1Z+MVWLNNdoAJsjYcUVF324h4k52D311GxG4CneCBw22yA5BqCtM74EGGiR+7cCF06p7H/vKNRgRMmaLrdbtMfEZtwjkfe2fhwiCMbmi882N2Dkb30hSa7xv+O9qFdxWAz53F/v3heihWh5Mb1mVTzPhUkx0AOA5FZsCj9W31tG+rXUT8IyLOk+PwbWssMIvQcfNLttkBAJJtsgNMkAmXx/cqIt5nh+B3ZxHxq6kVMBub7ACkc7Ge2enb6lXs90hddpuH89g3IvC8YXKG4iLnLWySfq4zFT71g6JsGN02OwBpNtkBpmzY178K37kBvuUsIn7s2+ranhcjaLIDMDmmmcFCKDIDHqxvqyd9W20j4l+hI8EcrLLAbPjC7DD+LoUEwGpZG75qmx1gaYq6+xD7C/K32Vn4E1MrYOJcqmbwXFEwczLsk/6cnYN7O4uIf5ieyAS5CEZEwkXz4SKQd3E+50wJRjK8l7p7sV6b7AATtw1TwwEOdR77Pa+dM1FOYTi/eZmdg0naZAcAHk+RGXBvQ3FZExHX4UVxLt7HCgvMBpvsABP0Zrj0DrBWujHfZW04kaLursPlwCn6OLVikx0E+KJNdgAmwxrKLAwFZvZJ5+1X74ZMjDWQiIizhM7zm5F/HvPwzDoJpzdc1FXUuW7nCgG+bJgc/jw7B8AMPYuIf/Vt9VpTN45skx2AyXrpeQPzp8gMuJfhAOE6In4MI+jnYrUFZn1bXYSNxi/ZZgcAyDKsDbqA3uXg+oSKuttFxN+zc3DHWewvE29tcsLkuFTNR2V2APgeBWaLotCMSRi+n5jQwEflWD9IF3K+o7F/Aif3KtzBwIXtO4bCO5PDAR7nh4i4tvfFEWnuzLdssgMAj6PIDDhI31abvq2uI+LXsLE5Jx8LzNY6mcSXmbveDxfdAdbK2nDX+zUWo4+tqLttRLzJzsEXvYz9VLOL7CDA75dGzrNzMBkKDpk0BWaLpNCMKSizAzApY74PeffiW87D3iqczLA3+WN2DibBevyJocD5KjsHwEJ8bMC5MzmTx3CWxwE22QGAx1FkBnxT31Zl31a72BeXeTGcl7ex7gKzCC+rX2JSDbBaw0HUJjvHBFkbRlLU3SYUmk3VZUS869uqzA4CuFTNn5w57GaqFJgtmkIzspXZAZiU8xGborjUzve8Ms0MTqbJDsBknNsL+ZMm3FUCOLZnEfGvvq1MK+ahNtkBmLxLTX5h3hSZAV/0SXHZP2P/xYJ5eVPU3aoLzIaLIKbu/dlt6PIFrNuLsDZ87naYsMV4XsV+2izTcxYR/+zbSlduyFVmB2ByyuwA8Llh30mB2bL96mInicrsAExOeeofMFwsfH7qn8PsnYVpZnB0Q+Mr3y/4VJkdYAqGv40fsnMALNiPoQknD6NJDYfwOYEZU2QG/IniskV4M0zJWDuHXHddrbnwECCsDV+yzQ6wNsNaXIZC8j5/lQAAIABJREFUsyn7eZhMAuQoswMwOWV2APjUcOni1+wcjGKnmzNJLrMDMDnlQn4Gy2CaGRxfkx2AySmzA0zENjsAwAqcx74J52vv+RxiaMxlyiiH2GQHAB5OkRkQERF9W10MFykVl83b3xWY/f5lxkH8XU12AIAs1oavep0dYI0Ums3Cy76t3jlMgXEN67Wpo3yuzA4AH/VtdRGmxK/JWUTsskOwLrqH8xXlQn4Gy2CaGRzRsPa7n8HnyuwA2fq2asIFdoAx/RCmmnGYTXYAZuNyOFMBZkiRGazcJ8Vl/46Il8lxeJy/F3W3zQ4xEQ637npb1N11dgiARNaGu6wNiYZCsxcRcZudha+6jP30iqfZQWBF/L3xJWcOoZiQq1AMuzaXfVtpzsGYvA/xJecjNEEpT/zvZ1lMM4PjabIDMElna96XHtYY53oA4/t9qll2ECatzA7ArJTZAYCHUWQGK6W4bFFuI+IvCsz2hg3HF9k5JmibHQAgy7A2eN+5y+ZwsqHIrwyFZlOm0AzG5W+Nr/HZIN3QRd105HX6QRdnRnSRHYDJOtn70LB3Zo3jPkwzgyMwxYzvWPNeyOvQ4AUg0w99W71zPsrn7B/wAO7xwkwpMoOVUVy2ODcRURZ19y47yIRswobj524UIQIrt8kOMEE3Rd1dZYcgYniPK0Oh2ZSdxb7QbJMdBFbAgSVf47NBquFCxY/ZOUi1NbGFkVjz+JpTfjZ87ngI08zg8ZrsAEzaKtfnYZq9u0wA+S4j4l99W2kuwafK7ADMTpkdAHgYRWawEorLFul9RDxVYHaHL7d3bbMDACSzNty1zQ7AHxSazcJZRPyq0AxO7iI7AJNVZgdg9bbZAUh3Hi4BM45VXibmIBcn/HeXJ/x3s1xnobkXPJgpZhxgre+FTXYAAP7k576trjSYYFBmB2B2zoYmAsDMKDKDhVNctlhvYj/B7EN2kCkZNuPPs3NM0DY7AECWvq1ehLXhS15nB+DPhkKzp7FvJMB0/dq3VZMdAhbMms3XrPViFRMwrP2X2TmYhB+G/Uc4ieHCxVl2DibLJDOmSHMveLgmOwCTt7r12RQzgMl6HhHv+rZa3drEHT4DPESZHQC4P0VmsFB9Wz1VXLZYPxV1t1Fg9kUOs+76rai76+wQAIk22QEm6I33iGka1uwyFJpN3Y/Ddy3giBxO8h06HZJi6NBrv4lPadjBKV1kB2DSTtk1/uKE/26W7dzUd7g/U8w40BqbDzTZAQD4qvOI+FffVvZK1807LA/hDBhmSJEZLEzfVmXfVruI+FcoLluivxd112SHmKLhstnz7BwT5OILsFrWhq/aZgfg64YCwDIUmk3dS4VmcHSnvDTLMjiEIsPrWOfFPr7u0mV6TqjMDsCknXKqpomdPEaTHQBmqMkOwDysqSnT0OTFHSeA6fu5b6ur4bnNiqzpvYSj89mBGVJkBgvxSXHZP0PHgCW6jYi/FHW3zQ4yYZvsABN0U9TdLjsEQCJdtO6yNszAJ4VmvyVH4dsUmsFxOZDkexxCMaqhaYULbnxJkx2AxbLWMToXAzkC08zgHkwx457WtE470wOYj+cRsVN0tDp+3zyU7z8wQ4rMYOYUl63C+4h4WtTdu+wgE7fJDjBBppgBa7fJDjBBTXYADlPU3Yei7l5ExJvsLHyTQjM4HodTfE+ZHYDVabIDMFnnfVs12SFYpIvsAEzbUJhwbN7DOQaFAXC4JjsAs7KmIrNNdgAA7uUy9oVmL7KDMJqL7ADM19DUD5gRRWYwU4rLVuO3iCiLurvODjJlQ4fE8+wcE3MbEdvsEABZhrXhLDvHxNxGxFV2CO6nqLtNRPyUHINvU2gGMA4XoBmNKWYcwGV6TuEyOwDAA12eqAgSFsUUMx5gFXshQ4GC+x4A83MWEf/o28o+2Tqs4r2Ek7nIDgDcjyIzmJm+rTaKy1bjp6LuXhR19yE7yAxssgNM0JXPDrBym+wAE2RtmKmi7pqI+Ht2Dr5JoRnA6Z3pdMiImuwATN7Z0NwEjkJxBonK7AAsRpMdAGagyQ4AE7XJDgDAo/zsnHQV1jRhleNTpAgzo8gMZmIoLruOiF9DcdnS3UbE34bLxHzHcMHM38Rdr7MDAGTp2+ppWBu+pMkOwMMVdbeNiL/E/l2RaVJoBnB6DqE4OVPMuIcmOwCLYo0D5u6Zgln4OlPM4Mv6tnoSEc+zcwDwaC/7tno3PNdZJu+yPIZnA8yMIjOYuM+Ky4yHX76biCiLurvKDjIjTXaACXpb1N277BAAiV5lB5igt0XdXWeH4HGG9f1pRLzPzsJXvezbyjMI4HRcwGcM1nIOdd631YvsECzGRXYAgCNosgPAhDXZAWCiNtkBADiay4jYDU2BAT7luQAzo8gMJkpx2Sq9jYinioMON3Q/cZHjrm12AIAs1oav2mYH4DiGYsEyIt7kJuEbfu7bapMdAmboIjsAs1BmB2AVNtkBmJVNdgAWw0ULDlFmB4DveOZCKdxlihl80yY7AABHpdBsgUyt5ghMMoOZUWQGE6O4bLV+KuquLOruQ3aQmXkREWfZISbmtqi7bXYIgESbsDZ87sbasCxF3X0o6m4TEf+VHIWv+9VUC7g334c5hINpTmooFPd9gvt43rfVRXYIFsHFc2ApTIWFu5rsADBFw3epy+wcABzdWewLzTbZQYDJUGQGM6PIDCZCcdlq3UbE34q6a7KDzJSDqru22QEAklkb7tpmB+A0irp7HRF/jf07JdOz1aUP7kWRGYc4U8zBiW2yAzBLm+wAzJu1jXvYZQeAA7z0XIM/mGIG36RRG8ByncW+KecmOwgwCRoLwMwoMoNkistW7X1EPC3q7io7yBwNG/JePu96nR0AIMuwNnifumubHYDTKepuFxEXsX+3ZFo+dunTlQvguBTwchLDZWiXP3mITXYAZs/aBixNkx0AJqTJDgATpsgMYPkUmi1DmR0AgHEpMoMkistW701ElEXdXWcHmbFNdoAJ+s1nCli5TXaACbI2rEBRdx+KunsaEb9kZ+EOhWYAx+ciPqfichsPdW6CLY/k88OhrrMDwIFMM4MwxQy+Zdgz9/cBsA6/9m2laToAzIgiMxiZ4rLVu42Ivxd1tynq7kN2mLkaNhxfZueYoG12AIAsw6UFa8NdNmtXpKi7VxHxt9i/czIdl+FvEeCYyuwALNYmOwCztskOwKwpMuMgGgkxM012AJiAJjsATJhGLwDr8kPfVtvsEEAejXlhXhSZwUj6tir7ttqF4rI1ex/76WXb7CAL8Co7wATdFHV3lR0CINEmO8AE3RR1t8sOwbiG94GnsX/3ZDpe9m3VZIcAWAgX8Tm6oWnFZXYOZs0FSR7D2gYs0QsXyFgzU8zgu8rsAACM7qVCM1g1e6AwI4rM4MQ+KS77Z9hEXLPfYl9g9i47yEJssgNMkOkYwNptsgNMkLVhpYq6uy7q7mlE/JSdhT/5cbhcAsDjnA0FQXBMZXYAZu+8byuH5NzbUIChMSGH0EyGuTkLTSNZtyY7AExcmR0AgBQKzQBgBhSZwYn0bXWhuIyIuI2Ivxd196Kouw/ZYZagb6sX4dD9S7bZAQCy9G21CWvD527D2rB6Rd01EfHX2H8emIYrhRHwVb4zcx8KOTg2U6g4hjI7ALNkTeNQ3peZo1emmbFGpphxRLvsAKcwNOhwrgewXgrNAGDiFJnBkQ3FZduI+HfYOFy797GfXrbNDrIwuh7e9UYRI7Bym+wAE3RlbSAioqi7XURcxH6yLvnOIuIqOwRMlMnf3IcL+RxbmR2ARVCsyENY0zjUqfZ5vIdzSqaZsVZNdgCYuDI7AADpXvZt5bsCAEyUIjM4kr6tnvRt1cT+MOZlchzy/RL7AjOHc0c0TH1QvHnXNjsAQBZrw1e9zg7AdBR196GouxcR8fcw1WwKLofvjgA8XJkdgOUYpgycZedgEXw35SEUmXGoU503aVLEqZlmxqqYYsaRLXWdLrMDADAJP/dttckOAQDcpcgMjmB42b2OiB/DhYS1u42IvxV198r0kJPQweSu98OEEoC1arIDTNB7he58yTBh92nsJ+6S68fhwgnwB2sX9+FCPsdUZgdgObzj8QAX2QFYPWdZnNpZmPbJujTZAViOBZ/1lNkBAJiMXxWaAcD0KDKDR+jbquzb6l1E/BqKy4h4GxFPi7q7yg6yYJvsABNkUg2wWkMHXBcU7rI28FVF3V0Xdfc0In7KzkJsdfKGP2jUwj2dDRNt4RjK7AAsSpkdgNkx6YRDXZ/iX7rgy+tMS5MdAMZgihlHdpsd4BSG/Rz3qwD41K8aNwHAtCgygwfo2+qib6ttRPwzIi6T4zANPxV1VxZ1d50dZKmGriU2G//sNiIUNQJr9iKsDZ+7HaZVwTcVdddExF/CVLNM5xGxzQ4BE+OZxH2YZsax+CxxTD5PHKxvK58X7uP6hP/uRV5iZ1LOTSdgJZrsACzKUgvBy+wAAEzSlX0SAJgORWZwT31bNbHfzHmZHIVpeB8Rfxku6XJar7IDTNBWt39g5awNd22zAzAfQ7fyMiJ+SY6yZs/7tjKREf5wnR2AWXHgzKMNFxc0ruCYyuwAzMpFdgAYLPUSO9PSZAeAUzLFjBO4zg5wIvZzAPiSs4jYDRMvAYBkiszgQH1blX1bXUfEj+HiAXu/REQ5XM7lhIYLP6YG3vU6OwBAluHA1tpwl7WBeynq7kNRd68i4q8RcZOdZ6W2fVs9yQ4BE+H7NfdRZgdgEVxu49jOXIbhHjyDuI9Tvit7D2cMppmxdE12ABbnOjvAiXgHBuBrzmI/0cy5KQAkU2QG39G31ZO+ra4i4p8RcZ6dh0m4iYi/FnX3yhSp0ZhUc9fbou6us0MAJNpkB5ig36wNPFRRd7vYH+6+SY6yRmdhCiF8tMsOwKy4lMQx+BxxCmV2AGajzA7AfJz4POr6hP9u+JTzPhbJFDNOZJcd4ET8rQDwLZfh3BQA0ikyg2/o2+pV7A9WnidHYTp+i4inwyVcRjB0J3mZnWOCTKoBVsva8FXb7ADM2zDVbBMRf4uI29w0q/N8uIwCq+a7NvdkWhDHUGYHYJEUL3Koi+wAzMb7E//7TTJjLJf2P1ioJjsAi7S49blvK9+VADjE876t3IsDgESKzOAL+ra66NtqFxE/x76rPNxGxN+KunthetnoNtkBJuimqLur7BAAiXS8vcvawNEMn6WL2DdYYDzboYgW1u7UF2hZFpeTeKzL7AAsUpkdgOkb3v3Ps3MwGye9ZK7ZAyNrsgPAMZlixoncLPRein0cAA71Q99Wm+wQALBWiszgM31bNRHx77ARyB9+i4gLF7fTKCS4a5sdACDZJjvABOnkxVENU81eRMTfw1SzsZyHd1+IiNhlB2BWXE7iwUzR4IQUL3IIaxj3McYkE80eGMsz72EsTJMdgEVa3BSzwUV2AABm5bUpmACQQ5EZDPq2etq31buI+DE7C5Nhelmy4ZBJN9e7ttkBALL0bfUirA1fss0OwDIVdbeN/eXHt8lR1uJV31YX2SEg2VIv0XAaZXYAZq3MDsByuTzPAcrsAMzKGO/IuxF+BnzUZAeAYxguPWtezCnssgOcSJkdAIBZOYuIq2EaPAAwIkVmEL9PL/tX6DDKH34J08umwCSHu94UdXedHQIg0SY7wAS9URDPKRV1d13UXRkR/5WdZQXOwkUrUGTGfehiymP4/HBKPl98z0V2AOajqLvdCD9mjJ8BHz0zkYCFcJbNqeyyA5zIRXYAAGbnPCLc3wSAkSkyY9X6trro22oXppfxh5uI+GtRd69c1s41THB4np1jgrbZAQCyWBu+apsdgHUo6u51RPwlIt5nZ1m4lyZfsGZF3b2L/WRxOMSZCZA8QpkdgEUrswMweYorONRYk8V3I/0c+EhxDrM2fBd9mZ2DRbod9seW6Dw7AACz9GwYIgEAjESRGavVt9Wr2HfHfpadhcn4JSKejtQRku/bZAeYoBufT2DlXDy46721gTEVdfeuqLunEfFTdpaFa7IDQLKlXqThNFzS596GC6Fn2TlYNM8mvucyOwCzMcq78dB4UVMZxvRSwwhmrskOwGLtsgOcggmWADzSj5p0AsB4FJmxOn1bPenb6ioifg4XCdh7HxF/Mb1schQS3NVkBwBItskOMEGvswOwTkXdNRHx19hPAub4njkoYeV22QGYFZeUeIgyOwCLd+7iPF/jgi33NGYDhu2IPwsinHsxU6aYcWJX2QFO5CI7AACzt+3b6kl2CABYA0VmrMpwSe9dRDxPjsI03EbEfxV197SoO13SJ6Rvq00oAv3cbSx3Qxngu6wNX2RtINUwRe9pRLxJjrJUTXYASOQ7OvdRZgdglhR4MAafM77GZ4P7GPPdeDfiz4II08yYryY7AIu21HMf78AAPNZ5aI4CAKNQZMZq9G3VRMQ/Y/+yCb9FxNOi7kz/mKZNdoAJujJpD1g5Ey7v2lobyFbU3Yei7jYR8bfYFz5yPKaZsWa77ADMiktKPITPDWMoswMwWRfZAZiPMZskDj/LxHLG1mQHgPswxYwTe7/gcx+TZwA4hud9W7k7AgAnpsiMxevb6knfVruI+DE7C5NwExF/K+ruRVF319lhuKtvq6cR8Sw7xwQpiARWa1gbLrNzTJC1gcko6u4q9pe132ZnWZgmOwBkGC7TuNzKoc5MP+AB7D0xBsWMfE2ZHYDZyPiOvdTpKUzXi76tFB4wJ012ABZtmx3ghHw/AuBYGmcCAHBaisxYtOFC8nW4NMDeT7GfXuaAbNp0G7nr7ZjdSgEmyNpw11sF80xNUXfXRd2VsX/v5jhMM2PNdtkBmBUXlTiYtZUROZfga6xbHCrjXEBTI8Z2FvZ/mQlTzBjBku+yXGQHAGAxzmLZhdkAkE6RGYvVt9UmIv4V+5dK1u1tRPxnUXfN0A2diRo6Fb7IzjFB2+wAAFmGtcGh7V3b7ADwNUXdNRHx14i4TY6yFC5asVYabXAfLutzHz4vjGZohAe/Gy6nO7fiUKO/Ew9Njd6P/XNZvVemmTETTXYAFu23hTcXPM8OAMCiPOvbyhkqAJyIIjMWqW+rbUT8mp2DdDcR8bei7sqFb8YtyYtwwP6526LuttkhABJtsgNM0I21gakr6m4X+86kb3OTLMLz4SIqrI0iM+6jzA7ArJTZAViVMjsAk3ORHYBZyXonNs2MsZlmxuSZYsYIFjvFTCExACfSOEMFgNNQZMai9G31pG+rd2Fzb+1uI+Knou4uirpb7EbcQjXZASbIYS6wdi4X3LXNDgCHKOruQ1F3ZUT8lJ1lAZrsADC2oVgVDmVSEPfh88KYfN74XJkdgPko6i6ryOwqTCdnfPaBmbomOwCLtvTGs74XAXAKZ+HuBACchCIzFqNvq6cRcR0Rl8lRyPUmIp4WdddkB+F++rYqI+I8O8cEbbMDAGSxNnzVNjsA3Mfwbv7XcEHtMV7o9spKmYbIoc50LOUQw+fEdwzGVGYHYHJcsOVQae/CRd19iAVPU2Gyzvq22mSHgC8xxYwRbLMDAMBMPevbSsMKADgyRWYswrDhvIt9dwLW6W1E/LWou01Rd9fZYXiQTXaACfrN5xlYOZuBd72xNjBHw0SipxHxPjnKXJ1FxIvsEJAga3ID8+TSPofwOWFs55oF8JmL7ADMRva78Ovkn886NdkB4Cua7AAs3tLX3TI7AACL1th/A4DjUmTG7A2dCH4NBWZrdRMRfy/qrhwurjJDur991dI3kwG+algbnmfnmKBtdgB4qKFAsoz99GHuT+Eta5R9sZZ5UTzEIcrsAKxSmR2ASbnMDsBspL4LF3X3LkwWZnznppkxNc6xGcFbzQUB4FHOwj0KADgqRWbMWt9W24j4OTsHKW4j4qeIeFrU3TY5C4+3yQ4wQTcKJ4GV22QHmCBrA7NX1N2Hou42sX+X534u+7ZSQMHa7LIDMCtldgBmwVpKBp87IiKib6syOwOzMoWGCxrhkaHJDgCfabIDsHhNdoARmC4DwKk9t+8CAMejyIxZ6tvqyVBgpmPUOr2JiIui7pqi7j5kh+EoNtkBJsjhLbB2Jvbc1WQHgGMp6q6JiL9n55ihTXYAGNPQxfk2OwezoYiDQzzLDsAqldkBmIyL7ADMxzBJLDvDVUTcZOdgdUwzYzJMMWME71fSXNCeDQBj2GYHAIClUGTG7PRt9ST2naxt5q3PbxHxn0XdbRSXLUffVi8i4jw7xwRtswMAZBkuEZxl55iY24i4yg4BxzRMJP5LKCC5j012AEiQfrmW2TgbLgDCF5kISiKfPT7yWeBQb7MDfKLJDsAqbbIDwKDJDsDiaTwLAMdz3reVZsYAcASKzJiVTwrMLpOjMK63EfHXou5eDF3MWRZf7u56o5ASWLlNdoAJurI2sERDZ/YyFJod6mxo0gBrsssOwKy4vM+3lNkBWK0zRY4MfA441GQaLQwNYkwzY2zP+rYqs0OwbqaYMYKbYZ1dgyfZAQBYjWa4YwwAPIIiM2ZjOITdhQKzNbmJfXFZWdTdLjsMxzdszj/LzjFBOpYBq2Vt+CprA4ul0OzeFJmxNrvsAMyKy/t8i88HmXz+iPA54HCTKTIbNNkBWKUmOwCr12QHYPHW1IzXPS8AxnIW7lYAwKMpMmMWFJitzk1E/L2ouwvFZYu3po3TQ70fLloDrFWTHWCC3lobWDqFZveiyIy1sQZyH2V2ACatzA7AqpXZAcg1NNU5y87BbEzqHXiYsvI2OwerY5oZaUwxYwRvi7q7yg4BAAv1cnifAwAeSJEZk/dJgZnDt+X7tLhsmx2G0xpGU2+yc0yQbirAag1rg+KJu7bZAWAMCs0Odta3lWclq1HU3YfY7xfAIUyI4YuG7xrn2TlYNc8nfAY42ESbDTXZAVilJjsAq9VkB2DxmuwAALBw2+wAADBnisyYNAVmq3EbET9FxFPFZavyIvxtf+7W3wCwctaGu6wNrIpCs4OV2QFgZLvsAMzGmQ6lfEWZHYDVuxyKHVkvRWYcapITw4q628VEs7Foz7zfMzZTzBjB22FdXQXPcQCSmIwMAI+gyIzJUmC2Ch+Lyy6KumuG7uSsx6vsABO0zQ4AkKzJDjBBJlyyOgrNDmKSGWszxUkOTNdFdgAmSXEHU+BzuG5+/xxqyu++TXYAVqnJDsDqNNkBWLwmO8DILrIDALBaTXYAAJgrRWZMkgKzxVNctnJDp5DL7BwTpJAAWK1hbTjPzjFB2+wAkGEoNFNI9XXnOsCyMlO+aMv0lNkBmKQyOwCEz+HaKTLjUJN99x2mrrzJzsHqvLQHwlhMMWMEb9Y0xQwAkplmBgAP9N+yA8DnFJgt2m3si2heKyxbvU12gAl6W9TddXYIgESb7AAT9Ju1YXkSNrLn/vP+n4j4X4/871yKF6FJAStR1N2ub6vsGMyHS/x8ybPsABCeT2unsQ6HmmyR2aAJBRiMrwn7x4yjyQ7A4jXZAQBgZV6HPTkAuDdFZkyKArPFUlzG7/q2ehIOIL/EBWFgtXQH/artl/5DRUpH58Ixc1WGd0jW5W14ZnMYB8b8ybDnDFNQZgcgh67Z3MPtMNl7soq6u+7b6k3Yy2NcL/u2ajTk4pScUzCCN55jADC6y76tNkXdbbODAMCcKDJjMoZNu10oMFsSxWV8ySY7wATdFHV3lR0CWI8JFil973+/Vv8wtQX4hjI7AIzsXSgy4zDnfVs9sRfFJ8rsADA469vqwsXSVVLsyqEmXWD2iSb207Wd6TKmV8M/cCpNdgAWr8kOkORJdgAAVq+JrzT4BQC+TJEZkzBMNroKhxFLobiMb3EAdNc2OwDc19AJfsxDgTX8PO9BANzHWd9WT6fe5R6OyGed+3ga+2ZWEKG4g2kpw17gGl1kB2A2dtkBDjFMM3sdET9mZ2FVNsM0M2fPHJ0pZoxgzVPMfCcHINt531YvNIAHgMMpMiPdUGC2i4jL5Cg8nuIyvqlvqxcRcZ6dY4JeZwfIoEjpJD9PkRIArEsZCm9Yj112AGalDJ8Z/uBCG1Pi87hOfu8cak7f717HvqmgPWnGchb7z1yTnINlarIDsGi34TMGANlexX4IBgBwAEVmpFJgthiKyzjUJjvABL2PiFd9W33pf6dICQCAbyljpQ0LWJ9hWsJt+M7CYVzmJyJ+33+298yUlNkBSPEsOwCzMZsis6LuPphmRoJXfVs5j+aoTDFjBK9XPMUMAKbiWd9WZVF3u+wgADAHiszI9joc8s/ZTew7Ll3NdTPfJKWT/DwX/u7nMjwHAQB4GEUUrM27cEmbw3g+8pHPAlNjH3BlhovrcIjbGV5AN82MsZlmxik02QFYtI8NmwGAfE1oAAUAB1FkRpq+rbahI9Rc/Y/YF5j9v7GfTLX5yhSmh1CkBAAAcJjzvq2ezLXpBzzALhSZcRjPRz4qswPA53RNXh3FrhxqNlPMPhqmmb2KiF+zs7Aqisw4GlPMGIHpiwAwHc/6tnpa1N3svn8DwNgUmZGib6tN2Kybs/8pIv7X4R8AAADyPI194Q2swS4ifswOwWx4PhKhyIxpKsPzaU0UmXGoXXaAhyjqbtu3VRMR59lZWI2zvq02Rd1ts4OwCE12ABbNFDMAmJ5XsR+qAAB8w39kB2B9+rZ6ETraAQAAwDGU2QFgRLpLch9ldgAmQXEHU+RzuS5ldgBmY87vuk12AFanyQ7A/JlixghMMQOA6Xk5vAcCAN+gyIxR9W31NCK22TkAAABgIVxSZjWGizk32TmYDc/HlRv2os+yc8AXeD6ty0V2AGZjtkVmw0Sp99k5WJXzvq022SGYvSY7AIt2E6aYAcBUbbIDAMDUKTJjNH1bPYmIq3CwDwAAAMdykR0ARrbLDsBsKOLAZ4CpOtcxeR2Gc7Hz7BzMwm1Rd9fZIR7pVXYAVqfJDsB8mWLGCBpTzABgsnx/BYDvUGTGmHbhMA0AAACO6TI7AIxsthOoIBuTAAAgAElEQVQeGN35cLmf9SqzA8A3KIJcB79nDjX7d9yi7nYR8TY7B6timhmP0WQHYNFuhimfAMA0nfkuAQDfpsiMUfRttQ0X3wAAAODo+rZyeZU1mf0FXEbl+bhufv9MWZkdgFF4DnGoXXaAI2myA7A6m+wAzI8pZoygyQ4AAHyXaWYA8A2KzDi5oerfJh0AAACchkk9rMYwIQEOVWYHIJWmZ0yZ4qN18HvmUItopGCaGQme9W1VZodgdprsACyaKWZ3XWQHAIAvuNTEEwC+TpEZJzW8iP2anQMAAAAWrMwOACNzcZVDOSReKZeNmYFn2QEYxUV2AGZjEUVmg012AFanyQ7AfJhixgia7AATdJ0dAAC+wjQzAPgKRWacTN9WTyJil50DAAAAgEVZ0iVcTkuR2XqV2QHgexRDroJiQg5xW9TddXaIYxn+f3mTnYNVMc2M+2iyA7Bob00xA4BZeTHccQYAPqPIjFO6ioiz7BAAAACwcGV2ABjZLjsAs3HukHi1FBgyBz6nC9a3ld8vh1piA4UmOwCr02QHYPpMMWMETXYAAOBeziLiRXYIAJgiRWacRN9WTejQCAAAAMDxLfEiLqfjkv86ldkB4ACeT8vm98uhdtkBjm2YZvZLdg5W5dlQQATf0mQHYNHeFnW3yw4BANzbJjsAAEyRIjOOrm+rMiJ+zM4BAAAAK3GRHQDGNFxavc3OwWyU2QEY13DB+Cw7BxygzA7ASV1kB2A2ltpAoQnv7IyryQ7AdJlixgia7AAAwINoWAEAX6DIjKPq2+pJRFxl5wAAAIAVOc8OAAl22QGYDZNk1qfMDgAHOh/OVFimMjsAs7HIIrOi7j5ExOvsHKzKS5dD+YYmOwCLZooZAMzbJjsAAEyNIjOO7Sp0iQUAAADgtBZ5GZeTUGS2Pn7nzEmZHYCT8SziELfDlN6leh2mmTGuJjsA02OKGSN4lR0AAHiUTXYAAJgaRWYcTd9WTUQ8y84BAAAAa6NbNyu0yw7AbJgUtD5ldgC4B4VICzSsOxoycohFN04wzYwEppnxJU12ABbtTVF3i17PAWAFzvu2skcHAJ9QZMZRDC9ZP2bnAAAAgJW6yA4AI3OBh/twQLwul9kB4B7K7ACchHWHQ+2yA5xaUXdNRNxk52BVNtkBmA5TzBhBkx0AADiKTXYAAJgSRWY82tCR8So7BwAAAADrMExFeJ+dg9koswMwjr6tyuwMcE/PsgNwEmV2AGZjLY0TmuwArMork4z5RJMdgEV7U9TddXYIAOAoXmQHAIApUWTGMTQRcZ4dAgAAAIBVWculXB7PRJn18Ltmdvq28rldnovsAMzGLjvAGIq624ZpZoznLCJeZYcgnylmjKDJDgAAHM25PToA+MN/yw7AvA2dYX/IzgEAAADA6rwLF8Y4jMPh9SizA8ADPA2F00tj3eEQN8N03rV4FRH/yA7Barzq2+r1yv7GuKvJDsCimWIG8/M2O8DILsLQALivTWhYAQARociMR+jb6klEbLNzAAAAAKYlsEq77ADMxnnfVk9cMl0FhR3MURnOWpbmMjsAs7Cq4tKi7q76tnobEc+ys7AKH6eZNck5SGKKGSd2Gy6gw9Tcxv79ejf8zw8R8c5e4J8Ndz0/7p1dDP98/M8uQlEavAhrPABEhCIzHqcJXy4AAABgCi6yA8DYirp717dVdgzm42koTFy04SKp/WrmSHHkgvRt5ffJoVZVZDZoIuKf2SFYjU0oMluzJjsAi2ZSIkzHm4i4KuruKjvIHAzPrt23/m+G77Qfi87K0CSCdTnv2+ppUXdr/L4OAH+iyIwH6duqjIgfsnMAAAAAsGqmIXCoMhSZLZ3CDubq0rTFRfEs4lC77ABjK+puZ5oZIzrv22pT1N02OwjjMsWME7uNiNfZIYB4ExGvfI8+vqG45k8FNkPhWfnJP2dj54IRbcI0MwBQZMb9DaOTt9k5AAAAAFi9d+GSKodx6X/5yuwA8AimLS6H9YZDrbUz+quI+Fd2CFajCfca1qjJDsCimWIGuW4jYmNy2bg+KTx7HfH7cIIXwz/necngJMrsAAAwBf+RHYBZehW+IAAAAACQb5cdgNlw6X/5/I6ZszI7AEfjWcQhbtZ6QX24oPomOwercd631SY7BOMxxYwTM8UM8r1QYJavqLtdUXevirq7iIi/RMQvsX9GwhJcDu+UALBqisy4l+EF6sfsHAAAAAAQ650Awf2d9231JDsEJ2WqIXNWZgfgaBSZcYi1v8M22QFYlSY7AKNqsgOwaKaYQa5firrbZYfgz4q6ezcUnD2JiL9FxNvsTHAEL7IDAEA2RWbc1zY7AAAAAABERBR1dx26pHI4F/8Xqm+rMjsDPJLn0wIMjRrPsnMwC6suMhve4U0zYyznfVu5JLoCpphxYjdF3TXZIWDFbkMh8eQVdXdV1F0ZEf8Z+/d9+/bMVZkdAACyKTLjYMPmq26wAAAAAEzJLjsAs1FmB+BkFOgwd2fDxWjm7SI7ALOxyw4wAU24dMp4XmUHYBRNdgAWrckOACu3NUlwPoq6uy7qbhP778g/hfd+5ud5dgAAyKbIjIP0bfUkIl5n5wAAAACAz6x6EgT3ohBpufxuWYIyOwCPVmYHYDZW//46TDNz9sxYnpl8u2ymmHFiN0XdbbNDwMptswNwf0XdfRimQF5ExC+5aeB+TEMGYO0UmXGoVxFxnh0CAAAA+KJddgBItMsOwGwoRFquMjsAHIFn1Pz5HXKIG1MYfvc6TDVgPE12AE6qyQ7AojXZAWDlbou6W32Thjkbis1eRcR/RsRv2XngQGV2AADIpMiM7xq6Pr3KzgEAAAAAX+CSAYc679vqSXYIjmv4nWqQxhKU2QF4tIvsAMyCd9fBUGxnmhljMc1soUwx48RMMYN8u+wAHEdRd9dF3b2IiL9GxE12HviOMjsAAGRSZMYhmog4yw4BAAAAAJ8bLqe+z87BbJgyszxldgA4ksvsADya3yGHUGT2Z6/DBVPGo7HuMjXZAVg0zw3I5/15YYq628V+j/aX5CjwLZdDMwMAWCVFZnyTrk8AAAAAzIDLBhyqzA7A0SkcZDFMWJkvvzvuYZcdYEqGhhFNdg5W47mLosviPgsn9raou6vsEID35yUq6u5DUXevwlQzpq3MDgAAWRSZ8T3b7AAAAAAA8B2KzDiUgqTlKbMDwBGV2QF4MOsLh/Le+pmi7rbhYinjabIDcFRNdgAWrckOALB0n0w1+y05CnxJmR0AALIoMuOrhq6Lz7JzAAAAAN91nR0Aku2yAzAbigCWxx42S+IZNV8X2QGYhZthchd3NdkBWI2XppktgylmnNjbofABSOZvcfmGqWYvIuKn7CzwmTI7AABkUWTGtzTZAQAAAIDvK+ruOjsDZCrqzkQIDnXet9WT7BAcR99WCnJYGp/p+fK74xDeWb9imGb2PjsHq9FkB+AomuwALFqTHQBgbYq6ayLibxFxmxwFPjrXoAKAtVJkxheZYgYAAADAzLzNDsBsKARYjjI7AByZyyvz5UyNQygy+7ZX2QFYDdPMZs4UM07MFDOAJEXdXcV+v0+hGVNRZgcAgAyKzPiaJjsAAAAAcJCb7AAwES7tcqgyOwBHo2CQJfK5nhmFCtzDLjvAlA0X+jWOYCyb7AA8SpMdgEVT9AzTYdLtChV19y4iLsLvn2mwTwfAKiky446+rZ6GjosAAAAwF9fZAWAidtkBmA0Hw8vhd8kSldkBuDfPIg6lKcL3NdkBWI1XfVs9yQ7B/Zlixom9GYobgGn4kB2AHEXdfYj9/ohCM7KV2QEAIIMiM75EVx4AAAAA5sYlIA6lGGABhkvBl9k54AQ8o+bH74xD3AwXJfmGYZrZb9k5WIWzcC9irprsACxakx0AgD2FZkzEpeYUAKyRIjP+RNcnAAAAmJ1ddgCYgqLuriPiNjsHs3DuYHgRFHWwVM+yA3BvnkccQkOEwyn8YSymmc2M+yyc2JthbwmAiVBoxkTY9wFgdRSZ8Tmb9gAAAADM1S47ALPhYHj+yuwAcCp9W5XZGbgXawqHUGR2oOGC/5vsHKyCaWbz02QHYNGa7AAA3KXQjAkoswMAwNgUmfG7oUvXJjsHAAAAcC8uK8If/D1wqDI7AI9WZgeAE1K0NC/n2QGYhV12gJlpsgOwGpvsABzGFDNOzBQzgAkbCs02EXGbHIV1sk8HwOooMuNTL2LfrQsAAACYjw/ZAWBCdtkBmA0Hw/Pnd8iS+XzPhKlzHKqou112hjkZLvr/kp2DVTjv22qTHYKDNNkBWKzbMNUQYPKKunsXmk6Ro8wOAABjU2TGp5rsAAAAAMD9uKwIf/D3wD0o4Jixvq2ehoZpLFuZHYCDWU84xPvsADPVhEkFjKPJDsC3mWLGib0eJuQAMHFDodnfs3OwOmfD+ygArIYiMyLi906L59k5AAAAgHu5yQ4AE+QSL4c479vqSXYIHkxRB0vnGTUfnkcc4l12gDkaLvy/zs7BKphmNn1NdgAW6zasNQCzUtTdNkw9Znz2fwBYFUVmfLTJDgAAAADc23V2AJggl3g5lIPh+SqzA8AIyuwAHOQiOwCz4P304V6HaWaMo8kOwJcNhfcvsnOwWKaYAcxQUXevQrM5xuUsAYBVUWSGTTkAAACYL5cV4a5ddgBmo8wOwIM51GcNfM7n4Vl2AGbB97YHGi7+N9k5WIXzvq3K7BB80auIOMsOwSKZYgYwby9CQwrGY58OgFVRZEbE/oXbphwAAADMj8uKcJe/Cw7lYHi+LrMDwAjK7AB8W99W1hEOUtTdLjvDnBV19zoibrJzsApNdgD+bGiY/Co7B4tlihnAjBV1dx0Rm+QYrIc9IABWRZEZEaaYAQAAwFwppoHPFHXn74JDORieIRMmWBETsqbvIjsAs/A+O8BCNNkBWIVn3jUnxxQzTuWmqLsmOwQAj1PU3VVE/Jadg1U4HxogAMAqKDJbueHF53l2DgAAAOD+FNPAV73NDsAsOBiepzI7AIzFpKzJ8/vhEL6zHUFRd9swzYxxNNkB2DPFjBNrsgMAcDSbiLjNDsEq2AcCYDUUmbHJDgAAAAA8iCIa+LpddgBmw8Hw/PidsSY+79NWZgdgFhSZHY9iE8Zgmtl0mGLGqdwMxcsALEBRdx/CHVjGYZ8OgNVQZEaZHQAAAAB4EJcV4ev8fXCoMjsA91ZmB4ARldkB+KaL7ADMgvfSIynq7io0W2Ecm+wAa2eKGSfWZAcA4Lh8V2AkF9kBAGAsisxWbNiYe56dAwAAAHiQXXYAmDCXeTmU7qMz0rfVRZhmwLp4Rk3UcMZ2np2D6SvqbpedYWGa7ACswsvhvZM8pphxKqaYASzXJjsAi2efDoDVUGS2bi+yAwAAAAAPpogGvqKou+uIuMnOwSw4GJ6XMjsAjOxyKGZieqwfHOJ9doClGYr2TChgDE12gLUyxYwT22QHAOA0hjOBn7JzsGj2ggBYDUVm61ZmBwAAAAAe5GY4MAO+TiEmhzhXwDErDvJZI5/7afJ74RDeR09D8QljMM0sjylmnMpbE0YBFu91RNxmh2CxzpwlALAWiszWzSQzAAAAmKdddgCYAZd6OZRCgfkoswNAgjI7AF9k7eAQ3kdPoKi7dxHxJjsHq9BkB1gbU8w4sSY7AACnVdTdh/AuwWnZDwJgFf5bdgBy9G31NHR/AgAAGNtNRFyP+POuZ/zz/pfYdxz8n4/071uaq+wAMAO7iPgxOwSzUIbi3bm4zA4ACcrsAHyRS0UcQpHZ6TQR8TI7BIv3sm+rV8NlZcZhihmnYooZwEoUdbft26qJiPPsLCzSRXYAABiDIrP1MsUMAADmSZHSkX9eUXdj/jwOMHQtVmD2bbvsADB1Rd3t+rbKjsE8KBSYgb6tyuwMkMQzapoUvfJdLrOfTlF3131bvQmFZpzeqzD9aBSmmHFiTXYAAEbVRMSv2SFYpIvsAAAwBkVm61VmBwAAIM1tfL+T8n+LiP8tfGf43P8ZEf/XZ/+ZIiU4ouFCyS5c2vyW97pow8Heh+cJ36eAYx78nlirs76tnhZ1ZyLSRPRt5XnEId5nB1iBJvaNVU094pRe9W312j7MKEwx41RMMQNYGdPMOCF7QgCsgguj6/UsOwAAMGuHFCkd04el/7ypXRbr22oTEf97do6JuS3q7r9nh4AVuAoFId+zzQ4AM/IuPFP4vvO+rZ64ODp5ZXYASPQ0xt2n4NtcKOIQ/mZPbJhm9joifszOwqKdhWlmJ2eKGSe2yQ4AQIomTDPj+J5kBwCAMSgyW6G+rcrsDAAQipSO/vOmVqTE7DXZASbodXYAWLq+rbahKcohdtkBYEZ2EfEyOwSz8DQ8X6dOUQdr5vM/LRfZAZgFe7XjeB2mH3F6ppmdnr9jTuVNUXfX2SEAGN8wzex1eMfguJxjA7AKiszWyWEkwPf93xHxPz77zxQpAaswNCU4z84xQdvsALBkQ4GZQpDvu/HOBvfi74VDlaHIbLL6troI31FYtzI7AH9SZgdgFryHjqCouw+mmTGCs9hPQtKE7ARMMePEmuwAAKTyXQEA4AEUma1TmR0AJsQkpYj/HhH/xwhZ5uRtUXdldgiARJvsABP0m26XcDoKzO7lKjsAzElRd+/6tsqOwTxozDVtfj+s3WV2AP7EM4nvKupul51hRV7Hfj9TQTqn9CoUmZ2KKWaciilmAGxDkRlH1rdV6Ts/AEunyGydHH4d39sRf9YUi5SO+vN05R/P0BlOgdldDomA1RomBCj0uGubHQCWSoHZvW2zA8AMvY2IZ9khmDx7ptNWZgeAbC6wTMOwp+4iPN/zPjvAmgzTzJqI+DU7C4t23rfVpqi7bXaQJTHFjBNrsgMAkKuou+u+rd6Ec0gAgHtRZLYywyadLm57N0XdXWSHgGSb7AATdFPUnekQwJptsgNMkLUBTkSB2b2915QDHmQXisz4vvO+rZ4UdfchOwhfpAgQ9sWWu+QMeB5xGN/bRlbU3XYoNHMOzik1ofnPsZlixqn8YooZAIOrcBbJcZVhjw6AhfuP7ACMzuHXH7bZAWACdIa7a5sdACDZJjvABJlwCSegwOxBttkBYKZc8uVQ9k6nS6EoeEZNRZkdgFnw/pmjyQ7A4p33bbXJDrEUpphxQrdhTQBgMDSTvcnOAQAwJ4rM1qfMDjARt+GyMCvXt9WL0NHxSzwbgNWyNnzVNjsALI0CswfbZgeAmXLJl0OV2QG4q2+rMjsDTESZHYCIUOzHYXbZAdaoqLttRLzPzsHiNdkBFsQUM07ltSnlAHzmKjsAi2JvCIDFU2S2PhfZASbiyqYSmFTzBW88G4CV0zX0LmsDHJkCswf7zfMIHqaou+vQqZTDOByeJr8X2Dvr2+oiOwTO2fi+ou40Ochjf5NTO9cE4fFMMeOENJwG4EusDRzTk+wAAHBqiszW5yI7wET44sCqDZcRnmfnmKBtdgCALMPa8Cw7xwR5b4QjUmD2KJ5H8Dgu+nIIxUzT5PcCf/D3kO8yOwCT9zY7wJoVdbcLvwNOr8kOsACmmHEqppgBcMfQiM7UY47lIjsAAJyaIrP1cXE44r0OgqAz3Be8Hw4fAdbK2nCX90Y4IgVmj3LjXRUezZrOIc6HjvpMS5kdACakzA6wZibXcCDvnfma7AAs3jNrwsOZYsYJmWIGwLdsswOwGOfZAQDg1BSZrYgLEr/bZgeACdhkB5ggG87Aag3viZvsHBNkbYAjUWD2aJ5H8Hi77ADMhilBEzJ8V3FoD3/wjMp1kR2AWVBklmxo0vJbdg4Wr8kOMGOmmHEqjSlmAHzDLjsAAMBcKDJbF4ePe1fZASBT31absHH/udvwbADW7UVYGz53W9TdNjsELIECs0e7Dc1S4NFMA+QeyuwA/EmZHQAm5ll2gJVzzsYhFJlNgylJnJppZg9gihkndFPUnUZdAHxVUXfvIuImOwfL4LsAAEunyGxdLrIDTMD7ou6us0NAsk12gAm60tUMWDmHundtswPAEigwO4rX3lXhaN5nB2AWFBBMi98HfMYlllSeSXzXcHGRZMN58JvsHCzeJjvADJlixqk02QEAmAUNyAEADqDIbF0usgNMwC47AGTq2+pp6Hb7JU12AIAsw9pwmZ1jgnS8hEdSYHYUt+F5BMe0yw7ALCggmJYyOwBMkOdUHv/d8z1vswPwJ012ABbvZd9WF9kh5sIUM07opqi7bXYIAGZhlx2AxXiSHQAATkmR2bpc/P/s3UFyG0mWLmq3Z3eu3IG4A+UEY8UOkhuACXeIUbFWUFErKNYIwwYNG5BWcIPjGNziCp6wg8QK3hsoslJJEARAInDcPb7PrK27qpXET6TgHnD34yc6QAa66AAQzML9vkcdDoGJMzfsMzfAOykwuxgdd+GydJXgFB+Hw4/kwWVJsK+JDjBFQxGBzisc43kzI8P63r+jc1C9NjpAQXQxYyxtdAAAyjBbbnQy41JcRARA1RSZTctNdIAMdNEBIMpwQOo2OkeG1tEBAKIMc4MikH26BsEb9av5L/1q3iVjyyXskgMScGkO/XIqG8QZGLouA/t8NmLcRAegCJ4389OmH9+vYSy6mZ1AFzNGpIsZAOfSgRoA4AhFZtMy9Rt4n9wAz8QtktvhnrPoDEzdIjpAhrZuMIO3GQ6LdEnHkUu511URLmu23PwnOWDKaZroAKSU/HuAQ3RcjNFEB6AIiswyM+wNu1CKsbXRAQqgixljWUQHAKA4XXQAqmBtDoCqKTKblk/RAYLZ2GHq3A63bx0dACCYuWHfOjoAlOinArOpf++8lF1yCA7GYn2IU+gSlAf/HuCwJjrABBmTOGq41ID83CeXTTCuLwrAD9PFjBE9zpabLjoEAMXpogNQBetEAFRNkRlT8j06AETpV/MmpfQxOkeG1tEBAKL0q/ltMje8RFEHnEmB2SjudeKG0XTRASiCDeI8+PcAh/l8XJ/3nGMeowPwsuH7dRudg+opojpMFzPG0kYHAKBILgcBADhCkdlE9Kv5TXSGDHTRASCQjY1932bLzffoEACBFtEBMvSgqAPOo8BsFNvZctNGh4CK2UDmFB91Iog1vP+eL+CwJjrABLmoh2M8Z2Zsttzcp5S20Tmo2p3vEPt0MWNEupgB8CbDeYCn6BwAADlTZDYdN9EBMuDAMJM0FJn+Fp0jQzrVAJNlbjhoHR0ASqLAbDQO3sC4uugAFEPHmljef3jd5+gAU9Kv5k10BoqgyCx/bXQAqvYhWdN5iS5mjKWNDgBA0Xx/472sXwNQNUVmTMZsufHlgKlaRAfI0NbNZsDE2ezeZ26AMygwG83jbLn5Gh0CajbcUqqDAadoogNMXBMdAHLXr+YOs1yP95pT2IfM3Gy5WSffBRiXbmY/0cWMEeliBsB7+f7Ge7lIAYCqKTJjKnbRASDQIjpAhnQxA6ZuER0gQ210ACiFArNRLaIDwETYQOYUCgpiNdEBoABNdIAJuYkOQP5cdlkMBS+M6UNK6TY6REZ0MWMsi+gAABTP9zcAgFcoMpuOJjpAMF8MmKR+NV+klD5G58jMLqW0jg4BEGWYG2zs/tUupaRzEJxAgdmo/jlbbr5Hh4CJ6KIDUARFZrG8/3Ccz8n1eK855jE6AKcZuof798WY2ugAOdDFjBE9WEMF4L10xAQAeJ0iM4C6LaIDZOjrbLn5PToEQKBFdIAMmRvgBArMRvU0W27a6BAwIS4j4hQfh7mPK+tX81+TizHgFAqfrudzdACy5/myLG10AKr2cbjobep0MWMsbXQAAKqxjQ5A2frV/CY6AwCMRZEZU2Fzh8kZvsjY/N53Hx0AIMpwWNPcsK+NDgC5U2A2Ojc7wxW5pZQzKOCI4X2H03xSDDs+B4Y4kX3IggzfB3QzY0xtdIBIupgxIl3MALik79EBKN5NdAAAGIsiM6ZCZwqmqI0OkKHH2XJjsxeYMhu7+x5tSsJJ7pMCs7H8W8ELhHiKDkARmugAE9VEB4CCKMocn/eYU9h3KI91UsY09W5mupgxljY6AABV8T0OAOAARWYAFRpuiLuNzpGhdXQAgCjmhoPW0QEgd/1qvk4pfYnOUamn5HAEROmiA1AEhQUxvO9wuiY6wAQYkzjK5XblGf6dPUTnoGqTLGTUxYwR/duFgQBcmKYFAAAHKDKbjiY6AHBVt8kNcc/tZsvNOjoEQKBFMjc8tzU3wOsUmI1uMVtubGJBDAeBOYXCghi6p8LpmugAE2Au4JjH6AC8WRsdgKp96lfzJjpEAF3MGMMuGbMBuLwuOgAAQK4UmTEVXXQAuDI3xO1bRwcACGZu2LeODgA5U2A2ur+77R5C+fxxio/DTfxcyUQP4sJ7KIAan/eYYzxXFmroiKObGWNqowNcky5mjOjeRV0AjMDcAgBwgCIzgMoMh3Hc+LzvPjoAQJRhbvgYnSND6+gAkCsFZqN7nC03nk8h0FDkuYvOQREUF1xXEx0ACvOhX82NUyMZDstbT+EYRWZlu0u+FzCezxO7REEXM8awS/b5ARiBiyC5gCY6AACMRZEZQH0W0QEy9G24kRJgqhbRATJkboAD+tX8LikwG9MupXQbHQJIKTkQzGma6AATo1gGzudzMx7vLafoogPwdkNnHMULjKmNDnANupgxIl3MAAAA4MoUmQFUZFjAdyB43zo6AECUfjW/SeaGlzg8Ai/oV/NFSulf0Tkqd+tgBGSjiw5AERQYXFcTHQAKZJwaj/eWY3YuMarCfdLNjPF8nkjXUV3MGIMuZgCM7TE6AABAjhSZAdTFDXH7trPl5mt0CIBAi+gAGdrOlpsuOgTkZigw+5/oHJX7u/EHsqKTGaeYwoHQLAwXZDiYCudrogNUzBzAMZ4nK6CbGVdQ9f6tLmaM6M5lXQAAAHB9iswA6rKIDpAhG4PA1C2iA2TI3ADPDDcqKzAb18NsuTH+QF666AAU4eNwaJLxNdEBoFCfogNU7LW+WhsAACAASURBVCY6ANnrogNwMfcppW10CKr1ZbhQoVa6mDGG7Wy5WUeHAKB6ipkBAF6gyGw6HISAyvWr+W1K6WN0jgytowMARBm6Epkb/mqXzA3wF0OBWRedo3JPyY3OkJ3hNmwHSTmFTjbX4X2GN+pX8yY6Q6U+RwcgezqZVWL4btBG56BqbXSAMehixoja6AAATILvdAAAL1BkNh1usoT6WcDf9zBsDAJM1SI6QIa+mhvgTz8VmLlteDy7lNKtsQeyZROZUzTRASaiiQ4ABWuiA9Rm+K4Ex3iWrMjQMcclFIyl1m5mupgxBl3MAAAAIJAiMyZhttx00RlgTMOmhFtV962jAwBEMTccdB8dAHIx3DS8Tg6CjK2ZLTffo0MAB3XRASiCQoPrcFEavJ1x6vJuogOQvZ3velVqowNQtTY6wCXpYsaI2ugAAAAAMGWKzADqYAF/35MCU2Di2ugAGXqaLTdumIb030MgXXKYe2z/27gD2fMZ5RSKN0bWr+ZNdAYoXBMdoELGfo7xHFmhoXPOY3QOqnU7rMnVQhczxvCkixkAV/Q9OgAAQI4UmQHUYREdIEM61QCTNWxU30bnyJC5Af50nxSYje2fDkRA/lxOwok+VnYYNEeKOeB9PgwdzbmcJjoA2euiAzCaNjoA1fqQKrk4VBczRuTvFQDX9D06AABAjhSZARSuX80XyS1xz+1SSl+jQwAEuk3mhud2ij3gh341X6eUvkTnqNzDbLlpo0MAJ3uKDkARFEGNq4kOABUwTl2W95NjdDKr1HARhW5mjOWukgssdDFjDI8uAwIAAIB4iswAyuc2r33r2XLze3QIgEDmhn3r6ACQg+GCAgVm43qYLTeL6BDAWbroABShiQ5QOcUc8H5NdIBaDIf/HZznGEVmdWujA1Ct4ruZ6WLGiNroAAAAAIAiM4Ci9av5rymlT9E5MnQfHQAgSr+aN8nc8BJzA5PXr+a3KaX/ic5RuafkkA2UyAFhTqEIaiT9an6TUvoYnQMqYJy6HO8lx+xmy8336BCMZ+ik8y06B9UqvZuZLmaMQRczAAAAyIQiM4CyOcC679HmLjBxi+gAGfpmbmDqhssJ1tE5KveUUmp01IUiKTLjFAoOxuO9hcv4HB2gIk10ALLn+XEa7MExlg8ppdvoEG+hixkjaqMDAAAAAD8oMgMo1LCI/yU6R4Z0qgEmy9xw0Do6AEQaxoavyQ3DY1JgBgWbLTf/SSntonOQvY+FdxvIWRMdAGoxdDfn/W6iA5C9LjoA4xsurXqIzkG12ugAb6SLGWP4posZAAAA5EOR2QQMN9YD9VlEB8jQdrbcfI0OARDIDaL7zA3w4/Dbx+gQFdsmBWZQA90oOIV11nF4X+FyfJ4uw/vIMZ4dp6ONDkC1Pvar+SI6xDl0MWNE/l4BAABARhSZTYMbdqFOFlv3raMDAARbRAfI0Do6AETqV/N1SulTdI6K7VJKtwrMoApddACK0EQHqNTn6ABQkSY6QCV8h+IYRWYTMXQz+2d0DqrVRgc4ky5mjOFhGGsBAACATCgyYwoeowPApfWreZN0o3jJOjoAQJR+Nb9N5oaX3EcHgCj9an6XUvoSnaNiu/Sjg5nDhVCHLjoARdDZ5sKGNS7gcoxT79Sv5t5Djtk5DD859+nHGgBcWjHdzHQxY0RtdAAAAADgrxSZAZTJIv4+t5wBU7eIDpChB92FmKrhwPa/onNUTIEZ1MfnmVMoPLg87ylc1sfhEDhvZ1ziGM+NEzOsL7rIirGUsuerixljsL8PAAAAGVJkBlCYfjW/SSn9Fp0jQ+voAABRzA0HraMDQIRhTPganaNiCsygQsPB0W10DrKneOPyFHPA5TXRAQp3Ex2A7HXRAQihmxlj+ZR7d19dzBhRGx0AAAAA2KfIDKA8i+gAGdrOlpsuOgRAIBu8+57MDUzRcOjja3Kz8FgUmEHduugAFEFR1GU10QGgQsap92miA5A93wcnaLiUoo3OQbXa6ABH6GLGGP6pixkAAADkSZHZNNhQhLooJNjXRgcACLaIDpCh++gAEOQ+pfQpOkSlFJhB/Xy+OUUTHaAWQ3H8x+gcUKEmOkDh7KlxjGfGiZotN/dJ92PG8TnXbma6mDGSXbKHAwAAANlSZDYNv0QHAC6jX80XyU1xz+3Sj24dAJNkbniRuYFJ6lfzu5TSl+gclVJgBtPgM84pFB9cThMdACr1OTpAqfrV/CZZY+F1O11XJq+NDkC12ugAB+hixhjuhw6RAAAAQIYUmTEFDghRk0V0gAx9tQgNTJxbRPetzQ1MTb+a/5pS+ld0jkopMIOJmC03XXQGiqDI7HK8lzCS4fsB57uJDkD2fC+cuNlys066mTGOz7nN37qYMRJdzAAAACBzisyYAgeMqcKwseAW2n0WoYHJGuaGT9E5MmRuYFKGAx+6941DgRlMz2N0ALL3cZh7eb8mOgBUrIkOUKgmOgDZ66IDkIVFdACqlVtBly5mjEEXMwAAAMicIrNpuIkOAFxEbhsLOXh04BeYOHPDvsfZcvM9OgRc2deU0sfoEBVSYAbT5DPPKbLqMFAwlynBeIxTb+N945guOgDxhg7ILqdgDF/61fwmOkRKupgxGl3MAAAAoACKzKbhJjoA8D7DQv5tdI4MraMDAEQZ5oYv0TkytI4OANfUr+ZtckB7DArMYLp87jmFIoR3GroyA+PxGXubm+gAZM+zIn9oowNQrTY6wEAXM8Zwp4sZAAAA5E+RGVPwPToAXMBtspD/3G623KyjQwAEWkQHyNDW3MCU9Kt5k1L6R3SOCikwg2nrogNQBMUb79dEB4DKfRoup+E8n6IDkLWtg/H8QTczRhTezUwXM0Zi/wYAAAAKochsGm6iAwT7Hh0ALqCNDpCh++gAAMFs8u5bRweAaxkOe3yNzlGhp5TSjQIzmK7ZcvM9/Sg2hdcoMns/7yGMz+fsDMMlHvAa3xN5zvosY4n+u6WLGWNoowMAAAAAp1FkNg0fowMAbzdsbvsc71tHBwCIYm44aB0dAK5onRz2uLSn9KODmZvpAQeIOUanm/dT/ALja6IDFOYmOgDZ84zIXwwX1DxE56BKi6iOpLqYMRJdzAAAAKAgiswA8reIDpChb8Pt8gBTZZN334O5ganoV/O7lNJv0Tkqo8AM+FkXHYD86XjzdsPBVYV6ML4mOkBhFL9yTBcdgCy10QGo0ocUtwegixljaKMDAAAAAKdTZFa5fjW3KeZmQQrWr+Y3KaUv0TkydB8dACDKMDcoLtm3jg4A1zB8x/tXdI7KKDADnuuiA1AE665v572D6/BZO4/3i2PsN7JnuPRKNzPGcHftbma6mDGSJ13MAAAAoCyKzOp31YXHHDkoSOEW0QEytJ0tN110CIBAi+gAGTI3MAnDQY91dI7KKDADXuIAMadQjPB2TXQAmIgPLiI8y+foAGRt63sjr7hLKe2iQ1CdiG5mt0kXMy5P4SIAAAAURpFZ/W6iAwDvsogOkCFdzICpsyG3z9zAVLQppU/RISqiwAx40TAubKNzkD2FG2/XRAfgTR6jA/AmxqoTDF3j4TUuIeCg4fuD9UnGcO29gPbKr0f9Hl0QCAAAAOVRZFa/m+gAwZ6iA8Bb9av5bUrpY3SODK2jAwBE6VfzRXKT6HO7ZG5gAoZnw79F56iIAjPgmC46ANlT+P12il7K5PB8mZroAIUwLnGMIjOOuU+6mXF5H4Y9gdENr2NfmktrowMAAAAA51NkVr+b6ADBHBikZDrV7HtwEBiYuEV0gAx9NTdQu341/yUpprwkBWbAKRwk5qh+NW+iM5SmX81/TS7OKNHTbLn5Gh2CN1E8dRrvE8d00QHIm25mjKit7HWYDl3MAAAAoFCKzOp3Ex0AOF+/mt+klD5H58iQDTpgsswNB5kbmIJ1chj7UhSYAadSZMYpFCWcz3tWpm7430+RIXgTXRdPY2ziGM+GnOI+pbSNDkF1Po7dzUwXM0bSRgcAAAAA3kaRWf2mvjHWRQeAN9LFbN/TbLmxkQtMWRsdIEOP5gZqNxzy+C06RyUUmAEnc9s2J5r62utbNNEBeJM/vnd1kSF4G10XT2I85zVb3yM5xfD3pI3OQZXawn8+0/PNugoAAACUS5FZ/dx2D4XpV/NfUkqL6BwZ0qkGmKxhbriNzpGhdXQAGNPQwdAz0GUoMAPe4jE6ANlTlHA+71mZuuF/u+SjTE10gALo3sJrjH2cbLbcrJNuZlzeaN3MdDFjJC7UBQAAgIIpMquY2ylTSjZ+KNNtUiD63G7YmAOYKnPDPnMDU7BOPvuXoMAMeCvrShzzKTpASYbLM7xn5dnOlpvvw//dBebg7RR3vsJeGifwTMi52ugAVGkx0s9tR/q5TNfDT98fAAAAgAIpMqvbL9EBMuAQISVys9e+dXQAgGBtdIAM6e5E1frV/C6l9Dk6RwUUmAHv4UAxRylOOItClzL9dywcDovqzlKeJjpA5oxNHNNFB6Asw8VYuiJzaZ8v/d1DFzNG0kYHAAAAAN5HkVndbIyl9D06AJxj2Bxwo/M+hQTAZA1zg43efevoADCWfjW/STbjL0GBGfBeXXQAimAN9nRNdADepHv2nxXglufD8B2Dl91EByB7xj3eoo0OQJXazH8e6GIGQGluogMAAORIkVndJn/AwQIWBVpEB8jQo88yMHGL6AAZ+mZuoHLrlNKH6BCFU2AGvNvwvLGLzkH2Jr8GewbvVZmeF1d0ESF4tyY6QMaMTbxm63slbzFbbrqkmxmXd7FuZrqYMYJdUrgIQHluogMAAORIkVndbqIDBHMIiKL0q/kvKaUv0TkypIsZMFnDTePmhn3r6AAwln41v0spfY7OUbhdSunWQUDgQnSu4BjFCadrogNwvuGQ/M+e/2fKYKw6zPcvXuNZkPdoowNQpTaznwN/uHc5IAAAANRBkVndPkUHCGbjh9IsogNkaDtbbr5GhwAItIgOkCFzA9UaLh1oo3MUbpd+dDD7Hh0EqEYXHYDsTX0N9iTDBRo6tZZnrwPLbLmx7l4mRWYv6Fdz7wvHGPN4s6FQ+1t0DqrzeXi2fjNdzBjBLrk4FgAAAKqhyKxS/WreRGfIwPfoAHCmu+gAGVpHBwAItogOkCEbldRsnRy+fo8/CswcAgQuqYsOQP6sxZ6kiQ7Am3QH/vu94jOyp1vXy26iA5C9LjoAxbP3xxja4H8enrufLTe/R4cAgDdw+QwAwAsUmdXLA7AiMwrSr+a3yY1xL1FIAEyWueGgdXQAGMPwmf8tOkfBFJgBYzGucAprscd5j8p0aAzsrhmCy1AQ+yJjE8d4FuRdhk7rD9E5qM6Xt3Yz08WMEehiBkDJfokOAACQI0Vm9bIxpsiMsiyiA2TowY1nwMS55XafuYEq9av5L8lG/HvdKTADxjA8e2yjc5A9a7HHNdEBeJPuzP+evBmr9jXRAcja1joUF9JGB6BK7ZX/OThEFzMASqbIDADgBYrM6mWzUJEZhRhumtO1Yt86OgBAlGFu+BydI0OKcKhVm9wg/B7/e7bcrKNDAFXrogOQPWuxx32KDsDZnl45LKq4v0xNdIAM3UQHIGvGOi5i6Gb2z+gcVOfsbma6mDGCbbJvA0DZrFkCALxAkVm9PADb/KEcOtXse5otN110CIBA5oZ9T7oUUaN+NW9SSn+LzlGwvyswA67AMwjHWIt9xfC8Q3kOjn1D8dnTFbNwGQpifzJ0lHbQntd00QGoyn1KaRcdguqcu4/QjhGCSWt1MQMAJsxzEADVUmRWIZv2KaWUdhazKMgiOkCG3HgGTNZwyGkRnSND5gZq5e/22z3MlhvvH3ANXXQA8mdN9lVNdADepDvy/1eAW56P53Y8qZyiO44xznExw761NQwubTHsJxylixkj2Lr8C4CSWc/lAqwbAFAtRWZ1aqIDZMADHEUYFvQ/ROfIzC6l9DU6BECg22RueM7cQJX61fwu6XzyVt9my80iOgQwDbqpciLFCod5b8rUvfP/T558Hv/kveBVs+Wmi85AdXQz49I+pNO7mbUj5mCa2ugAAAAAwDgUmdXJxpgiM8qxiA6Qoa86EQITd+qm8JSszQ3UZrhluI3OUain5DkauL7H6ABkz5rsYd6b8uxmy833I3+mu0IOLs/n8U/eC17zFB2A+gzrm210Dqpzd6ybmS5mjEAXMwBq0EQHAADIlSKzOjXRATLwPToAHNOv5r+mlD5H58hQGx0AIMowN+hqtO8+OgCMYJ10LXyLbUqpUXgKBHChEccoVnhBv5rfJAdaS9Qd+wNDEZpuLOVpogNk5CY6AFnz7McoZsvNffqxtgGXcko3s/YKOZiWNjoAAFzAq4X6AABTpsisMsPBZAcVbf5QBp1q9j2ecEsyQM3MDfvMDVSnX82blNJv0TkKtEsp3SowA4J00QHInssiXqb4rkynrq93Y4ZgFC49+5P3gtfYZ2RMbXQAqnNwX0EXM0bwqIsZAJWwbgkAcIAis/o00QEyYfOHrPWr+S8ppdvoHBlaRwcAiDLMDV+ic2RIFzNq5O/12yxmy43vekAU4w9HDYXk/FUTHYA36S7858jIcFnhpHkPOIFnP0YzFGfoZsYlfRiKyV7SXjEH09BGBwCAC7E2wHt9jw4AAGNRZFafJjpABrZutqcAi6Tr4HNbt54BE7eIDpCh7Wy5+RodAi6pX83vkk4nb/F34wEQaeisuovOQfYcTNjnPSnQbLnpTvyjijDK1EQHyICxiVedMQ7CWy2iA1Cd9vl/oYsZI3g0RwJQg+ECYOf2eJdh3wgAqqTIrD5NdIAMfI8OACe4iw6QoXV0AIBg5oZ96+gAcEnDhkUbnaNAD7PlRvc3IAdddACyp2hh3+foAJzt8dQ/6IBpsYxVKd1EByBrT9EBqN8wh54858IJPr7QzawNyEHd2ugAAHAh1kYAAF6hyKwi/Wr+a3LDQkoO/JC5fjVvklvjXrKODgAQpV/Nb5O54SWKSqjNffKd7VxPs+VmER0CYKBjD8c4nPCTYQ2M8pw71jkgX54mOkAGmugAZM0zH9fSRgegOu0f/4cuZoxAFzMAamIdFwDgFYrM6tJEB8iEzR9yp1PNvm9aSAMTt4gOkKGH2XLze3QIuJThUpAv0TkKs0u+5wJ56aIDkL1P0QEy47BGmboz/7z1+PJ8HLosT5nxidcY17gK3cwYwcfhQruUFDFyeW10AAC4IOsCvNcuOgAAjEmRWV1uj/+RSbD5Q7b61fwmpfRbdI4M6VQDTJa54aB1dAC4MM8752sUmwKZsebEUbp3/UUTHYA36Ub+8+RhsoephgI7HaZ5jWc+rmkRHYDq3OlixggedDEDoDKTXRfhYqwdAFA1RWaVGDbFPkfnyMBONyQyt4gOkKGtRWlg4hbRATJkbqAqww3Cvq+d5++z5cbiPJCVofD1KToH2XNA4U/ei/Js31Dk340RhNE10QECGZt4lTUprmnY136IzkFVPieXXXF5bXQAALiU4Zztp+gcAAA5U2RWjyY6QCa66ABwxCI6QIZsdABTdxcdIENtdAC4MM8753mYLTfeMyBXCmA5RvFC+u9hDd0TytOd+w8MRWnby0dhZE10gEBNdACy5kIBIrTRAaiOjp1c0oOLngGoTBMdAAAgd4rM6nEbHSATDvqQrX41XySHa57bpZTW0SEAogxzgw3fv9qllL5Gh4BL6Vfzu+QZ8BxPSfEtkDdrTxyjyOyHJjoAb/LWMa67ZAiuYspj1U10ALLmWY+r080MyFwbHQAALmzKayJcjvUDAKqmyKweTXSATHTRAeAVi+gAGfo63HYMMFWL6AAZMjdQjaGDRxudoyC7lNLCGABkrosOQPY+RQfIhMMaZequ/M8R50O/mk/1czrV35vTOCRGlLv0Y10EICe6mAFQI80cuAT72QBUTZFZBYaNQDfjp5Rmy00XnQFe0q/mNymlz9E5MnQfHQAgyvAMZ27Y10YHgAu6S7oVnuNuttw40AdkzTjFKfrVvInOkIEmOgBn271jjDM2lmmqxVaKgXmN8YwQw4U79syAnOyS/RoAKjNcEGpdAADgCEVmdVhEB8jEU3QAeEUbHSBDjw7nARN3Fx0gQ49uxaQWwyUD/4jOUZCH2XKzjg4BcKLH6ABkb6qFGz9zoUZ53rxON6zx6b5SniY6wLUpAuYYl1kS7D6ZT4F83NuvAaBCTXQAquHMIwBVU2RWhyY6QCa66ADwkuEWFK22962jAwBEMTcctI4OABfURgcoyFNSeAuUxeYhx0y6yGzo2kx5unf+88bG8kzxs3oTHYCsucySULqZARnZJeMRAHVyRoNL+T06AACMSZFZ4Ybb8bXw/aGLDgAH3KaUPkSHyMxOpwpg4hbJ3PCcuYFqDAerv0TnKMhiOEgFUIouOgDZm2Lhxs+a6AC8SRf8z3N9U9xbmvr4zOsUyxJutty0KaVtdA5g8u6t1wJQqSY6AABACRSZlc/tCn+y+UOudGXYt44OABDM3LDPrZjUxN/n0/19ttz4LgeUxrjFMVMs3PiZIo4CzZab7p0/4r3/PAH61byJznBlxide4xmPXLTRAYBJ08UMgCoNl4R+jM5BHS6wlgoAWVNkVr5FdIBMbGfLzffoEPDcsEk/9YNFL7EwDUzWMDdYvNy3jg4AlzB8xj9H5yjE42y58VwIFGdYg9pF5yBvEyzc+FkTHYCzPb33BzhYUawmOsCVKTLjNYrMyMJsuVkn3cyAOLqYAVCrRXQAAIBSKDIrWL+a3yTFK3/oogPAAYvoABn6pigUmLhFdIAMmRuoSRsdoBC7ZDwEytZFByB7kyxk6FfzX5JLNUrUXejnvLtYjaubzFg17Kl9iM5BvhTLkpk2OgAwSdvkslgA6nUbHYBquBQEgOopMiubB98/ddEB4LnhUM2X6BwZWkcHAIgyHGgyN+yzaUkVdDE7y0JxKVA4nS44ZjKFG89M9fcu3aXGtO5CP4fraaIDXNFNdACypkiWrAzdzB6jcwCT0+piBkCN+tX81+RiLC7ne3QAABibIrOyLaIDZORrdAB4wV10gAxtZ8uNzyswZYvoABnauimaiiiYPM03z4RABbroAGRvqsVWTXQA3qTL7OdwPR+GC3GmoIkOQNZcIECO2ugAwKRshwJXAKjRIjoAVVGUD0D1FJkVatj0+xSdIxNPblMiU4voABly8BqYukV0gAyZG6hCv5ovku9op9glYyFQBweROWaqzwVNdADOtr1gh1ljY5ma6ABXMtXiX07TRQeA54aLuXQzA66ljQ4AACO6jQ5AVayBAlA9RWbl0iHpT110AHiuX81vkzbbL1lHBwCIMhSgmBv+apfMDdSjjQ5QiIVLQoAaDGPZU3QO8tav5k10hgCKOMpzsUMRQ7Ha9lI/j6uZyuf2JjoAWXNAjFy10QGASdDFDIBqOcMHAHA+RWblcrvCn7roAPAChaD7HhwoBiZuER0gQ1/NDdRAEenJvs2Wm6/RIQAuyGFkjplK4UZKKaV+Nf81pfQhOgdn6zL/eYxvKmPVVDtMcoLZcuO5jiwN3cweonMA1XO2AYCaLaIDUJ0uOgAAjE2RWYGGG3AdYBw4pEhu+tX8JqX0OTpHhtbRAQCimBsOuo8OABfSRgcowC7ZxAHq4zAyx0ylcOMPU/t9a9Fd+OcZG8tT/XrFRDtLcrrH6ABwRBsdAKjaozM3ANRqOKfxW3QOAIDSKDIr0yI6QEZs/JAjN33texpuWwSYKnPDvie3RFMDXcxOttC5EKhQFx2A7E2t6KqJDsD5Rvhe1l3453EFEyjCmtp4zHmsT5G12XLzPelmBoynjQ4AACNyToOLcwYSgClQZFam2+gAGXGjEjlaRAfIkE41wGT1q/kvydzwEnMDtWijAxTgm9twgRopmOcEn6IDXJkijvJc/BI3Y2Oxav/83kQHIGvGLUrQRgcAqvTokDQAtXJOAwDg7RSZFWa4Jf9DdI6MdNEB4Gc+oy/aJQWhwLTdJnPDc7vZcrOODgHvpYvZSXbJBg5Qt4sXaFCXCXQHSin999DG1IrqatCN9HONjeVpogOMrPYiOt5HkRnZG7qZ/TM6B1CdNjoAAIxokZzT4PKsewIwCYrMyrOIDpCRrVtRyZA22/vWs+Xm9+gQAIHMDfvW0QHgQtroAAVoPQsClbM2xTFTKWyYyu9Zm66wn8t4av8Mf44OQL7sNVKQ+/TjMh+AS9DFDIDaOafBGOx7AzAJiswK0q/mN8lG2M90RiIr/Wr+a3Jj80vuowMARBm6Fpgb9pkbKJ4uZid5nC03Pu9A7broAGSv9sKNPzTRAXiTsQorupF+LuP5OOxBVafW34uLcQM5xRgu8bHOAlyKg/cAVMs+LiNyUQ0Ak6DIrCyL6ACZ6aIDwDMWYvc9zpab79EhAAItogNk6Ju5gUp49jvOewRMgQ1FjplKkdlUfs+aPI3YcdbYWKZaP8e1/l5chvGK0uhmBlzCg06eAFSujQ5Atb5HBwCAa1BkVpZFdICM7GbLjU5mZKNfzX9JKX2JzpEhNyoCk2VuOGgdHQDeS5fCk/zTQQVgCobi+W10DrI2lWeGJjoAZxvtWW0oXnsa6+czmlqLsWr9vbgM31spyjDHutQHeK82OgAAjKVfzdukixnj+R4dAACuQZFZIfrV/DZ5+P1ZFx0AnllEB8jQVjEoMHE2+/eZG6hFGx0gc9vksgFgWhxO5lVDgXq1+tX8JqX0IToHZ+sK//lcXhMdYCSKzHiN5ziKM1tu1slFF8DbPQwX5gBAdYaLgJ3TYDSz5aaLzgAA16DIrByL6ACZcTiZ3PiCum8dHQAg2CI6QIbW0QHgvYZD4p+jc2TubrhZG2AqHE7mmNoLHJroALxJN/LPNzaWp9bvObWPwbyDDtwUrI0OABSrjQ4AACNqk8uwGM8uOgAAXIsiswIMN8H+Fp0jM4rMyMZw0FinwX3r6AAAUXShPUhnI2rQRgfIvbwA1QAAIABJREFU3KOOhcAEddEByF7tBQ61/3412l2he0E38s9nBP1qXtXnebjB3PoMhzxGB4C30s0MeCNdzACo1nDG9m/ROaiai2oAmAxFZmVYRAfIzDe34pMZXcz2WaAGpm4RHSBDD57hKN2wOVHr7f6XsogOAHBts+Wmi85A9qoq2nhBEx2As3Vjv8CwNuh23/I00QEurPbxl/dxOIzSLaIDAEXZJecaAKjbOjoA1bOOAMBkKDIrg4Wev3IrPtnQafCgdXQAgCjmhoPW0QHgAtroAJn7t4sGgAl7ig5A1j5FBxhZ7b9fjbrKXofLqa0oq7bfh8tyOIyiDZdd6MgHnOreRYAA1KpfzRfJRaGM73t0AAC4FkVmmRsegD9E58iMIjNysogOkKGtW9yBiXNBwL4ncwOlGwpIv0TnyNguKcIDps0hZV7Vr+ZNdIYx1Pp7TcC1xqzuSq/D5TTRAS5MkRmv8fxGDdroAEARdiml++gQADCGfjX/JZnnuA7rCABMhiKz/Dmk/Fff3K5EZnxG97XRAQCCLaIDZMiiLjXw3Pe6O9/VgInrogOQvVoLHZroAJzvipeAOHhRno/D4axa3EQHIF+z5cYYRfF0MwNOpIsZADVbJ00cuAIXKwMwJYrMMjbcAvspOkdmdDEjGzoNvmiXfE6BCTM3vMjcQPGGQ5aL6BwZe5otN+voEADBHFLmmFqLzGr9vWp2tYPoDl4Uq6bP9efoAGRLUQ41WUQHALKmixkA1epX87uU0m/ROZiEbXQAALgmRWZ5W0QHyJADyuRkER0gQ1/dggZMnE5H+9bmBiqwSApIX2PsAyZPJwxOUFPRxs9q/b1qdu3xSiFHeZroAJfQr+bGJ17j2Y1qzJab7ymlh+gcQLZ0MQOgSsP3/jY6B5NhHQGASVFklql+Nb9JKX2JzpGZbxa/yMXwRdUtqPvcggZM1jA36EK7z9xADRRRHfaoQwXAfymk4DXVfVcY1rA/RufgbF3lr8f7NdEBLuQmOgBZcziM2rTRAYAsbWfLTRsdAgAurV/Nf0kprZNLQrke6wgATIois3wtogNkSBczcuKg8b5HN7cDE2du2Pc43KQLxepX80VyePo1i+gAABnpogOQt341b6IzXJguQWXqrvx61gvLU8tnu5bfg3EYm6iKbmbAAW10AAAYyX2q8FIvstZFBwCAa1JklqHhpgWHlPcpMiMLw2f0NjpHhtbRAQCimBsOWkcHgAtYRAfI2INCUoC/cFiZY2oreGiiA3C27Wy5+f3Kr9ld+fV4vw9Dt/bSNdEByJcL86jUXUppFx0CyMZ2ttyso0MAwKX1q/ldSulLdA4mxzoCAJOiyCxPt0kr3+ceAja/4RCf0X07i9TAxC2SueE5G5gUbzhY+Tk6R6Z2yeUoAM/ZZOSYGoo2flbb7zMF3bVfcFjX3177dXm3Gj7fN9EByNZjdAAYwzDn3kfnALLRRgcAgEvrV/PblNK/onMwOREXdwFAKEVmeWqjA2RIFzNy0kYHyJBNK2DqFFrsW0cHgAvw2T7s3mI6wF8N3R0VUvCaGoo2fqYYvzzdxF6Xt2uiA7zH0HH+Y3QOsuViAGp2n3QzA1wCCECFhstB19E5mCTrCABMjiKzzPSr+SLZ+HpuN1tuFJmRhX41b5LP6EvW0QEAopgbDlpHB4D3GA4lfonOkaldcskAwCE2G3nNp+gAlzJ8D6I8UWNUF/S6vF3pRbGl52dcXXQAGItuZsDA5WkAVGUoMOtSSh+CozBN9n0AmBxFZvlZRAfI0Do6APxkER0gQ9+G29oBpspm3b4HcwMV8Nk+7E4XM4CDbDbyqoqKsxRwlGc3W26ixihjY3k+DRdvlKqJDkDWjElUbbbctEmHZZiyR5c4A1CTYX1inRSYEaeLDgAA16bILCPDAYPP0TkytI4OACml1K/mN0k3i5e4ERGYrGFu+C06R4bW0QHgAhbRATK1nS036+gQABnrogOQvVqKs5roAJyti3rhobhtF/X6vFnJ49VNdACytXMxEhPRRgcAwrTRAQDgUoYCsy6l9Ck4ChM2W2666AwAcG2KzPLSRgfI0DbwdlV4bhEdIENbX6SAiVtEB8iQuYHi9av5bUrpY3SOTLXRAQBy5jmIE5RctPGzWn6PKYleZ++CX5/zNdEB3sEYxSHRYyFcxXBBkG5mMD2P1iUAqIUCMzLxFB0AACIoMsuELmYH6ZBEThbRATLkMwpM3V10gAyZG6iBz/bLdDEDOI1NR15TfOHDcMBDQX55uuDXV9hRnpLHKwfQOKSLDgBX1EYHAK6ujQ4AAJfQr+a/ph9rSb7fE62LDgAAERSZ5aONDpCpdXQASEk3i1esowMAROlX80VK6UN0jszskrmBwvWr+U1yAcghbXQAgEIopOA1NRyMaKIDcL4MOhpEvz7na6IDvMVwEA0O8ZzGZAwXBT1G5wCuRhczAKowfK/vknN65KGLDgAAERSZZcAhxoO+zZab36NDwEA3i30PPqPAxC2iA2Toq7mBCnjue9mjLmYAJ+uiA5C3fjVvojO8kwKO8oR3WHTgtUgfhv2r0hijeI0iM6amjQ4AXI11bQCKN1z0+3+Ty37Jh3UEACZJkVke2ugAmVpHB4CUFIK+4j46AEAUc8NB5gZqsIgOkKk2OgBAQWw6ckzpBRBNdADO1kUHGOimUp4mOsAb3EQHIFu72XLzPToEXNNQ5G3+hfo9zJYbaxEAFK1fze9TSv8TnQN+srWOAMBUKTILNhxQ/hKdI0Pb2XLzNToEDNz6te/JQjUwcW10gAw9mhso3XA7npvx9j3qPAFwOs9EnKD0IjMXbpSniw4wMD6Wp8TxqokOQLaMQUxVGx0AGF0bHQAA3qpfzW/61bxLKf0tOgs800UHAIAoiszitdEBMrWODgAppdSv5r8k3SxeolMNMFnD3HAbnSND6+gAcAGL6ACZaqMDABRItwBeU2LRRkoppX41Lzb7xOVSWNFFB+BsTXSANzBOcUgXHQAiDBcHPUTnAEbzoMMGAKXqV/Pb9GPdyqVW5KiLDgAAUf5XdIApGzbkdTF72To6AAxuk24Wz+1my806OgRAIHPDPnMDxRu6TNvA2KeLGcDbdMm8wmGfogO8QxMdgLNtMzp0mkuxG6crarwaLgayZsMhxiCmrE3OJUCt2ugAAHCu4fv7OqX0W3AUeM3X6AAAEEUns1g6Ab3sW0ab3nAXHSBD6+gAAMHa6AAZ8lxLDRbRATK1jg4AUCiHmHlVv5o30RneSIeg8nTRAf4wrPtvo3NwnsLGK2MUr/F8xmQNc7BuZlAfXcwAKE6/mi9SSt+TAjPy9jRbbn6PDgEAURSZBRk25dxm/LJ1dABI6b+f06Juar0ShQTAZA1zw8foHBlaRweAC1hEB8jQVpdCgDdziJljSi2EaKIDcLbcxqMuOgBnK2m8aqIDkK2dQ/jg8jSozC65MBeAgvSr+a/9at6llP4n6UJO/rroAAAQSZFZnDY6QKa2s+VGm1lysYgOkKFHG7HAxC2iA2RIF1qK16/mt0kB6Uva6AAApdKthxOUVLSRUkqpX81/SZ6ZStRFB3gmt6I3jmuiA5yhuLGVqzH2MHnDd5R/RucALuZedw0AStCv5jf9ar5OKf3fpCkD5eiiAwBApP8VHWCKdDF71To6AKT030MzX6JzZEgXM2CyzA0HraMDwAXcRgfIkC5mAO/3n6Qgh8NKLIQoMfPkzZab3AoruugAnK2kz/5NdACy1UUHgEzcpx+dj3SOgLLtkn17ADLXr+Y36ceFls5YUByNMgCYOp3MYrTRATK2jg4Ag0V0gAzpNAhM3V10gAyZGyieAtKD2ugAABXoogOQtU/RAd6giQ7A2R6jAzw3FL3tonNwlo/DwbASlDi2ch25FdxCiKHrkcIUKJ8uZgBkq1/Nm6Fz2f+b7MFSpm/RAQAgmk5mV9av5ouki9khD7Pl5nt0CBgoJNi3jg4AEGwRHSBDDiRQA13M9u10MQO4CIeZeVW/mjez5aaLznGGJjoAZ+uiAxzwn2SfpDS/ppS+R4d4Tb+aN9EZyJrnMviTbmZQNl3MAMjOcKnnbfrxnOkCGErXRQcAgGg6mV1fGx0gY+voAJBSSv1qfptS+hidI0MWq4HJMjcctI4OABfgcoF9nvsALqCw4iFi/Bod4Eyl5SXfAxFddADO1kQHOMFNdACytXPJJfxp6H5kPQzK1epiBkAu+tX8duha9j2l9D9JgRl1+BodAACi6WR2Rf1qfpccTj5k6+ANGVlEB8jQg8VqYOJsuu8zN1C8fjW/STY7nnMTLsBlPSVzDYcVU7TVr+a/Jt0uSpRr554upfSP6BCcpYTxqoSMxMh1LIQws+Vm3a/mbXJ2AUqznS031m4BCDN0LGvSj65lt8l6IfV5clENACgyu5rhAbuNzpGxNjoApPTfg8a/RefI0Do6AECUYW74HJ0jQzYyqcEiOkCG1gpIAS6qS4rMOKykgoiSsvLDU8bPdQo+ylPCuohxikO66ACQqTb96DYBlKONDgDAtAxnXn9NfxaWWeumdrqYAUBSZHZNbXJzwyG72XKzjg4BA51q9j3pNAhMnLlh39NsuXEokBosogNkSAEpwGV5ZuI1JR3KaKIDcLYuOsAhs+Xm93411+mxMP1q/mvmawGKzDgk57+3EEY3MyjO1rkaAMb0U0HZz/9j7YapUWQGAEmR2VUM3S/+Fp0jYw4xkpNFdIAM+YwCkzUspC6ic2TI3EDx+tX81+QQzXMPs+Xme3QIgMo41Myr+tW8KeRyH8Ub5cl9/OmSg0qlaVKmf6+GfTgXPXJIln9vIROLlNL/iQ4BnKSNDgBAuYbvzTfDf/yjmCylPy+WKqGDOYxtm/kFSwBwNYrMrmMdHSBz6+gAkFJK/Wq+SDain9slN3QA03abzA3PmRuoxSI6QIbW0QEAajNbbv7Tr+a75JmSw35NGXecSum/l28oBipPFx3gCAc2ypNzsWnO2Yi1c5kKHDZbbrp+NX9MDhVD7nQxA6bqc7+a/3/RIYDJcA4GAAb/T3SA2vWreZMsyr7GTfnkZBEdIENfZ8vN79EhAALdRQfI0NrcQCUW0QEy81RIFxWAEimk4DUlFEaUkJG/KqGooosOwNma6ACvME5xiOcwOK6NDgActYgOAAAwAevoAACQC0Vm41tHB8jcfXQASCmlfjX/NSkIfUkbHQAgyjA3uK1/n+c3itev5roU7vPZBhhPFx2ArJVQGNFEB+BsXXSAY4YiuG10Ds7ycehsmKMSxlJidNEBIHfDpUOP0TmAgx5dDgYAMLrtbLlxUQ0ADBSZjahfzduU0sfoHBl79GBGRnSq2fdYwI3HAGMyN+wzN1CL2+gAmdnNlpt1dAiAiln/4jUlXGyheKM8XXSAExkfy9NEBzjAOMUhXXQAKMQiOgBwUBsdAABgAr5GBwCAnCgyG0m/mt8kB5OPaaMDQEopDbevOmi8bx0dACDKMDd8ic6RIZ2OqIVnv7/y2QYYVxcdgLz1q3kTneGIJjoAZyuleKuLDsDZci3mcuEjh5QyHkKo4WKxh+gcwB5dzAAArmMdHQAAcqLIbDz3KaUP0SEytrUYRkYWyef1ua1uFsDELaIDZGg7W27c3kTx+tX8Nnn2e24dHQCgZrPl5veU0jY6B1nLtWjjj8vUPDsVpqC1d8Uf5WmiAzxXQKEucbbDcxhwmjY6ALCnjQ4AADAB29lyY50SAH6iyGwEw6HF36JzZK6NDgA/0XVw3zo6AEAwc8O+dXQAuBBdzP7q23BbNQDjskHJa7ItMksZFpRw1GN0gFMVVAzHn3Icr3LMRB48f8EZhvWhf0fnAP5LFzMAgOu4jw4AALlRZHZh/Wr+S/LQcYwOSWRjuOX0Y3SODK2jAwBEGS4MMDfs84xLLRSZ/ZXPNsB1dNEByFrOBRI5Z+NlXXSAMxVTFEdKKaUP/Wqe27hwEx2AbCkyg/O1KaVddAggpZTSIjoAAMBEfI0OAAC5UWR2eW1yKPmYNjoA/ESnmn26WQBTt4gOkKGH2XLze3QIeK+hiPRDdI6MbN2GC3A1Djnzmk/RAV7RRAfgbKWNN110AM6WW5FZbnnIRxcdAEozrAG7kAjiPdivBwC4CuckAeAFiswuaLi98W/ROTK3Syr/yUS/mt+klH6LzpEhm0fAZJkbDlpHB4AL0cXsrzz3AVyJol6O6VfzJjrDATkXwPGyLjrAmUoriiO/4tPP0QHIlvEF3uY+6WYG0droAAAAE+EsMwC8QJHZZa2jAxTgXhcMMrKIDpAh3SyAqVtEB8iQuYGaKDL7q3V0AICJeYoOQNay68STceEbhz0VuP7eRQfgbNmMV8NlQfCSbYHjIWRBNzMIp4sZAMB17GbLzTo6BADkSJHZhfSreZvc6nrMLlmQJi+L6AAZ8hkFpu4uOkCG2ugAcAn9an6bUvoQnSMjDw7cAVxdFx2ArGVTtPGTJjoAZyuua8/wTKoItyyf+tX8l+gQgxzHTvJQ3HgIOZktN21KaRudAyaqjQ4AADAR6+gAAJArRWYX0K/mv6aU/hGdowC6mJGNfjVfpJQ+RufIzC758gRM2DA3KED5q11K6Wt0CLiQJjpAZny2Aa7PYWdek2OhRI6ZeF0XHeCNjI/lyWV8yCUH+TGuwPu10QFggv6tixkAwNW4jB8ADlBkdhnr6AAF0MWM3CyiA2Toq0JQYOIW0QEyZG6gJrfRATKynS03iswArs9hZ17zKTrACxRvlKfUcaaLDsDZmugAgyY6ANnqogNA6WbLzTrpZgbXtEuKOwEAruVRcT8AHKbI7J361bxNeR4AyI0uZmSjX81vUkqfo3NkSCEoMFlDZ1pzw742OgBcwvAZ18X2T+voAABTNFtu/pN+HBqDF/WreROd4Q/D+pnnp7LshnGmRF10AM6WSxHqTXQAslXqeAi5uYsOABPiTA0AwPWsowMAQM4Umb3DcFDxH9E5CqCLGblpowNk6LHgQygAl2CzfJ+bm6jJIjpAZtbRAQAmzHdvXpNL0UZKeWXhNF10gLcavnsqwi1LEx2gX81/SYphednWIX24jNly8zWl9BidAybAmRoAgOvZDp2bAYADFJm90bB5tY7OUQg3LpGN4bN7G50jQ+voAABRzA0HraMDwAU10QEyooAUIFYXHYCs5VTY1UQH4GylF7F20QE4y4eh42GknMZM8lL6eAi5aaMDwAQ4UwMAcD3r6AAAkDtFZm/XppQ+RYcogBuXyM1tSulDdIjM7NzOAUzcIpkbnjM3UI3h4KPvbn9aRwcAmDiHnnlNTgUTOWXhNF10gHcyPpanCX594xSHGE/ggmbLTZd0M4MxOVMDAHBdnr0A4AhFZm/Qr+ZNSulv0TkK4cYlcnMXHSBD6+gAAMHMDfssqlETnQr/6mt0AICJ66IDkLWcCuM/RwfgPMMB8JJ10QE4W3SRV/Trk68uOgBUqI0OABVrnakBALiaB89eAHCcIrMz9av5L8mhvFO5cYmsDAWiOR3WyYXPKTBZw9zwMTpHhtbRAeCCmugAGbFoDhBsGIe30TnI1/AdZfIZOFvx3UUqKJKboib49W+CX5986WQGFzbM0w/ROaBC29lyY68eAOB62ugAAFACRWbnW6eUPkSHKIQuZuRmER0gQ99my8336BAAgRbRATJkbqAawyUhv0XnyIgLUwDy4OAzr8mhM08OGThPLeNK8cVyExN9oZuOi7xka28SRtNGB4AKtdEBAAAmxFkYADiRIrMz9Kv5XXJA8VTb2XLTRoeAPwwHjL9E58jQOjoAQJR+Nb9J5oaXuDWTmjTRATKymy03iswA8tBFByBrORR4NdEBOFsXHeBCaimWm4yozof9ap7DWEmejCMwkuEwpm5mcDnb2XKzjg4BADAhzsIAwIkUmZ1o2LD6V3SOgrTRAeCZu+gAGdo6aAxM3CI6QIa2s+Wmiw4BF3QbHSAjnvsA8uHwM6/JoXAihwycp5ZxpYsOwNmixgvjFIfUMh5CrtqU0i46BFSijQ4AADAhj87CAMDpFJmdYOiA5EDe6dy4RI4W0QEy5HYOYOoW0QEyZG6gNk10gIysowMA8IONTI74FPniw1r4x8gMnG07dBapQRcdgLM1Qa97E/S65K+LDgA1G545rCHD+zlTAwBwXW10AAAoiSKz06yTjfVzLKIDwM/61fw2+Qy/ZB0dACBKv5ovkrnhuV0yN1CRoRu1z/kPuhQC5OcpOgD56lfzJvDlI1+bt+miA1zKbLn5PaW0jc7BWaI6ijVBr0v+dDKD8d0n3czgvRbRAQAAJkQXMwA4kyKzI/rV/C6l9Ft0joJ4ICNHd9EBMvQwHNoAmKpFdIAMfTU3UJkmOkBGdOYGyE8XHYCsRRVtRL82b1NbQUUXHYCzfOxX85uA1zVW8ZKttS0Y3/A5080M3s6ZGgCA62qjAwBAaRSZvWK4+f5f0TkK00YHgJ8NG9yfo3NkaB0dACCKueEgBwOozW10gIysowMAsKe2ohAuK7J4ogl8bd6miw5wYcbH8lx1zOpX819SSh+u+ZoUo4sOABOimxm8XRsdAABgQhT4A8AbKDI7YNik6qJzFObBAxkZ0sVs35PPKjBx5oZ9T7PlxkE+aqOY9IetzzdAlrroAGQtssjMM1RZdhU+63XRAThbc+XX08WMQ2obDyFbQzcz6+xwPoecAQCuq40OAAAlUmR22NfkJsRztdEB4AWL6AAZ0qkGmKzhIoFFdI4MmRuoSr+a62L2p6/RAQDYN1tuvic3/3PYp4gX7VdzhRvlqa6gYiiaMz6W5dpjR3Pl16Mc1Y2JkLPZcrNOKW2jc0Bh2ugAAAATosAfAN5IkdkL+tX8Prmx9Vz/HA7HQDb61XyRFIs+t0sOGgPTdpvMDc/thgMBUJMmOkBG1tEBADjIQWgO6lfzJuBlI16T9+miA4zE+FiWa++n3Vz59SiEg2MQoo0OAAVxyBkA4Lra6AAAUCpFZs8MRSl/i85RmF3S/YI83UUHyNB6ttz8Hh0CIJC5Yd86OgCMoIkOkInt0AkCgDx10QHI2k3Aa+pkVp4uOsBIuugAnOfKnRCNVbzkKToATNFweZnPH5xmER0AAGBCHhT4A8DbKTL7ybAJpljqfHeKVsjN8Hn+FJ0jQ8Y4YLKGTgDmhn3mBqrSr+Y3yWf9D110AABe1UUHIGsRRRRNwGvyDhUflOiiA3C25oqv5fseL3HBCsRxsRsc9zBbbr5HhwAAmJA2OgAAlEyR2aBfzX9JPzYuPwRHKc3TcEMZ5MaGxr5Hi9fAxC2iA2Tom7mBCjXRATLyNToAAK9yGJrXXLXIbFgf/3jN1+Tdqu0aUnHxXM2uMmZduWMaZfFcBUGGefsxOgdkro0OAAAwIf90DgYA3keRWVJg9k4KecjO8Jn+Ep0jQzrVAJNlbjhoHR0ARtBEB8jEbrbcKDIDyNhsufk9pbSNzkG2Pl/59RRulKeLDjCyaovoKtVc6XWMVRyiyAxitdEBIGO6mAEAXM8uOSMJAO+myOyH+5TSp+gQBXpwoyiZWkQHyNDWIWNg4hTG7zM3UKsmOkAmfL4BytBFByBfV+7Y01zxtbiM2gsquugAnOXjcMHP2BSZ8SL7lRBLNzN4VRsdAABgQu6GC/4AgHeYfJFZv5q3SVeLt9glh7XJl7+b+9bRAQCCLaIDZGgdHQAubTiI/TE6Rya66AAAnKT2IhHeR5EZr+miA4zM+Fie5gqvociMl+h8CHlYRAeADP1TFzMAgKt5mi036+gQAFCDSReZ9av5IqX0j+gchWpV/JOjfjVvkoPFL1lHBwCI0q/mt8nc8JL76AAwgiY6QEZ0MgMogyIKXnPNYgqFG2XZTuCwahcdgLNdYxwxVvESz1OQgeHZ5CE6B2Rkl+zDAABck8YEAHAhky0yG264/5/oHIV6mi03FsPIlS8L+x4mcOgE4DWL6AAZenBhAJVqogNk4tFnHKAMs+Wmi85A1q5STDGslX+4xmtxMdUXVAzrmdvoHJylGfOH96v5TTJW8bLqx0QoSBsdADJyb40WAOBqHuy3AMDlTLLIbNg076JzFEwRD1kaNpl/i86RoXV0AIAo5oaD1tEBYCRNdIBM6GIGUJbH6ABk6/OVXkdnoPJ00QGuROFIWcYes25G/vmUy1gBmRiKxP8dnQMyoIsZAMD17JIzzQBwUZMrMutX81/Sj0O1bjt8GxX/5GwRHSBDW59ZYOIsJO17MjdQIx04/qKLDgDAWRyM5qDhGWdszRVeg8vqogNcSRcdgPOMPGY1I/5sCmadC7LTph+HPGHKdDEDALiehWcvALisSRWZDQVmXUrpU3CUUqn4J3f+fu5rowMABFtEB8iQ2zOpVRMdIBPb2XKjWAGgLMZtXnONIjOdzAozoee9LjoAZxtzPDFW8ZKn6ADAXw2HO61BM2W6mAEAXM/jbLn5Gh0CAGozqSKz9GMhR4HZ292p+CdX/Wq+SDpXPLdLKfkSBUyWueFF5gZq1kQHyITPOEB5uugAZG3UoorhYjZr5mV5jA5wLRMqpqtJM+LPvhnxZ1Mu4wTk6T7pZsZ0OVcDAHAdu+TiaQAYxWSKzPrVfJ1S+hKdo2CPs+VmHR0CXrGIDpChrxawgYnT4XLf2txAxZroAJnoogMAcJ7ZcvM9OYDJYWN37tEZqDxddIArm0xRXSXGHFMUxPISRWaQId3MmLCtczUAAP8/e3fPIzea7o39wmADBwYkZ87UjuxMWhiMHKhO5mz6yZwQqgkZrRYw8ITT8wlWAxigsymBsXFan2DZMYOjDh0ddfZkVn0DB0XNSuoX9UtVXTfJ3w8Y7Ixeqv7nSEWyyPt/X0dzNj5fAQD2bBEls6Gtz0LB7Ck0/ina0NavIuJ1do4CeXgDLNZ4brD46DrnBmZpaOuTMLnwiz47AACPYoE0tzn0Pa/VgV+f/Vva8aLPDsCDvBwnJO7V0Narfb+uWa0nAAAgAElEQVQms7G0YyJMRtV0ZxFxlZ0DjuwsOwAAwEJcVE1n/QsAHMjsS2ZDW68j4tfsHBP3TuOfwplUc91F1XQergJL5txw3YVrOmZslR2gEBemFQJMVp8dgHKNm2gciklm09NnBziyPjsAD3aI48rJAV6TGaiars/OANzpLDsAHJEpZgAAx2FoBgAc2KxLZmPB7I/sHBN3Oe4yBkUad0U9zc5RoE12AIAszg232mQHgANaZQcoxHl2AAAerc8OQNEOWQRbHfC12b/LBW4qYCOt6Vkd4DUVYrnJZXYA4G5j4cY0M5biLDsAAMBCrG2wDACHNduS2bi7q4LZ062zA8APnEbEs+wQhdnaJQ1YuHU4N3zPDprM3So7QCH67AAAPJoSBXc5SLliaOuT8N1pahZ3rBhLdYok07I6wGsqmXGTxR0TYaLeZgeAI7j0DAYA4CjeV01n41UAOLBZlszGglmfnWMGfquazgMaSneWHaBA77IDACTz0Pq6TXYAOJRxcfSL7BwF2Pr+BjBdY4nCDv/c5lDlitWBXpfD6bMDJHGdOy2HOGa9PsBrMn2ODTAB4wLQi+wccGCeSwEAHN5VuO4CgKOYXcnsq4KZHVif5rJqurPsEHCXoa1XYUHxTTbZAQCyODfcapMdAA7IjvY7fXYAAJ6szw5AsQ5VrnAdNT19doAkfXYAHuTZuBnIXuzztZgdJTOYjrPsAHBAF1XT9dkhAAAW4HTcsA8AOLBZlcyGtn4eCmb7ss4OAPewzg5QoA9V033KDgGQyK5F1713bmDmVtkBCnGeHQCAJ7NQmluNm6vt2+oAr8nhbBf83a7PDsCDrfb4Wgqx3MiCfpiO8fNqmhlzdZYdAABgAf5eNZ1nKABwJLMpmSmY7dVvLsgo3bh76ZvsHAV6lx0AIMt4bvg5O0eBNtkB4MBW2QEK0WcHAODJ3I/jLocoWbw8wGtyOH12gCxjuW6bnYMH2ecxS8mMm1xmBwAe7Cw7AByAKWYAAIf3oWo6ayIB4IhmUTL7qmDmofjTXVZNd5YdAu5hnR2gQFduYgMLt84OUCDnBpbA98DdZ/1TdggAnsZ1Gz+w15LF0Narfb4eR7H0ImqfHYAHWe3xtZTMuEmfHQB4mPH7zvvsHLBnZ9kBAABm7jKsBQKAo5t8yUzBbK+24YKM6VhnByiQHTuApXubHaBAzg3MmsXRf+qzAwCwNxfZASjWvksWqz2/HofXZwdI1mcH4EH2+cxOyYybLL14C1N1lh0A9uiDzWIAAA5qGxHrquk+ZwcBgKWZfMksIs5DwWxfzqqm81CG4g1tfRoRL7JzFGiTHQAgy9DW64h4lp2jMNtwbmD+VtkBCtFnBwBgb9yb4zav9/x6ShsTYwGr4+PU7HFTEM8CuIljAkxQ1XSfwjQz5sPGhwAAh7W2nhkAcky6ZDa09Sb2/3B9qS6qpjPpgqlww/a693btABZunR2gQOfODSyAxdE7fXYAAPbGA1NuNbT1Pq99Vnt8LQ5v8VMOlewmafXUFzC9mttYZAaTdha7DdJgyt6PpUkAAA7jt6rpzrNDAMBSTbZkNhbM3mTnmIltWJjNRAxtfRLKpTdREgUWy7nhVs4NLMEqO0ABrixoAJiVPjsARdtLyWz8DmUS9LQoU+wsvmw3Mfs4ZtlYhJs4FsCEjfex3Ltm6s6yAwAAzNj7qunOskMAwJJNsmSmYLZ3a4sSmRBTzK67tGsnsHBn2QEKdOHcwNxZHP2nPjsAAPsz3qOzqz+32VfZQmljevrsAIXwPXdalMw4FMcCmL534XsP02WKGQDA4VyG9aEAkG5yJTMFs717b6wsUzG09fMwde8mdvsDFms8N5xm5yjQJjsAHMEqO0Ah+uwAAOydhdPcZl9li9WeXofj6bMDFKLPDsCDvBg3B3mKp/5+5sm1Ekxc1XSfw/NNpussOwAAwExdRcRq/L4AACSaVMlsaOu3oWC2T1r/TM1pmFbxvW3VdJvsEACJnBuuc25gKexov9NnBwBg7/rsABTr9Z5ex3XUtFxZWPGnPjsAD/bU482+jnvMi5IZzINpZkzRb6aYAQAcxDYiTt0HBYAyTKZkNrT1OiL+kZ1jZtYuypgYpcjrNtkBAJKdZQcokB1gWYpVdoACXFnUADBLfXYAyjW09T4KYkob09JnByjF+DzjKjsHD7J67G/c0/GOGaqaTskMZmA8r3v2y5Rsw/MXAIBD2MZugpnv+wBQiEmUzMaC2R/ZOWbm7y7KmJKhrVcR8TI7R4HcyAYWazw3vMjOUaBNdgA4EteGdm8HmCvHd+7ypNLF+D2KaemzAxSmzw7AgzzlmHWyrxDMykV2AGB/qqbbhAI50/HOJs4AAAfx1lpmAChL8SUzBbOD+FA1nWIKU7PODlCgC5MrgIVbZwco0AfnBpbA4ug/9dkBANi/cdHaZXYOivXUyT4mA02PBRbf6rMD8CBPmZzoeMVNHBNhfs6yA8A9mGIGAHAYv4ybTwAABSm6ZKZgdhBXYUE2EzO09fOIeJOdo0BuZAOL5dxwq012ADgSiw13+uwAAByMBdTc5qnXQat9hOBotnbxvcb/PybmCZuEPPb3MW+OATAz44JSm2xQOlPMAAD2T8EMAApVbMlsaOvTUDA7hFM3v5igdXaAAl1VTXeeHQIg0dvsAAVybmBJVtkBCmDBMcC8OcZzm6dMBYpQ1p8ax4LvjNfA2+wcPMhjjzsn+wzBbDguwjy530/JTDEDANg/BTMAKFiRJbOhrV+FKQyH8HeLEJkoDxau22QHAEi2zg5QIA85WRKLoy2sA5i7PjsA5Rrvnz/m951ExIv9puHA+uwAhXItPC0PPmaNE+wdr7jGc06Yp6rp+oi4yM4Bt3hrI2cAgL1SMAOAwhVXMhsfkPcR8Sw5ytx8qJrOwmMmZ5xq6GHydT7PwGI5N9xqkx0AjsFiwz/12QEAOBwLqPmBxxbuFfWnp88OUKg+OwAPsnrE73G84iYKKDBvZ9kB4AZXFkADAOyVghkATEBRJTMFs4O5DNM+mK51doACvbdbGrBwJlxe59zAklhsuNNnBwDg4Cyk5jZKZgsxTvXguj47AA/yYtws5CEcr7iJEj7M2Hjd8yE7B3znLDsAAMCMKJgBwEQUUzIb2vokFMwOYRsRa4uOmaLxuPBzdo4CbbIDAGQZzw2vs3MUyIRLlmSVHaAQFtcBzJ9jPbd5bPlitc8QHNxldoBSKd9N0uqBv17JjJu4NoL5s8EcJTHFDABgfxTMAGBCiiiZjTsYnoeC2SGsq6bz0IWp8iDhuiuLKICFc2647tL1HgtjseHuc28jEYD567MDUKzHbrxhw45p6bMDFE4Jb1oe+j3O9z5u4v4XzFzVdJ8i4n12DhidZQcAAJgJBTMAmJj0ktlYMOsj4mVylDn6vWq68+wQ8ATr7AAFOssOAJBlvG5cZ+cokClmLM0qO0AB+uwAAByFhdTcamjrBxUwHvrrKUKfHaBwfXYAHmT1wF/vmSHX2GQJFuMsOwDEbpOvTXYIAIAZUDADgAlKL5mFgtmhXFRNZ9IHkzW09TpMN/zeNnZTHwGW6jScG77n3MCiDG19Eo4DEUoHAIsw7uK/zc5BsR5aGlsdIgQH5Zrvbn12AB7k3pMUlWK5xUV2AOA4xu9Bv2fnYPGstQEAeJptRPxVwQwApim1ZDa09SYUzA7hKnaLsGHK1tkBCnReNd3n7BAAiTzUu27j3MDCWGy4Y8ExwHL02QEo1kOvi1xHTcvVuMCa27kmnpgHlMccr7iJzzwsy1nYcIM8F1XT9dkhAAAmbBsRKxPJAWC60kpmY8HsTdb7z9g2Ik4tNmbKxofN997ZdEHOsgMAZBnPDTYnuO5ddgA4MosNI7ZuyAMsimM+tzHJbN589n9gLOFdZefgQe573Do5ZAgmy3ERFmRc6+DeN1nOsgMAAEzYZUSceJ4NANOWUjIb2vptKJgdytoFGjNgUs11F3YvBhbOueE65waWaJUdoAC+7wEsS58dgGLde4Omoa2fR8SLA2Zh//rsABPRZwfgQVZ7/nUsi+/CsDzvwjQzjs8UMwCAx/sQuwlmBmQAwMQdvWQ2tPU6Iv5x7PddiL9XTXeeHQKeYlz0cpqdo0Cb7AAAWcZzgw0KrrOTK0tkkpmFtABLY0E1txonPt/H6pA5OIg+O8BEOEZOy32PWb73cY0NNmF5xoWpZ9k5WJyz7AAAABP1vmq6UwUzAJiHo5bMxofefxzzPRfkfdV0FhozB+uIeJYdojBXVdNtskMAJFpnByjQlc0FWJqhrU/CdWKEBccAizI+kL3MzkGxFDZmSpni3vrsADzIy3EjoVuNP+97H9+7yA4A5BjXP1xl52Ax3ptiBgDwKL9UTbfODgEA7M/RSmbjgsD+WO+3MJcu0piRt9kBCrTJDgCQzLnhuk12AEiwyg5QCAuOAZbHsZ/bmGQ2T8oU96SMN0k/Om4pxXKTPjsAkOosOwCLcZYdAABgYrYR8Veb5wPA/BylZDbuPHgedh88hKuwSICZGNp6FREvsnMUaJMdACDL0Nan4dxwExNsWSKLDXdTDD9nhwDg6JQouI1JZvPUZweYGKW8aVk98edZJtdCsGDjglXTzDi091XTfcoOAQAwIZcR8comUAAwT3850vtsIuLlkd5rSbYRcWqRITNiUs11H9zQBhZunR2gQO9d/7FQFkdbcAywVH12AIr1+ke/YGjrV2Hzt6npswNMTB/3+CxQjNUPft73Pm5iwRrwNiL+PTsEs3aWHQAAYELeV023zg4BABzOwSeZDW39LiJ+PvT7LNSpnQCYi6GtT8Kx4iYm1QCL5dxwq012AEhi4aiFdQCL5P4fdxlLZHdR2Jgen/mH6bMD8CA/OiadHCMEk7K1ER9QNd15mF7K4ZhiBgBwP9uI+EXBDADm76Als6Gt1xHxt0O+x4L9UjVdnx0C9midHaBAVz7nwMKtswMUyLmBRbrH4umlsOAYYLksqOQ2P7pOWh0jBHtzaXL1g7lGnpZn46ZCt3l5rCBMhs848MVZdgBmaRv+bgEA3MdlRKyqpttkBwEADu9gJbNxEaAJPIfxm4s1ZmidHaBAjqHA0r3NDlCgs+wAkETJLCKUTAEWzQJrbmOS2bz4rD/QWMq7zM7Bg6xu+sGhrW/8cRavzw4AlGG8L2bzDfbtnSlmAAA/9D52BTP3LgFgIf5yiBcd2vp5RGwi4tkhXn/h3ldNd5YdAvZpnHr4IjtHYbaxO44CLNJ4bnAt+a1tRJxnh4AkFkdbOAuwdH1E/C07BEW69TppvE9vKtC09NkBJqoPf9en5Lbj1skxQzAZFrABX3sbEf+RHYLZ2IZNXwEA7rKNiLcGYgDA8hxqktkmPNA7hA9V062zQ8ABrLMDFOh83IUXYKnW2QEK5NzAkq2yAxTAwjqAZXMe4Dav7/g5Rf3p6bMDTJRj5LSsbvlxxyxu4vMN/GmcnPA+Owez8c4zFwCAW11ExCsFMwBYpr2XzIa2fhsRP+/7dYnLsNiaGRra+iTuXgyzVHZNAxZraOtX4dxwk7PsAJDIJiYWHAMsWtV0n2K3ayhcM36HusnqmDl4su34Wefh+uwAPMht3++UzPie4yJwk7PsAMyCKWYAALf7rWq6le/kALBcey2ZjQ+z/7HP1yQidgWzlV2UmKmz7AAFuhx34gNYqrfZAQp04QYeSzW09So7QyFcHwLQZwegWEpm89BnB5gqRdzpueV7npIZ3/M9GLhmPO+bZsZTmWIGAHDdZUT8tWq6s+wgAECuvZXMhrZ+HhHn+3o9/rSNiFM3uJij8bhxmp2jQHZNAxbLueFWm+wAkMhCw4iwCQEAYaE1t7vtesl11LT02QEmrs8OwIOsvv6Poa1PIuJZShJK1mcHAIp1FgrmPN5VeB4PAPC936qme+WZNAAQsd9JZu8i4sUeX4/djVFjZ5mz0/Dg+Hvbquk22SEAEq3DueF7zg0sncXRERfZAQAoQp8dgGJdu15S2JgkCzieps8OwIN8f9w6yQhB8RwXgRuN6yeUhHisM5s8AwD8yfQyAOCav+zjRYa2Po2IN/t4Lf70pWDmAQpz9jY7QIE22QEAkjk3XOdhOUu3yg5QAN8LAYhwPuB2r2/4sdWxQ/A0VdP12RkmzjFyWr4vma0yQlA8n2vgLu9i9zzBxgo8xJVN/QAAImK3PvmdchkAcJMnTzIb2vp5KEUcwlsFM+ZsaOtVRLzMzlEgRQJgscZzg8m4122yA0CW8fum44KFdQBExLjT+mV2Dso0tPX3hQ3TYKfF5NonUtKbnBfjxMUvHLP43nacVARwo/H7keeqPNRZdgAAgAJcRMQrBTMA4DZPLpnFbtGr3aH26xe7J7EA6+wABfrgoSmwcOvsAAVybmDpLDTc6bMDAFAMxWNuYyrQtPXZAWZCWW9aXt3y7xDhmge4nz47AJNiihkAsHRXEfFfqqZbWYcCANzlSSWzoa1PI+LnPWVhR8GM2RsnUrzJzlGgTXYAgCzj7tXODdfZiZWlW2UHKIDd2wH4mgXX3Ob7gsbLlBQ8ls/2fvTZAXiQ1Vf/boI13+uzAwAwO2fZAQAAEv0Wu+ll59lBAIDy/eWxv3EsiWz2F4WIeK9gxkK8zQ5QoCtf4oCFW2cHKNBV1XR9dghItsoOUAALjgH4Wp8dgGL9WTIb2nqVmIPH6bMDzIRr52l5FeGYxa18ngHYpwtrcQCAhfoQEW9tagoAPMSjS2axm6rwbF9BiPdV062zQ8CRrLMDFMikGmDp1tkBCuTcANcncixRnx0AgHJUTfdxaOvsGJTp9Vf/vsoKwaNcVU33OTvETPTZAXiQL8ct3/u4iZIZAPt0lh0AAODILmNXLuuzgwAA0/PTY37TuKvgm/1GWTQFMxZjaOvTiHiRnaNAm+wAAFmGtl6Hc8P3tuHcwMINbf0qbGwSYWEdANddZAegTOP1U4TCxtT02QHmYizrXWXn4P7G540nyTEoz9YO6wDs0YXF1QDAglxFxC9V071yDQQAPNajSmZhwes+fVAwY2HeZgco0Hu7FQMLt84OUKBz5wawOHqkZAbA9/rsABTry/XTKjMED9ZnB5iZPjsAD/IqfPfjOt+DAdind9kBAACOYBsRv0XEq6rpNslZAICJ+8tDf8PQ1m/DpIl9uQyLqlmQoa1PIuJ1do4CbbIDAGRxbriVh55gcXRExJXd2wG4gYXX3ObV+B3LNNhp8Znerz4i3mSH4N5ehftCXNdnBwBgVmzoBwDM2TZ260ve2cgYANiXB5XMhrZ+HhFnh4myOJcRsXJhx8KYYnbdpdHUwMI5N1x3WTWdRYZgN/sIC44BuJnzA7cxEWh6tr7/7Z3/f07LKjsARfI5BgAAgLsplwEAB/PTA3/927AL6j4omLFU6+wABTKpBliscQODdXaOAjk3sHjj8eFldo4CWFgHwDXjlMur7BwU6XUobExNnx1gbsbS3jY7B/f2IjsARfJdGAAAAG62jYjfIuKkaroza5ABgEO49ySzoa1PwqSJfVAwY5GGtl6Hkur3thFxnh0CINFpODd8b1s13SY7BBRglR2gEH12AACK9TEszOdm6+wAPIgixWH0EfFzdgjgUbZjoR4AAAD4F5PLAICjuXfJLCLOwiLgp9pGxNpFHgulpHrdxvEAWDjnhus22QGgEKvsAIWw6BiA23wMBQpu5h7+tPTZAWbKMRKmq88OAAAAAAW5il25zDpDAOBo7lUyG6eYvTlslNnbxm6CmUWCLM7Q1q8i4mV2jgK9yw4AkGVo61U4N9zEuQF2XmUHKMClBwUA3KGPiF+zQwBPUzVdn51hpvpwjISp8hwVAAAAIi5jN7Vskx0EAFien+75684OGWIBFMxYOpNqrruomu5TdgiAROvsAAX64NwAf3qdHaAAvj8CcCvFFJiFy+wAc+UYCZPWZwcAAACARO8j4t+qpnulYAYAZPnhJLOhrZ9HxOkRssyVghmLNh5DTEK8bpMdACCLc8OtNtkBoATjpEOUzAD4scswHRimrM8OMHOOkTBNvgsDAACwNNuIeBcRGxsTAwAl+GHJLHYTiJ4dOsiMKZixdOvsAAW6stMIsHAmXF53VTXdeXYIKIRNTnb67AAAFO9jKFDAlPXZAWauD8dImJqrquk+Z4cAAACAI7mIXbFskx0EAOBr9y2Z8Ti/KJiBY8gNNtkBAJKtswMUaJMdAAqyyg5QAt8lAbiHPkwIhilzvXdYfUT8LTsE8CCOiwAAAMzdVUScR8Q7U8sAgFLdWTIb2nodppg91i92GGDphrZeRcSL7BwF2mQHAMgytPVpODfc5F12ACjB0NbPw7SBiN2udQDwIxZiw3RdWURycI6RMD0+twAAAMzV+4g4r5ruPDsIAMCP/PSDnzeB6HEUzGDHMeS69xaQAAu3zg5QoPdV033ODgGFWGUHKESfHQCA8pl6CZPWZweYu/Ee7FV2DuBB+uwAAAAAsEcfIuKXiPgfqqZbK5gBAFNx6ySzoa1fhR3kH0PBDCJiaOuTiPg5O0eBNtkBALI4N9xqkx0ACrLKDlAIpQEA7usiIl5nhwAezPXecfQR8SY7BHBvjo0AAABM3WXs1oCc24geAJiqW0tmYQLRY/yuYAZ/WmcHKNBV1XR9dgiARK4vr7t0boBvnGYHKESfHQCAyehDyQymqM8OsBAfQ8kMpuKqarrP2SEAAADgERTLAIBZuatkZnHfw7yvms7CafgXn4frzrIDACRbZwco0LvsAFCKcdrhi+wcBbCwDoCHMPEDpmdbNZ3P7nH02QGAe3NcBAAAYEo+RMR57Iplnu0CALNyY8lsaOvTiHh25CxT9r5qunV2CCjF0NbrcAz53jZ2XywBFsm54UbODfAtG53s9NkBAJgUC7Jhenxuj6Rquo9DW2/D/QiYAsdGAAAASnYVu/UdfdV01nkAALN22ySz9TFDTJyCGVy3zg5QILuWAEtnwuV1G+cG+MYqO0AhLKwD4N6qpvs0tPVVmAYKU9JnB1iYjxHxOjsE8EN9dgAAAAD4yjZ231X72K37+5QZBgDgmK6VzIa2fh4RPydkmaLLsGAavjG09Ul4aH+Td9kBALIMbf0qIl5m5yiQcwOMfA/9Rp8dAIDJ+RhKZjAlfXaAhenD/WqYAhuuAAAAkO0ixmJZ1XR9bhQAgDw3TTJbHTvERF1GxMr0CbjmLDtAgS6qpvOAFFgypfzrLux0Bd84zQ5QiK3rRgAe4WMoa8OUuN47rj4ifs0OAdzpyvNWAAAAjmwbu/t0fSiVAQB846aSmcV9P3YVCmZwzTiBwjHkuk12AIAszg232mQHgMKssgMUos8OAMAk9aFAAVNx6bnC0Sn1Qfl8TgEAADi0y/hXqeyjjT8BAG6nZPZw24g49SAYbnQaEc+yQxRmWzXdJjsEQKJ1ODd878q5YV6Gtl4d+S3n+H7/2xHeYwo8zADgwaqm64e2zo4B3E+fHWBpqqb7PLT1ZUS8zM4C3Mp3YQAAAPbpS6HsU5hSBgDwYN+UzMbFkRYB321lFwO41Vl2gAK9yw4AkOxtdoACbb7/ASWlvXt95PeDfemzAwAwWQoUMA2eLeTowzESStZnBwAAAGCStrG73/alUPZRoQwA4Om+n2S2yggxIb8omMHNxsXxL7JzFGiTHQBYhkJLSifh3HCTX4e2/jU7BFAeDz0AeIKPoUABU9BnB1goz3WgbD6jAAAA3OUqxqlkEfE5xmJZ1XSfEzMBAMyWktn9/VY13SY7BBRsnR2gQB+qpvuUHQLuq9CS0pTfzyQlAB7iIjsAAJPWR8Sb7BDAna7cK0zTZwcAbnVlUSAAAMDifZlIFvFtkeyzoRAAAMf3fcnMYuibfaia7iw7BJRqaOuTsJDpJpvsAMc2tPWriHh+xLc89vutjvheEc7LALAkfXYAACbNg3Yon89pkqrpPg1tfRWmrUOJHBsBAADm7ctGm1+KYzH+7+dQIgMAKNKfJbOE6SVTcRkmNMGPrLMDFGgbEa/G0tXXMkpYz474fgAAPE6fHQCA6aqa7uPQ1tkxgLv12QEW7mMomUGJLCYEAAAo19cTxr72pST2xafxn4iIqJquP2QoAAAO6+tJZqusEAXbRsS6arrPP/yVFGMBk5SUlKbhWUT8mh0CAIBp8LAFgD24CBOxoWSKFLn6iPg5OwRwTZ8dAAAAKNZF1XSr7BAAALA0SmZ3+78j4vkRprwpKQEAACzXh+wAAMxCH0pmUCybCqRT8oMy+WwCAAAAAEBBvi6ZvUpLUa7/Ov4DAAAAh9JnBwBgFizShnJdZAdYuqrp+qGts2MA37qqmu5zdggAAAAAAOBffoqIGNr6eZg0BQAAABn67AAAzEKfHQC4VZ8dgIhQ9oPS9NkBAAAAAACAb/00/q8pZgAAAHB8V1XTmTwDwJONk0CusnMAN3K9V4Y+OwDwDcdGAAAAAAAozJeS2SozBAAAACxUnx0AgFmxWBvK1GcHICIcI6E0PpMAAAAAAFCYLyWz56kpAAAAYJnOswMAMCt9dgDgmstx0iD5+uwAwL9UTddnZwAAAAAAAL71pWT2KjUFAAAALFOfHQCAWTERBMrjc1mIsex3mZ0DiAifRQAAAAAAKNKXktlJZggAAABYoAtTLQDYJxNBoEh9dgC+ofQHZfBZBAAAAACAAn0pmb1ITQEAAADLc54dAIBZMhkEyqJIUZY+OwAQEY6NAAAAAABQpJ+Gtn6eHQIAAAAWSMkMgEPoswMAf9pWTadIURZ/HlAGn0UAAAAAACjQTxHxKjsEAAAALMxV1XSfskMAMEsWbUM5+uwAfGss/W2zc8DSVU3XZ2cAAAAAAACu+yk7AAAAACyQKWYAHIqSGZTD57FMfXYAWLjL7AAAAAAAAMDNfoqI59khAAAAYGE22QEAmCdTeqAofXYAbqT8B7l8BgEAAAAAoFA/RcSr7BAAAACwIFdjAQAADsV5BqJuBHUAACAASURBVApQNV2fnYEb9dkBYOFcpwAAAAAAQKF+yg4AAAAAC3OeHQCA2euzAwBxkR2Amyn/QTolMwAAAAAAKJSSGQAAABzXJjsAALNn8Tbk8zksmxIgJFH0BAAAAACAcimZAQAAwPFcVU1nwTEAh9ZnBwB8DgvnmhxyXGYHAAAAAAAAbqdkBgAAAMdznh0AgPmrmu5zRFxl54CF67MDcKc+OwAslIInAAAAAAAUTMkMAAAAjudddgAAFsMibshzNZY9KVefHQAWyvUJAAAAAAAUTMkMAAAAjuOyarpP2SEAWIw+OwAsWJ8dgLuZ+AhplMwAAAAAAKBgSmYAAABwHJvsAAAsikXckMfnbxr67ACwNFXT9dkZAAAAAACA2ymZAQAAwHFssgMAsBwWcUOqPjsA96IMCMd1mR0AAAAAAAC4m5IZAAAAHN77quk+Z4cAYHEs5obj21ZNp7w0DX12AFgYx0YAAAAAACickhkAAAAc3nl2AAAWqc8OAAukRDERYxlwm50DFsTxEQAAAAAACvdTRNhJHQAAAA7nqmo6JTMAMljMDcfXZwfgQRwn4Xh83gAAAAAAoHA/hRv6AAAAcEib7AAALJZ7v3B8fXYAHqTPDgBLUTVdn50BAAAAAAC420/ZAQAAAGDm3mUHAGCZqqb7GBHb7BywJEoUk9NnB4CFuMgOAAAAAAAA/JiSGQAAABzO+6rpPmeHAGDRTDOD47nMDsDDKAXC0bgeAQAAAACACfgp3NQHAACAQzHFDIBsfXYAWJA+OwCPohwIh+d5NAAAAAAATMBPdlQHAACAg7ioms5COgCyORfB8fi8TVOfHQAWwPERAAAAAAAm4Kfxf7epKQAAAGB+TDEDoAR9dgBYkD47AI+i/AIHZgMWAAAAAACYhi8lMzf2AQAAYH+uqqY7zw4BAFXTfY6Iq+wcsABXVdN9yg7Bo/TZAWDmLrIDAAAAAAAA9/OlZPY5NQUAAADMy1l2AAD4ik3G4PB8ziZqLAcq48LhOD4CAAAAAMBEmGQGAAAA+3VVNd0mOwQAfKXPDgAL0GcH4Ek8J4PD8fkCAAAAAICJMMkMAAAA9ussOwAAfMfibji8PjsAT9JnB4AZcx0CAAAAAAATYZIZAAAA7I8pZgAUp2q6PjsDzF3VdJ6zTFufHQDmyvERAAAAAACmQ8kMAAAA9ucsOwAA3OIiOwDMmM/XxCnBwME4PgIAAAAAwIT8FBFRNd3niNgmZwEAAIApM8UMgJIpUMDh9NkB2AtlGNg/1x8AAAAAADAhP331727yAwAAwOOdZQcAgDu4/wuH02cHYC/67AAwQ64/AAAAAICT7ADA/SmZAQAAwNNdmGIGQOH67AAwY56vzIM/R9g/nysAAAAA4CQ7AHB/SmYAAADwdGfZAQDgLlXTfYqIbXYOmKHLquk+Z4dgL/rsADA3VdN5/gwAAAAAABOiZAYAAABP86Fquj47BADcg3vAsH8+VzMxlgUvs3PAjFxkBwAAAAAAirDKDgDc358ls3EnOTvZAgAAwP1tI+JtdggAuKc+OwDMUJ8dgL1SGoT98XkCAAAAACIiTrIDAPf303f/7WY/AAAA3N+7quk+ZYcAgHvqswPADPXZAdirPjsAzIjnzgAAAABARMSLoa2fZ4cA7uf7klmfEQIAAAAm6KpqurPsEADwABZ7w35tbTgwO312AJgR1x0AAAAAwBer7ADA/SiZAQAAwOOsswMAwENUTfc5Iq6yc8CM9NkB2K+xNLjNzgFzUDWdkhkAAAAA8MVpdgDgfr4pmVVN1yflAAAAgCn53XdoACaqzw4AM9JnB+Ag+uwAMAMX2QEAAAAAgKIomcFEfD/JLMJNfwAAALjLVUScZYcAgEcyVQT2x+dpnvrsADADjo8AAAAAwNeeDW29zg4B/NhNJbPzo6cAAACA6VhXTfc5OwQAPJJF37AnJtvOluMkPJ3PEQAAAADwvbOhrZ9nhwDudlPJrD92CAAAAJiI3y0mBmDKnMdgby6yA3AYjpOwF0pmAAAAAMD3XkTEu+wQwN2ulcyqpvsYEVcJWQAAAKBklxFxlh0CAPZAOQaeToFi3hwn4fG24/NmAAAAAIDvvRnaepMdArjdTZPMIiLOj5oCAAAAyreumu5zdggA2AMLv+Hp+uwAHJTjJDyezw8AAAAAcJc3Q1t/HNp6lR0EuO62kll/zBAAAABQuL/biR2AGXFOg6frswNwUH12AJiwPjsAAAAAAFC8lxHxz6Gt+6Gt10NbP88OBOz85aYfrJrufGjrbUQ8O3IeAAAAKM2HquneZYcAgD3qswPAxF2ZcDt7fXYAmDBldgAAAADgvl6P//wxtPVl7O7Pf4rdfcZPVdN9SksGC3VjyWx0HhFvjhUEAAAACnQZEevsEACwT1XTfbLJGDxJnx2Aw6qa7vPQ1lcR8SI7C0yQkhkAAAAA8Bgvx3/+NLT11/95cdQ0cLvP8a974V/+/XPVdLO4P35XyWwTSmYAAAAs1zYi1qZUADBTH2O3KyDwcH12AI6iD8/J4KG2dhYGAAAAAA7Es01K8vP3PzCWIq9i9yz+Y+yeNX2c2tqzn277iarp+tj9HwgAAABL9HYuO8wAwA367AAwYa4Rl6HPDgAT5PgIAAAAAMCSvYhdAe3XiPhnRPx/Q1t/HNr63dDWp7nR7ueuSWYREecR8bdjBAEAAJioq4j4dMvP/Y+x++L43x0tDfvyW9V0m+wQAHBAfexubAMPs7URwWL4c4aH67MDAAAAAABAYV6O//xtaOtt7Hpa51XTnefGutmPSmbvQskMAAAO7a6S0iF8mvv7VU13zPe7ZmjrdUScxa5gxvS8r5ruLDsEAByY8gQ8js/OQlRN93F80PcsOwtMiGMkAAAAAADc7llEvImIN+NzqE1EvMte7/i1O0tmVdN9Gtr6MnatOQAAyvWQktL/GhH//eGiTNL/ExH/11f/nV5SYpqUy2bhMiLeZocAgEOrmu7z0NZX4boFHqrPDsBRfYyI19khYEKUzAAAAAAA4H6exW4o2N+Gtn4fEZuq6frcSD+eZBaxm2b2x6GDAADptnHcRQCfj/x+n2Jhk5RuMrT1q4j4j+wcBfo/S/zzYjqGtl7Frlxm8eG0XUbEqmq6z9lBAOBI+tjtkgbcX58dgKPqw/c8uK+t+2sAAAAAAPAoX6abXUTEOvN++31KZuexK5o9O3AWAKZv7iWlo79f1XR2fmXfTOe57sICGB5LuWxWthFxqmAGwMJ8DCUzeJASdg/kqPqI+DU7BEyEe9kAAAAAAPA0ryPiP4e2/j0izjLWsv2wZFY13eehrTexG8MGMHX/b0T8t6/+W0kJWIyhrZ9HxGl2jgJtsgMwPcpls7ON3QSzT9lBAODI3DOAh7nMDsBxVU3XD22dHQOmos8OAAAAAAAAM/G3iFgPbb2umu78mG98n0lmEbtJZkpmTIVJSjv/e0T81wNnmZpt1XT/S3YIgETrMJ32e1dV022yQzAdQ1ufxK5cZuLHfHwpmFlkD8DiKE/Ag/XZAUhxGREvs0PABPheDQAAAAAA+/MsIv59aOsPEbE+1lSze5XMqqb7NAb7+cB55uT7aUl3KbWktLf3s2Dz+MYJhHzrXXYAgGRvswMUaJMdgGlQLps1BTMAlu4iTGeF++qzA5CiDyUzuA/frQEAAAAAYP9+joiPQ1ufHmOd230nmUXsyhlKZvf3P0fE/2GxIhmGtl5FxIvsHAXaZAcAyOLccKtNdgDKplw2e7/4zgYA8TGUzOC+XDsuUx8Rf8sOAYXbVk33KTsEAAAAAADM1IuI6Ie2fls13eaQb/TTfX9h1XR97Ha15f76cVEqHNs6O0CBPnjACSycKWbXvXdu4DZDWz8f2vosdotIFczm6ZdDf+EGgIlQmoH7ufIdcrEcJ+HHfE4AAAAAAOCwnkXEH0Nbrw/5JvcumY3eHSTFfD2LiPOhrZ9nB2E5xmKjhdDXbbIDAGQZzw0m0l63yQ5Aeb4ql32KiF9jd03P/CiYAcC/9NkBYCL67ADkGMuFV9k5oHB9dgAAAAAAAFiIP4a23hzqxR9UMqua7jw8SHuolxFxnh2CRVlnByjQ1Xj8AliqdXaAAl2Nk3rhT+MOH59CuWzOthHxVwUzAPiXsTyxzc4BE2BKz7L584e7+YwAAAAAAMDxvDlU0eyhk8wiIs72HWIBXh+yKQjfWWcHKJApjMDSvc0OUCDnBv40tPV6aOtPEfFHKJfN2TYiVlXTWfgGANf12QFgAvrsAKTqswNA4XzXBgAAAACA43oztPXe1wc/uGQ27vhumtnDvRknI8DBDG19GhEvsnMUaJMdACDLeP2hNPOtbTg3EBFDW6+Gtv4Yu3KZa6h5UzADgLs5R8IPuJZcvD47ABRsO05GBQAAAAAAjusf++4pPWaSWYRpZo/1x1gCgkMxqea691XTfc4OAZBonR2gQOfODcs2lsv6iPhnRLxMjsPhXYaCGQD8SJ8dAAp3kR2AXL5PwJ18PgAAAAAAIM8fQ1u/2teLPapkNk4z81D1cTb7/AOEL4a2PomI19k5CvQuOwBAFueGWzk3LNTQ1idDW5/Hrlzms7EMCmYAcD/OlXC3PjsARfBcDG7WZwcAAAAAAICF64e2fr6PF3rsJLMI08we61ns/gBPsoMwO6aYXXdpQTGwcGfZAQp04dywPENbPx/aehMR/xkRPyfH4Xg+xK5gZnIhAPzAeL68zM4BBeuzA1CEPjsAFMq9NgAAAAAAyPUsIs738UKPLplVTdeHXRsf61lEnO+rKQjj36V1do4CmVQDLNZ4bjjNzlGgTXYAjmcsl51FxKeIeJObhiN7XzXdqYIZADyIBeJwO58PIpTM4DaOkQAAAAAAkO/10NZPHlz0lElmEUotT/Ey9tQUhNiVCJ5lhyjMtmq6TXYIgETODdc5NyzI0Nbr2JXLfg2fhaX5pWq6dXYIAJggC8ThZpc2L2DkOAnXXVVN9yk7BAAAAAAAEBER/xja+tVTXuBJJbPxocHvT3mNhXs9tPUmOwSz8OTG6QxtsgMAJDvLDlAgEy4XYGjr1dDWnyLij1AuW5ptRPybMikAPFqfHQAK1WcHoAxj2fAyOwcURvkSAAAAAADKsnnKb37qJLOI3QLm7R5eZ6neDG19lh2C6Rqbpi+zcxRIkQBYrKGtVxHxIjtHgTbZATicoa1fDW3dR8Q/w9//JbqMiFdV0/XZQQBgqqqms0gcbuazwdf67ABQGMdIAAAAAAAoy8undJSeXDIbd258dAAiIuLXoa3X2SGYLFPMrrsYJy0CLNU6O0CBPjg3zNPQ1ifjdOD/iIjXyXHI8T4iVj7jALAXF9kBoEB9dgCKolAD3+qzAwAAAAAAANe8Hdr65DG/cR+TzKJqunex2zmex/tjnEgF9za09fOIeJOdo0CmmAGL5dxwq012APZraOvn424bH8Pf+SX7e9V063HzEwDg6ZQn4FtbmxnwnT47ABTGtQMAAADAvPXZAQB4lGfxyE7FXkpmo/UeX2upekUzHmidHaBAV1XTnWeHAEhkwuV1zg0zM04B/hgRv8buyxDLcxURfx03PAEA9qfPDgCF6bMDUJaxdLjNzgGFuLLpCwAAAAAAFOvnoa1XD/1NeyuZVU33MSJ+39frLdSziDgfJ5DAfSgSXLfJDgCQbJ0doEBKKDMxtPVqaOs+Iv6IiBfJccjzISJejd9BAYD9cn6Fb/XZAShSnx0ACuG6AQAAAAAAynb20N+wz0lmXwJc7fk1l+ZF7CaaKZpxp6GtT8Pi6psoEgCL5dxwq012AJ5maOuToa03EfHPiHidHIdcf6+a7tRO6QBwGCb0wDUKFNykzw4AhXCMBAAAAACAsr0e2nr9kN+w15LZuNDPZKWnexmKMvzYOjtAgd5bcAwsnOuw65wbJm5o67PYLVp6kxyFXJcR8deq6XxPAoDD67MDQCmqpuuzM1AkxRrY6bMDAAAAAAAAP3T2kF+870lmUTXdeUR82PfrLtCboa0toORGQ1ufRMTP2TkKtMkOAJBlPDeY8HSd66mJGtr6dGjrTxHxa0Q8S45Drt8jYlU1nYWcAHAczrmwc5EdgDIpH8KfXDMAAAAAzJz7oQCz8GJo69P7/uK9l8xG64jYHui1l+RvDx1Nx2KYVHPdlYtZYOGcG667VEqZnqGtT4a27iPi3yPiRXIccm0j4r9UTffWREIAOKo+OwAUos8OQNGUEFm6K9/VAQAAAABgMu69xvggJbPxocL6EK+9QH8Mbb3KDkFx1tkBCnSWHQAgy9DWz8O54SammE3I0NbPh7Y+i4j/DFP52E3HPhknZQMAx2WjBtjxWeAufXYASOYYCQAAAAAA0/F6aOtX9/mFh5pkFuNiwA+Hev2FOb/vHyjzN063e5adozDbiLAAGViy03Bu+J5zw4SMo5g/RsSv2VlI92V62akd0QEgx3gOvszOAQXoswNQNAUbls5nAAAAAGA5ttkBANiLe00zO1jJbLSOiKsDv8cSPIuIzTilBNbZAQp0bhEysHD3HmO7IBvnhvINbX0ytHUfEf8eES+S45DP9DIAKIeF4yzdpe+U/ECfHQCS9dkBAAAAADgaz40A5uH0Pp2kg5bMxoew60O+x4K8DNM4Fm+caPc6O0eBzrIDAGQZzw0vs3MU6F12AG43tPXzoa3PIuI/w7UNppcBQIk8LGTpfAa40/jdxSaLLJnjJAAAAAAATMuziDj90S869CSzqJquj4jfD/0+C/F6aOtNdghSmVRz3UXVdJ+yQwAkcm64zrmhYENbr2K3EOnX5CiU4X2YXgYAJeqzA0CyPjsAk9BnB4AkVzaJAQAAAACASVr/6BccvGQWEVE13duIuDzGey3Am6Gt19khOL5xNOEPm6MLtMkOAJBlPDe8yc5RIFPMCjROLzuPiH9GxIvsPKS7ioh/q5pubWEaAJSnajrTSVg6nwHuo88OAEkcIwEAAACWpc8OAMDevB7a+uSuX3CUktnoNCK2R3y/OftjnADBsqxjN6KQf7mqmm6THQIg0To7QIGuTEQqz9DWbyPiU0T8nByFMvwWEa/GqdcAQLkusgNAkq2iJffk7wlL5e8+AAAAAABM152Dj45WMqua7lNEvD3W+y3A+dDWr7JDcFQ+P9dtsgMAJHNuuG6THYB/Gdr61dDWfUT8I5Tl2S1U/2vVdGemlwHAJFhAzlL12QGYhrGMaHNFlqjPDgAAAADAUX3KDgDAXq3u+sljTjKLceLQ+2O+54w9i4jN0NbPs4NweOPkuhfZOQq0yQ4AkGVo69NwbrjJu+wARAxt/Xxo67OI+I+IeJ0ch3zbiPilarqViRAAMCl9dgBI4pqVh+izA0ACx0kAAACAZfmUHQCAvfr5rp88asls9DYiLhPed45ehpLNUqyzAxTowzghEWCp1tkBCvTedKR8Yzn+Y0T8mhyFMvweESfjhiMAwLRYQM5S9dkBmBTHSpbmyv03AAAAAACYtnHQxY2OXjIbHzysY7ebPU/38zglgpka2vokIt5k5yiQSTXAYo3nhjt3ElioTXaAJRunl72LiH+GKXtEXETEX6ume2vxGQBM07i5j3u4LE7VdH12Bialzw4AR6ZYCQAAALAw7psDzNKr234iY5JZVE33MUzf2Kdf72oSMnnr7AAFunLRCizcOjtAgZwbEo3Xoh8j4m/ZWUh3FRG/VE23Gr/3AQDT1mcHgCO7yA7AtLgXwQL5rg8AAAAAANO3uu0nUkpmERFV051HxO9Z7z9Dm6Gtb20TMmnr7AAFMsUMWLq32QEKdJYdYInG6WXnEfHvYXrZ0m0j4reIeFU13SY5CwCwPxaSszT+zvMYl9kB4Ij67AAAAAAApLBJG8C8vL7tJ9JKZhERVdO9DSedfXkWu6LZ8+wg7M/Q1uuwYPt724jYZIcAyDKeG55l5yjMNiLOs0MszTi97FNE/JwchXzvY1cuO6ua7nN2GABgr/rsAHBkfXYAJqnPDgBHpIwLAAAAAAAzcNuQq78cO8gNTmP3QEKR5ulexm7C0zo5B/uzzg5QoHOLl4GFW2cHKJBzwxGNmxpsQrmM3YYhZ1XT9dlBAICDsZCcpfF3nsfoI+Jv2SHgCC7dgwMAAABYrD7umHoDwCS9ihuej6ZOMouIGB9GnMZuAgVP92Zo67fZIXi6oa1PwgXZTd5lBwDIMu4a4Nxw3Vl2gKUwvYzRVUT8UjXdSsEMAOZtvHd7mZ0DjuSqarpP2SGYJOVElsLfdQAAAAAAmI8bJ5mll8wiIqqm+xgRilH784/bRtcxKWfZAQp0OR4vAJbK9dJ1FxYBHt7Q1s+Htt5ExL9HxLPkOOTZRsRvVdOdVE23yQ4DAByNezEsRZ8dgGka70tcZeeAI3BNAAAAALBcfXYAAPau3JJZRMS4SPH37Bwzcj609fPsEDzO+Gd3mp2jQKaYAYvl3HCrTXaAuRvaehW7RURvkqOQ6/eIOKma7iw7CABwdH12ADgS5Qmeos8OAEfgOAkAAACwXJ+yAwCwdyc3/WAxJbOIiKrp3kbEh+wcM/EiIs6zQ/Bop2FKyPe2JmYAC7cO54bvOTcc0Di97F1E/DN215Ys0/uI+J+qpntbNd3n7DAAQAoLylmKPjsAk+ZYyexVTdf//+zdu3Lc2LYu6LFO74g2xWN1e+J6AnEZsMXyO0Lc0TZCKRNWsZ6gWOaxFpcFs5IBu+NQT7BBG8YWn+CQT9DicdrqrjYSqpJ4kXjJzDGR+L4Ihkq8JP4iUzmTifljZGcAAAAAIEfVdFfZGQBYu3v3hRZVMhstIuIyO8SOeDu09Ul2CJ7lODtAgZbZAQCSWRvuMuFyQ4a2PojVBsufk6OQ5yIifqqabuGFQgCYt6rpFCeYgxv3dV6ozw4AG+bcLQAAAABeIwLYMUNb799+X3Els/Hq+EcRcZOdZUf8Om4SZiKGtj6MiDfZOQqkSADM1rg2mCR11zI7wC4aL1Lwn+H5yFxdxqpcdugK5QDAVy6yA8CGKZjxImNJ0XktdpnHSQAAAACusgMAsHb7t99RXMks4s+RmofJMXbJ+dDWe9kheLRFdoACfTRBA5i5RXaAAlkb1mxo6/2hrfuI+DU7CymuI+JD1XQHymUAwD367ACwYX12AHaCEg67zP0bAAAAAK8RAcxAkSWziD+v+vghO8eOeB0mfUzCWAZ8n52jQMvsAABZxlG01oa7TLhco6Gtj2L1QtDb7Cxs3U2symX7VdMts8MAAMVy0pBd12cHYCf02QFggzwXAAAAAKDPDgDA2h3cfkexJbOIiHGT47+yc+yId0NbH2eH4If8jO66rpruPDsEQKJFdoACXZu0tB5DW+8Nbb2MiP8eEa+S47BdNxHxW0QolwEAj2FjObvOfZx16LMDwKZ4LQ4AAACAiLjKDgDA2u3dfkfRJbOIiKrpjiPiLDvHjjgZ2vpO05CiLLIDFMikGmDuFtkBCmRtWIPxeWEfJuXNzdflspOq6T5nBwIAylc13VVEXGfngA259LyYNVFWZFddZgcAAAAAIN94vugmOwcAm1V8yWx0HE5grMOriFhmh+B+Q1sfRcTr7BwFWmYHAMgytPUirA233YS14cXGCbf/GRFvsrOwVWcRcaBcBgA8k/IEu6rPDsBuGH/Pci6LXeQ5AAAAAABfeK0IYMdNomQ2npg7DFfLXYc3Q1ufZIfgXovsAAU6swEamLlFdoACnVsbnm9o672hrc8j4p/ZWdiqs4j4e9V0i/GqUgAAz+GkIbvKfZt16rMDwAZ4nAQAAADgiz47AACbNYmSWcSfRbOjMGZzHX4d2vowOwR/Gdp6PyLeZeco0DI7AECWcW14m52jQKfZAaZqaOuDWG0K8pxjPj6GchkAsD59dgDYkD47ADtFGYdd5H4NAAAAwBdeKwLYcZMpmUVEVE33KVZFM15uObT1XnYI/nScHaBAl1XT9dkhABJZG+66HJ8P8kRDWx9HxH9GxOvsLGzFRUT8VDXdkXIZALAuXqdhR117zsya9dkBYN08BwAAAADgK312AAA2a1Ils4g/T2R8yM6xA15HxEl2CP60yA5QIJNqgNkai+CL7BwFsjY80dDWe0Nbn0fEP7OzsBVfymWHNoABABtymR0A1syFTFirsbR4nZ0D1sjaDwAAAMCfqqb7HF4zAthpkyuZRURUTbeMiN+yc+yAn4e2PswOMXdDWy8i4lV2jsLcRMR5dgiAREdhbbjtZnwOyCMNbX0Qqw2T77KzsHHKZQDAtijksGv67ADsJI+V7BL3ZwAAAABu85oRwA6bZMksIqJqupOIOMvOsQOW47QU8hxnByjQcrzaAcBcWRvuWmYHmJKxxN7Hanotu+s6Ij4olwEAW9RnB4A167MDsJP67ACwRjYMAQAAAHBbnx0AgM2ZbMksIqJqukUYuflSryPiJDvEXI0TRt5k5yjQaXYAgCzjlFFrw13Whkca2noZEb+HaXi77Eu5bN+EPwBgy2w0Z6dUTec+zSa4X7FL3J8BAAAAuK3PDgDA5ky6ZDY6DEWzl/p53NDO9plUc9dF1XRX2SEAEi2yAxToo7Xhx4a23h/a+lNEvM/OwsYolwEAqRRy2DEX2QHYTSZNs0vcnwEAAAC4bdzHZe8+wI6afMmsarrPsdqMfZMcZeqW2QHmZmjrvbAJ/D7L7AAAWawND1pmByjdeMGAT2EK3q66iYjfIuJAuQwAKIBiDruizw7ATvNYyS6wUQgAAACAh/TZAQBYi8+33zH5klnEn1fQPQxFs5d4PbT1SXaImVlkByjQtY3TwMyZcHnXddV059khSja09XFE/EdEvMrOwtp9KZftV013Ml5gAwAgW58dANbEZD42qc8OAGvgcRIAAACAh/TZAQBYizvnAnaiZBbxZ9HMxuyX+XVo64PsEDPi/nrXMjsAQLJFdoACLbMDlGpo672hrZcR8c/sLGzEv0K5DAAokw3nsFEWggAAIABJREFU7Io+OwA7zWMlu8D9GAAAAIB7jRcNNxwGYAftTMksImKcgPRLdo6JO80OMAdDWx9GxOvsHAVaZgcAyDK09VFYG+7juck9hrbei9WGyPfJUVi/s4j4e9V0x8plAEChbDhnF1x6vs2G9dkBYA2s+QAAAAB8T58dAIAXu7r9jp0qmUVEVE13GquNmTzP26GtTdjaPN/ju86qprvKDgGQaJEdoEBnNv3dNU6evYqIN8lRWK+PsSqXLTwnAgBKNj5Xuc7OAS+kOMFGja9nXGbngJeomq7PzgAAAABA0c6zAwDwMvftVdy5kllERNV0i4i4SI4xZSfjdAw2YGjr/Yh4l52jQMvsAABZrA0PWmYHKM3Q1ouI+M+IeJUchfW5iIifqqY7Ui4DACZEQYep67MDMAseK5ky51kBAAAA+BElM4Bpu/fisjtZMhsdhatEPteriDjNDrHDFtkBCnTtipjAzJlwedelteFbQ1ufRsTv2TlYm8tYlcsO3dcBgAlSnGDq+uwAzEKfHQBewFoPAAAAwHdVTfc5Ij5m5wDg2a7ue+fOlszGhesoIm6ys0zU+6GtD7ND7ChFgrtOsgMAJFtkByiQwvtoaOu9oa3PI+Ln7CysxXVEfKia7kC5DACYsD47ALzAjSnCbImSDlPm/gsAAADAY5hmBjBd/X3v3NmSWUTEeKL4MDnGlNncvWZDWy9iNSmOv9yEJ5nAjFkb7mVtGA1tvR+rJ/LvcpOwBjcR8UvVdPtV0y2zwwAAvISyPBPXZwdgHqqm+xQuhMh0KZkBAAAA8EPjHhivgwJM09V979zpklnEnyfxPmTnmKg348Z31meRHaBA5+PkQYC5MuHyrqW1IWJo64NYbeh5k52FF7mJiN8iYr9qOhdxAAB2yWV2AHgmxQm2qc8OAM8xnl8FAAAAgMdwMXGAabr3XMDOl8wi/mxJ/5adY6JOh7beyw6xC8ZJJG+zcxTIZmtgtsYSkQLRXbNfG8aifx+m3E3dWazKZSeKkwDADrL5nKnqswMwKx4rmaKL7AAAAAAATMrs93oBTNFDF5ybRcksIqJqupNYbfLkaV6FCSvrcpIdoEAXroYJzJw19q6LqumuskNkGtr6OCJ+DwWzKbuIiL9XTbdQLgMAdlifHQCeo2q6PjsDs9JnB4BncN4GAAAAgEcb9wFfZucA4EkevODcbEpmo+OwiD3Hr+MULp5pnAZ3lJ2jQMvsAABZrA0PWmYHyDS09TIi/pmdg2e7jIifqqY7nHtZEgCYBRvQmSLTedgqpUYmyhoPAAAAwFOZZgYwLf1DH5hVyWycInAUETfZWSboJDvAxB2FaSS33VRNt8wOAZBoEdaG267nujYMbb03tHUfEe+zs/As1xHxoWq6AxsIAYC5GK9K6XVWpkZxggzKjUyNx0oAAAAAnmTc8+W8EcB09A99YFYls4iIcaLAYXKMKXo/tPVBdogJO8kOUCBXLQDm7jg7QIGW2QEyjFPt+oh4mxyFp7uJiN8i4mCuBUkAYPZsQmdq+uwAzJLHSiZlLJIDAAAAwFPZFwwwEd+7mP7sSmYRf54c+ZCdY4Is/s8wtPVhRLzOzlGgZXYAgCzWhgctswNs21jiv4qIN8lReLqziNivmu5knJgMADBHfXYAeKI+OwCz1GcHgCcweQ8AAACA5zoN08wApuDj9z44y5JZxJ9jOc+yc0zM23FTPE+zyA5QoI/jVEGAuTLF7K6zua0N4/OqPiJe5SbhiS4i4h9V0y2UywAATOdhUq49hydJnx0AnsDaDgAAAMCzjK/BG2gCUL7z731wtiWziIiq6RYRcZkcY2pOsgNMydDW+xHxPjtHgZbZAQCyjGvDu+wcBVpmB9imoa0XEfEfoWA2JdcR8e9V0x2Ok5EBAFCcYFr67ADM07ix4jo7BzyS1zwAAAAAeAnTzADK13/vg7MumY0Ow2L2FKaZPc0iO0CBrqum+277FWDHLbIDFOi6aro+O8S2DG19HBG/Z+fg0W4i4req6fY9hwEA+JbiBBPTZwdg1vrsAPBISmYAAAAAPJtpZgDFu6ia7up7nzD7ktm4mB1m55iYk+wAE7LIDlAgTx6BuTvODlCg2awNQ1svI+Kf2Tl4tLOIOKia7iQ7CABAwWxGZyrcV8nk/sckmN4OAAAAwEuN+2xcpBCgTMsffcLsS2YRf54w+SU7x4SYZvYIQ1sfRcTr7BwFWmYHAMgytPUiIl5l5yjMTcxkbRgLZu+zc/AolxHxU9V0ix9dtQMAANN5mIQbxQmS9dkB4BEusgMAAAAAsDNciB2gTOc/+gQls1HVdKcR8TE7x4ScZAeYAE+Q7jobpwcCzNUiO0CBznd9bRjaem9o60+hYDYFNxHxS9V0B1XT9dlhAAAmQnGHKXA/JdVYcrzJzgE/4LESAAAAgLWomu487MsHKM2juhxKZt9ahPGcj/V2aOuD7BClGtp6PyLeZuco0Gl2AIAs1oYH7fTaMLT1XqyuVv4mOQo/dhYR++PFJwAAeCTlfCaizw4AocBD+dxHAQAAAFin43DxLYCSLB/zSUpmXxlbeUfZOSbEpK6H+d7cdTlerRVgrk6yAxToYpfXhrGQ34eCWekuI+KnqukWuz5VDwBggy6zA8AP9NkBINwPKd/Ovk4HAAAAwPZVTXcV9swBlOLysReQVTK7Zdzo/Et2jol4P05l4SvjxJJFdo4CmQoCzNa4Niiy37XMDrApCmaTcBMRv1RNd2D6BgDAi/XZAeB7POenEH12APieXb4YFAAAAAA5qqY7jYiP2TkAeHyXQ8nsHha0JzGx666jiHiVHaIwN1XTLbNDACSyNty1s2vDVwUzP/NyfYyIg/F5PwAAL2dTOiUzaY8iKDtSuIvsAAAAAADsrEWsLgYNQI7rp+zXVTJ72CIirrNDTMBinM7CXxTv7lpmBwBIdpIdoEDL7ACbMLT1USiYlew6In6qmu6oarqr7DAAADtEyYyS9dkB4CtKj5TKWg4AAADARlRN9zlWF2kHIMfJUz5ZyewB44K2yM4xAa/C9+lP4+SSN9k5CmRKCDBbQ1sfRsTr7BwF2rm1YWjrRUT891AwK9VvsZpe1mcHAQDYNVXTfQpXoKRcfXYA+EqfHQAeoGQGAAAAwMaM+3V+yc4BMENPmmIWoWT2XeOC9lt2jgkwuesvvhd3XZgUAszcIjtAgT7u2towFsx+z87BvS4j4h9V052MF5IAAGAzbE6nVO6blMT9kVL12QEAAAAA2G1V051GxFl2DoCZOXnqFyiZ/UDVdCex2pjKw14PbT37MaZDW+9FxPvsHAXauUk1AI9lbXjQMjvAOimYFesmIn6pmu5gnKwBAMBm9dkB4B7Xu3aREyavzw4A97jxWAkAAADAlhyHffkA2/LkKWYRSmaPtYjVJlUetsgOUIBFdoACXVdNd54dAiCRCZd37dTaMLT1aSiYlegiIg7GKyABALAdiv2UyP2SooxFnuvsHHCLx0oAAAAAtqJqus8RcRiKZgDbsHjOFymZPcI4+eAkO0fh3g1tvZ8dIpkiwV3L7AAAyRbZAQq0M6Wfoa2XEfFzdg6+8WV62aErcAMAbF2fHQDu0WcHgHso9FCaPjsAAAAAAPPxVdHMBbkANudj1XT9c75QyeyRxikIF9k5CrfIDpBlaOujiHidnaNAO1MkAHgqa8ODltkB1mEsmL3PzsE3TC8DAEg0nhB0MpDS9NkB4B59dgC4RfERAAAAgK0azysdxeqC0gCs1028YICSktnTLMJi9j2L7ACJFtkBCnQ2PgkEmCsTLu/aibVBwaw4ppcBAJTDJnWKUjWd+yQl6rMDwC0eKwEAAADYuvE1/MOIuEyOArBrTl6yl1LJ7AnGb/RJcoySvR6ntszK0Nb7EfEuO0eBltkBALKMa8Pb7BwFmvyEKQWz4pheBgBQlj47AHzlIjsA3Ef5kcLcuGgPAAAAAFkUzQDW7uKl+ymVzJ5o/IZbyB42u5JZmFRzn+uq6frsEACJrA13XU59E5WCWVFMLwMAKNOkn/Ozc/rsAPAdSpCUwtoNAAAAQKqq6T6HohnAOtxExOKlN6Jk9jyL7AAFez+09V52iC1bZAco0El2AIAs4zq4yM5RoMlOmhraem9o6z4UzEphehkAQKFcdIjC9NkB4Dv67AAw6rMDAAAAAEDVdJ+rpjuIiLPsLAATdryOi/YrmT3DOIXjt+wcBZvNNLOhrRcR8So7R2FuIuI8OwRAoqOwNtw22bVhLA32EfE2OQorv5leBgBQPFeZpBSm81Ay909K4b4IAAAAQDGqpltExC/JMQCm6KxquuU6bkjJ7PlOI+I6O0ShFtkBtmiRHaBA5+PoWoC5Os4OUKDlFNeGrwpmb5KjsNqo/I+q6U6ygwAA8EN9dgCIiMsp/h7KrPTZAWCkZAYAAABAUaqmO42If4R9+gCPdRlr3LusZPZM4wlqm8jv93Zo6/3sEJs2tPVBmGpyn5PsAABZxrVBIemu0+wAT6VgVpR/RcThOE0YAIDyed5GCdwPKdp4jsnkR7LdmBYPAAAAQInGfUIHEfExOwtA4W4iYrHOC3Aqmb1A1XTnEXGRnaNQR9kBtkDJ8K4LJySBmbM23DW5tUHBrBg3EfFT1XTHJhAAAEyKcg8l6LMDwCN4vCSb+yAAAAAAxaqa7nPVdEcR8e+x2kcEwF1H676Av5LZyy2yAxRqkR1gk8bN53Mo0j3VMjsAQJZxbXifnaNAk5pipmBWjIuI2K+ars8OAgDA04wvYDvRR7Y+OwA8Qp8dgNnrswMAAAAAwI+MQ2H2w1QzgNs+bGKPpZLZC42TOf6VnaNAb4a23s8OsUGLiHiVHaIw11XTLbNDACRaZAco0PX4S/4kKJgV45eq6Q5NLwMAmDSTUch0M7WJ2sxWnx2A2bNeAwAAADAJX001+ykiLrPzABTgw6a6G0pm63ESrs57n12e9HWcHaBAy+wAAMmsDXctswM8loJZEa4j4h9V001q+h0AAPfqswMwa312AHiMsQzp3BKZlMwAAAAAmJSq6fqq6Q4i4kN4fRWYr40VzCKUzNZinLJwkp2jQIvsAJswtPVhRLzOzlGgZXYAgCxDWx+FteE+y+wAj6FgVoSPEXFQNZ3NTQAAu8HzOjL12QHgCfrsAMyWqY8AAAAATNZYrtiPiN9C2QyYl40WzCKUzNZmnLhwnZ2jMG/GTdu7ZpEdoEAfnYwEZm6RHaBAZ1NYGxTMivBL1XRH44UbAADYDX12AGZNyZEp6bMDMFseKwEAAACYtKrpPldNdxLKZsA83ETET5sumEUoma3bSXaAAh1lB1inoa33I+J9do4CnWYHAMgyrg3vsnMUaJkd4EcUzNJdR8Q/xos1AACwQ8YLCLggFymqpuuzM8ATKPqQpc8OAAAAAADr8KVsVjXdXkR8COeogN1zGREH2zoPqmS2RmMr0ML0rZ0qmYVJNfe5tnEDmLlFdoACFb82KJil+xirX3pspgMA2F19dgBm6SI7ADxF6a+fsNO8JgMAAADAzqmablk13X5E/BQRZ8lxANbhXxFxWDXd1bYO+G/bOtCMnETE79khCrJrk10W2QEKZPoIMHfH2QEKdJId4HsUzNL9No6qBwBgt32KiPfZIZidPjsAPMNFRLzNDsHsKJkBAAAAsLPGC3z1Q1sfx2rv9yLsFQOm5SYiFlXTnW/7wCaZrZlpZncNbb0T08yGtl5ExOvsHIW5iYhldgiALOPa8Co7R2FuImLrT2ofS8Es1U1E/KRgBgAwGzavk8H9jilyv2XbbrZ5xVMAAAAAyFI13eeq6U6rpjuIiL9HxC8RcZkcC+BH/hUR+xkFswgls005yQ5QmMPsAGuyyA5QoPOq6T5nhwBItMgOUKDS14bzUDDLcBkRB+NVggAAmAHP/UjSZweAZ+izAzA7io0AAAAAzE7VdFf3FM4+JscC+NpFRPyjarrjzH24/5Z14B13HhGnYbLJF0cRcZwd4iWGtt6PiLfZOQp0mh0AIMvQ1gdhbbjPSXaAhwxtvQw/swxnEZH6Sw8AAGkuwnNwtufa7x1MVJ8dgNnpswMAAAAAQKaq6a5itQf6NCJiaOujWA1VOQwXMAe27yIiTkq5kKtJZhswnshWvvnL67GkNWUn2QEKdFk1natdAnM26QL1hlyMv4AXZyyYvc/OMUO/VE23sNETAGC2vHbENvXZAeA5xt+Zr7NzMCvWZwAAAAD4StV05+PkoIOI+K8R8e8R8Vusih8Am3IWq8llh6UUzCJMMtukZUT8mh2iIIex+p5MztDWe7Gaxsa3FCmB2bI2PGiZHeA+CmYpbiLiqKRffAAASGETO9vUZweAF+jDaxdsT58dAAAAAABKNV4Y7Hx8i4iIoa0PIuL226uUgMDUXcaqh3Fe6sX7lcw2pGq6q6Gtz8JJwS+OotCN549wFJ4I3HZTNd0yOwRAokVYG24rcm1QMEtxGRELE08BAAib2Nkuv4MwZX14/YLtuC71pDXAU40XOftbdg4AAAB237gP6pvzEENb70fEfqwKZ1//+Xqr4YDS3cTqPNB5RPRV012lpnkEJbPNWoaTgl8cZgd4gePsAAVaZgcASGZtuKu4CZcKZik+xqpgZrMSAABfLsR1Ey7SwebduNAFE+f+y7a4rwEAAADAGoxFkau456KLXxXQvrztxaqEFmEKGuy6y/jrsaGf4jlMJbMNqpquH9r6OjSSIyJeDW19MLV/JENbH0bEm+wcBSquSACwLePaYG2/a5kd4GsKZin+VTWdAiYAALd9ioi32SHYeX12AHiJquk+KeWyJZM6TwcAAAAAU/RVAe27hrY+iFUBLeLbItoXX3/8PgprsD038e1r7J+/+nsfEZ+n1pV5iJLZ5i0j4tfsEIU4jOmdvFpkByjQxymMaQTYoEV2gAIVtTYMbX0SCmbb9qFqumV2CAAAylM13WF2BoApqJruexsFAAAAJqdqupOIOEmOAQBQrHsKKecpQQC+8l+yA8zAMjtAQQ6zAzzF0NZ7YYP6fZbZAQCyjGOsrQ13FTPhcmjrRSj4b9NNRPykYAYAAAAAAAAAAAAwbUpmGzZO9bjMzlGIw+wAT3ScHaBA11XTackDc7bIDlCg66rp+uwQEX8WzH7PzjEjlxFxWMrPHwAAAAAAAAAAAIDnUzLbjmKmeyR7NbT1QXaIJ1hkByiQ+zIwd4vsAAUqYm1QMNu6LwWz2yPbAQAAAAAAAAAAAJigf8sOMBPnYdPzFwcRUfxm5KGtjyLidXaOAi2zAwBkGUtM1oa7ltkBFMy27qxqukV2CAAAAAAAAAAAAADWxySzLaia7nNEfMzOUYjD7ACPtMgOUKCz8b4MMFeL7AAFSl8bhrY+DAWzbfqXghkAAAAAAAAAAADA7lEy257z7ACFOMwO8CNDW+9HxLvsHAVaZgcAyDKuDW+zcxToNPPgQ1sfhOdY2/Sharrj7BAAAAAAAAAAAAAArJ+S2fb02QEK8Xpo673sED9g8/Rdl1XT9dkhABJZG+66rJruU9bBx4JZHxGvsjLMyE1E/HvVdMvsIAAAAAAAAAAAAABshpLZllRNdxURl9k5CnGQHeAHFtkBCpQ6qQYg01iOXmTnKFDa2qBgtlU3EXFYNZ2JcQAAAAAAAAAAAAA7TMlsu2zOXTnMDvCQoa0XYcP6bTfhvgvM21FYG267yZpqNZb++vAz2YbLWBXM0ibWAQAAAAAAAAAAALAdSmbbpaizcpgd4DuOswMUaFk13efsEACJrA13LTMOqmC2VQpmAAAAAAAAAAAAADOiZLZF4ybdm+wcBTjIDnCfoa0PIuJNdo4CnWYHAMgytPVhWBvus/W14auCmZ/H5l3EqmCmZA4AAAAAAAAAAAAwE0pm22eaWcSroa33s0Pcw6Sauy6qprvKDgGQaJEdoEAft702KJht1VnVdApmAAAAAAAAAAAAADOjZLZ9fXaAQhQ1zWzcvP4+O0eBltkBALJYGx60TDqmgtnmnVVNt8gOAQAAAAAAAAAAAMD2KZltX58doBBFlczCpJr7XFdNt8wOAZBokR2gQNdV0211KuvQ1suIeLfNY87UbwpmAAAAAAAAAAAAAPOlZLZlVdNdRcR1do4ClFYyO84OUKBldgCAZNaGu5bbPNhYMDNNbvM+VE13kh0CAAAAAAAAAAAAgDxKZjn67AAFKKZkNrT1YUS8zs5RoGV2AIAsQ1sfhbXhPqfbOtDQ1iehYLYNH0wuBQAAAAAAAAAAAEDJLEefHaAAr4e23ssOMTKp5q6zceoewFwtsgMU6Kxqus/bONDQ1ouI+HUbx5qxm1AwAwAAAAAAAAAAAGCkZJajzw5QiPRpZkNb70fEu+wcBVpmBwDIYm140HIbBxkLZr9v41gzdhMRhwpmAAAAAAAAAAAAAHyhZJZgnBB1nZ2jAOklszCp5j7XVdP12SEAEplwedflNtaGoa2PQsFs074UzD5lBwEAAAAAAAAAAACgHEpmeWzsjdjPDhCKBPc5yQ4AkGyRHaBAp5s+wNDWB2GS5qYpmAEAAAAAAAAAAABwLyWzPH12gAKkTjIb2noREa8yMxToJiLOs0MAZLE23Gvja8NYMOvD936TFMwAAAAAAAAAAAAAeJCSWR4bfJNLZmFSzX3Oq6b7nB0CIJEJl3dtdG0Y2no/FMw27TIiDhTMAAAAAAAAAAAAAHiIklmSqun67AwFeDW09V7GgccN7W8zjl240+wAAFnGaVpvsnMU6GRTNzw+DzgPBbNNuozVBLOr7CAAAAAAAAAAAAAAlEvJLNdldoACZE0zO0k6bskuTDgBZs4Us7suNlVOGgtmfSj2bdKXgpkppQAAAAAAAAAAAAB8l5JZLoWehJLZuKn9aNvHnYBldgCALNaGBy03eNt9KJhtkoIZAAAAAAAAAAAAAI+mZJZLySxiP+GYRxHxKuG4Jbupmm6ZHQIg0SKsDbddb2ptGNp6GQpmm6RgBgAAAAAAAAAAAMCTKJnlUjJLmGQWEScJxyzdaXYAgGTH2QEKtNzEjY4Fs/ebuG0iQsEMAAAAAAAAAAAAgGdQMktUNV2fnaEA+9s82NDWhxHxepvHnIhldgCALNaGBy3XfYNDW5+GgtkmKZgBAAAAAAAAAAAA8CxKZvmuswMk2/am/sWWjzcFH6umu8oOAZDIFLO7zta9NgxtvYiIn9d5m3xDwQwAAAAAAAAAAACAZ1Myy/cpO0C2oa0PtnSc/TA95T7L7AAAWca14V12jgIt13ljY8Hs93XeJt9QMAMAAAAAAAAAAADgRZTM8s2+ZBYRe1s6zmJLx5mS66rpzrNDACRaZAco0HXVdP26bmxo66NQMNskBTMAAAAAAAAAAAAAXkzJLJ+SWcThlo6z2NJxpuQ0OwBAskV2gAKtbW0Yp5Uu13V73KFgBgAAAAAAAAAAAMBaKJnlu8oOUICNTzIbp6i83vRxJmiZHQAgy9DWi7A23HYTa1obxoJZHxGv1nF73KFgBgAAAAAAAAAAAMDaKJklq5rOJLOIgy0c43gLx5iaMxvTgZlbZAco0Pk61oahrfdDwWyTFMwAAAAAAAAAAAAAWCslszJcZgdItr/JGx83ur/d5DEm6jQ7AEAWa8ODXrw2DG29FxHnoWC2KQpmAAAAAAAAAAAAAKydklkZ5r5J+PWGb98Us7suTdEDZu4kO0CBLl66NowFsz4i3qwlEbcpmAEAAAAAAAAAAACwEUpmZeizA2Qb2vpgQ7e7FxGLTdz2xJliBszWuDYcZeco0HINt9GHgtmmKJgBAAAAAAAAAAAAsDFKZmW4yg5QgL0N3e5RRLza0G1P1U3VdMvsEACJrA13vXhtGNp6GQpmm6JgBgAAAAAAAAAAAMBGKZmV4So7QAE2MsksIo43dLtTtswOAJDsJDtAgZYv+eKxYPZ+LUm4TcEMAAAAAAAAAAAAgI1TMivDp+wABVj7JLOhrQ/CRJX7nGYHAMgytPVhRLzOzlGgZ68NCmYbpWAGAAAAAAAAAAAAwFYomRVg3Dh8k50j2eEGbtMUs7suqqa7yg4BkGiRHaBAH5+7NgxtvQgFs025iYgjBTMAAAAAAAAAAAAAtkHJrBymma3R0NZ7YdP7fUwxA2bL2vCg5XO+aCyY/b7WJHxxE6sJZlfZQQAAAAAAAAAAAACYByWzclxlB0j2ds23t1jz7e2C66rpzrNDACQy4fKuZ60NCmYb9aVg5gIEAAAAAAAAAAAAAGyNklk5rrIDZBsnzKyLIsFdy+wAAMkW2QEK9OQJl0NbH4aC2aYomAEAAAAAAAAAAACQQsmsHDYTRxys40aGtj6KiNfruK0d8+QiAcCusDY8aPmUTx7a+iAiTMXcDAUzAAAAAAAAAAAAANIomZXjc3aAAqxrktliTbezS86qpnMfA+bMhMu7nrQ2jAWzPiJebSzRfCmYAQAAAAAAAAAAAJBKyawcNhWvYZLZ0Nb7EfHu5VF2zjI7AECWcW14m52jQI+ecKlgtnHHCmYAAAAAAAAAAAAAZFIyK4QpUxGxnklmJtXcdV01XZ8dAiCRteGuy8eWmsaSXh8KZpvyoWq6ZXYIAAAAAAAAAAAAAOZNyawsF9kBkr14kllELNZwG7vmJDsAQLJFdoACPWqK2dDWexFxHgpmm6JgBgAAAAAAAAAAAEARlMzKMvdpZvsv+eKhrRdhE/xtN7EqBwDMkrXhXo9aG8aCWR8RbzYdaKYUzAAAAAAAAAAAAAAohpJZWT5lB0j2+oVfv1hHiB1zXjXd3MuLwLwdZwco0PJHa4OC2cb9pmAGAAAAAAAAAAAAQEmUzMoy+zLQ0Nb7z/y6g4h4u940O+EkOwBAlnFtUJK66/R7H1Qw27izqulOskMAAAAAAAAAAAAAwNf+LTsA35j7JLOIiP2IuHrG15lUc9dF1XRX2SHYvLFIs/fVu/bHt4ccPuHmP8XDBdjPcfdx65PpeRSoqAxXAAAYMUlEQVTE2nDXd9cGBbONO6uabpEdAgAAAAAAAAAAAABuUzIri2JGxEGsNrc/2rgh/mgjaaZtmR2A5xnv0wfjXw/HP79+315srwDy5AmBQ1t//deLr/67H//8upx2pQzJJoz/jt5n5yjQd6eYxWrtUDDbDAUzAAAAAAAAAAAAAIqlZFaQquk+3SpnzNHejz/ljkVEvFpzjqm7rppumR2C+31VItu/5+11TqqNefvAf//pq8e9L4W0L9PTrr68KaLxDIvsAAW6rpru/KEPDm29jIh324szK5cKZgAAAAAAAAAAAACUTMmsPNexeyWTpzj48afccbz2FNO3zA5AxNDWX4pkB+PbXjxjMtiMvL3155/GItp1fFU8i7GMVjVdv41wTI614a7lQx8YC2Ymv23GZfw1lRIAAAAAAAAAAAAAiqRkVp6rmHfJ7EmTzIa2Pox5f78esswOMCdDW+/HX0WyL8WyN4mRdtXr8e2bEtpYQLuJVensanzrY1VA+7TNgJRhaOujsDbcZ3nfOxXMNuoyIg6rpvucHQQAAAAAAAAAAAAAvkfJrDxXMe9JR0/9f19sIsTEfaya7io7xK66VSg7HP98lRiJlVexevz48hjya8SfBbTL+Gvy2aeI+OTfyM5bZAco0Nl993sFs426DgUzAAAAAAAAAAAAACZCyaw8V9kBsg1tvfeYDdlj2cfG+LtOswPsiqGt9+KvMtlhKJRN1Zvx7d2Xd4zls4v4qnxWNV2fkI01G9eGdz/6vBla3n6HgtlG3UTEkYIZAAAAAAAAAAAAAFOhZFaeq+wABTiIiP4Rn7fYbIxJulaUeb6xnHIYfxXL3iTGYfO+TD57H/HN1LOvJ571WeF4tkV2gALdWRsUzDbqJlYTzD5lBwEAAAAAAAAAAACAx1IyK89VdoAC7D/y8xYbzDBVppg9wVelsi9vr/PSUIgvU8/uK571sSqeKY6U7Tg7QIFOvv6LgtlGKZgBAAAAAAAAAAAAMElKZuW5yg5QgP0ffcLQ1otQCLrtJiKW2SFKNrT1XqzKZEehVMbj3S6e3cRfpbM+VsWzz1nh+Mu4NrzKzlGYm4g4//IXBbONWyiYAQAAAAAAAAAAADBFSmaFqZruapycM2cHj/icxaZDTNC5ostdQ1sfxKpUdhSrohC81KuIeDu+/RoRMbT1ZfxVOuv9W0yzyA5QoD/XBgWzjftQNd35jz8NAAAAAAAAAAAAAMqjZFam65j3hKW9731waOv9WJU7+NZpdoASjNPKvkwqOwpTjdiOL9POfo5QOsswFkqtDXedRCiYbcGHqumW2SEAAAAAAAAAAAAA4LmUzMp0FfMumf2oJHCyjRATc1k13afsEFnG4uFRrKYYmVZGCR4qnZ1XTdfnxdppx9kBCnQxTkhdhoLZJv1LwQwAAAAAAAAAAACAqfvbH3/8kZ2BW4a2Po2xmDBjf6+a7ur2O8cpVVdhOtVts5ugMk4tWsSqXDbnUibT9DH+mnI224LoulgbHvQhVlMdFcw256xqukV2CAAAAAAAAAAAAAB4KZPMyvQ5O0AB9mNVGLjtKJQIbruZS8FMsYwd8m58i6Gtr2Occhar0pk14OmsDXf9z1hNdzPdcXMUzAAAAAAAAAAAAADYGUpmZTLVZjV5pb/n/cfbjTEJy+wAm6RYxgy8jtWkqfcREUNbf5lydn7fREfudZIdoED/TyiYbdKlghkAAAAAAAAAAAAAu0TJrEym2KwmmX1jaOvDsGH+PqfZAdZNsYyZ+zLl7J9DW1/GqnC2rJpOAfke49rgceKu/y07wA67jFUZHgAAAAAAAAAAAAB2hpJZgaqm64e2zo6R7eCe9y22HWICPu7KpKOhrfdj9TNehMIIfPFmfPt5aOvriDiP1YSzPjVVWRbZAZiVy4g4rJrOBQEAAAAAAAAAAAAA2ClKZuW6jnkXbb6ZWDa09V5EvE/KUrJldoCXGH+uRxFxHKbUwY+8joifY1U4u4m/CmfnubHyjOVUawPbchMRRwpmAAAAAAAAAAAAAOwiJbNyXcW8S2YxtPVB1XSfxr8ep4Yp0/VUyyVDWx/FavrQu+QoMFWvYlWuej/zwtkiOwCzcROrCWZX2UEAAAAAAAAAAAAAYBOUzMr1KSLeZodIdhCr70OEIsF9TrMDPMU4ceg4Vj/LV6lhYLfcVzhbVk3Xp6bajkV2AGbhS8Hs0w8/EwAAAAAAAAAAAAAmSsmsXFfZAQpwEPHn1KtZT3V7wDI7wI8Mbb0XEUexKpe9SY4Dc/B14ew6/iqc7Vw5ZmjrRVgb2I6jXfw3BAAAAAAAAAAAAABfUzIrl83MEYfjn4vEDKU6q5ruc3aIhwxtfRCrYtlRmFoGWV5HxM8R8fNYODuNiPOq6a5SU63PIjsAs/BhJlMBAQAAAAAAAAAAAJi5v/3xxx/ZGbjH0Nb7EfE/snMU4O/h+3Cfn0rb9G5qGUzGZfxVOCu2rPo91ki25EPVdMvsEAAAAAAAAAAAAACwDUpmBRva2g8n4v+KiP8zO0RhLqumO8gO8YWpZTBpZ7Eqm51nB3mKoa1PYzWlDTblt6rpTrJDAAAAAAAAAAAAAMC2/Ft2AL7rIiLeZodI9n9kByjQaXaAiIihrRdhahlM3fuIeD+09XVEnEfEadV0V7mRvm+cmrjIzsFOO1MwAwAAAAAAAAAAAGBulMzKdhVKZv9rdoDC3MSqCJJiaOv9WBXLFmFqGeyS17GaDPbz0NaXsSqznldN9zk31r1MTWSTzqqmW2SHAAAAAAAAAAAAAIBtUzIr21V2AIqzzCh9DG19FKti2bttHxvYujcR8XtE/D609VmsHnf63EjfOM4OwM76qGAGAAAAAAAAAAAAwFwpmZWtj4hfs0NQlNNtHWho671YFcuOYzXlCJif9xHxfmjr64hYxqpwdpUVZmjrw1iV4GDdLmO15gEAAAAAAAAAAADALCmZle1TdgCKcrGNcsfQ1vsRcRIRRxHxatPHAybhdaxKz78Obf0xIs6rplsm5FgkHJPddxkRhxmTQgEAAAAAAAAAAACgFH/7448/sjPwHUNbfw5FH1Y+bLLUMbT1Uaymlr3d1DGAnXITq+lmp1sqwO5FxP+96eMwOwpmAAAAAAAAAAAAABAmmU3Bp1D6IeJ6EwWzsbSxiFW57PW6bx/Yaa8i4ueI+Hlo68uIOI3VhLNNlXUWG7pd5usmIhYKZgAAAAAAAAAAAACgZDYFfSiZsZoWtDZDW+9HxElEHIVJecDLvYmI3yPidGjr84hYVk3Xr/kYx2u+PebtJlYTzD5lBwEAAAAAAAAAAACAEiiZlc/mZyLWVDIb2vooVkUNxUVgE15FxPuIeD+09XWsHruWVdNdveRGx8cu0xZZFwUzAAAAAAAAAAAAALhFyax8NkBz9pKCxtDWexGxiFW5TEkD2JbXEfFrRPw6tPVFrApn51XTfX7GbS3WmAuOFMwAAAAAAAAAAAAA4Ft/++OPP7Iz8ANDW3+O1XQY5umnqun6p37R0Nb7EXESEUfh/gOU4SYizmNVNjt/zBeMj2X/Y5OhmJUPVdMts0MAAAAAAAAAAAAAQGlMMpuGPiLeZYcgxfVTC2ZDWx/FamrZ240kAni+VxHxPiLeD219HavC2fIHU6WOt5KMOVAwAwAAAAAAAAAAAIAHKJlNw6dQMpurk8d80tDWe7EqYiwi4vUG8wCsy+uI+Dkifv5B4Wyx7WDsJAUzAAAAAAAAAAAAAPgOJbNp6CPi1+wQbN1NrEoXDxra+iBW5bL3W0kEsBn3Fc7OI2I/VtPP4CX+pWAGAAAAAAAAAAAAAN/3tz/++CM7A48wtLUf1PycVU23uP3OcWrZUazKZW+2nAlgm/7fiPhfskMwafeupQAAAAAAAAAAAADAt0wym46LiHibHYKtOv36L19NLTsKk32AeVAw4yUUzAAAAAAAAAAAAADgkZTMpqMPJbM5uaia7pOpZQDwLApmAAAAAAAAAAAAAPAEf/vjjz+yM/AIQ1sfRsR/ZOdga/5bRPzvYWoZADzVRdV0h9khAAAAAAAAAAAAAGBKlMwmZGhrP6x5+P8i4r9khwCACbqMiMOq6T5nBwEAAAAAAAAAAACAKVFkmZaP2QHYCv8uAeDpFMwAAAAAAAAAAAAA4JmUWaalzw4AAFAgBTMAAAAAAAAAAAAAeAEls2k5zw4AAFAYBTMAAAAAAAAAAAAAeCElswmpmu4qIq6zcwAAFELBDAAAAAAAAAAAAADWQMlsekwzAwBQMAMAAAAAAAAAAACAtVEym55ldgAAgGQ3EXGkYAYAAAAAAAAAAAAA66FkNjFV032KiOvsHAAASW5iNcHsKjsIAAAAAAAAAAAAAOwKJbNpOs8OAACQ4EvB7FN2EAAAAAAAAAAAAADYJUpm07TMDgAAsGUKZgAAAAAAAAAAAACwIX/7448/sjPwDENbX0XE6+wcAABboGAGAAAAAAAAAAAAABtkktl0nWcHAADYAgUzAAAAAAAAAAAAANgwJbPpOs0OAACwYQpmAAAAAAAAAAAAALAFSmYTVTXdVURcZucAANgQBTMAAAAAAAAAAAAA2BIls2kzzQwA2EXXoWAGAAAAAAAAAAAAAFujZDZt57Ga8gEAsCsuI+JAwQwAAAAAAAAAAAAAtkfJbMKqpvscEcvsHAAAa3IZqwlmn7ODAAAAAAAAAAAAAMCcKJlN32l2AACANVAwAwAAAAAAAAAAAIAkSmYTVzXdVURcZOcAAHgBBTMAAAAAAAAAAAAASKRkthtOsgMAAP9/e3ds3MaZh3H4vZnLxQ7IDsQEsdCB0MCO6BCRdRWY7oAXbUoOCjBYgcF4E7KCAzogK/AF38KkZckSSRDfAniemR0AUvJGy+g3f15IYAYAAAAAAAAAAAAAlf3rjz/+qL2BDejaZpHkQ+0dAADPcDWazs5qjwAAAAAAAAAAAACAQ/fv2gPYmMuIzODQrZIsn/xefvH7qdsk37sadJrk6Bv/N/7it/cP8FwCMwAAAAAAAAAAAAAYCJfM9kjXNsskx7V3ABu3jsfuU+KwJFn0n8vRdLbc/qRv69rmaZw27j9P+ucoyfutjwKGRmAGAAAAAAAAAAAAAAMiMtsjXdtMkvxWewfwIuuQ7Pbp59ACsk3q2mbcf/3y01U02G8/jaazy9ojAAAAAAAAAAAAAIBHIrM907XNIgINGLKHlIBs/SxH09mi6qIB6trmKMlpHi+gra+jeb/BbhOYAQAAAAAAAAAAAMAAicz2TH8Z6PfaO4A/3SRZpI/K9vky2bZ0bXOSEp6N8xihic9g2B6SjEfT2W3tIQAAAAAAAAAAAADA34nM9lDXNvMkH2vvgAO0ymNQthBTbFcfn51+8RzX3AQkEZgBAAAAAAAAAAAAwOCJzPZQH1r8r/YOOADrqGyREpUta47h77q2OUqJzcYRnkENdymB2X3tIQAAAAAAAAAAAADAt4nM9lTXNudJfqm9A/bMQx6jsrmobDf14dk4j/HZh5p7YI9dJzkTmAEAAAAAAAAAAADA8InM9lQfUdzGxR54rbs8RmWLulN4K13bjPMYnY2TvKs4B/bB1Wg6O6s9AgAAAAAAAAAAAAD4MSKzPdZHE7/X3gE76DrJPMnCtbLD1LXN0+BsHNEZPMdPo+nssvYIAAAAAAAAAAAAAODHicz2XNc28yQfa++AgXtIicrWYdl95T0MzJPobJLkQ901MFgPSSauPgIAAAAAAAAAAADA7hGZ7bmubY6SLOMKD3zpz7BsNJ3Na49ht3RtM8ljdHZcdw0Mwl1KYLasPQQAAAAAAAAAAAAAeD6R2QHoY4jfau+AARCWsXFd25ykxGaunHGorpJ8dgUSAAAAAAAAAAAAAHaXyOxAdG1zkeTn2jugkus8xmUiCN5Mfz3y6ZUzVyTZd/8ZTWcXtUcAAAAAAAAAAAAAAK8jMjsQffiwSPK+8hTYlrskl0kuhWXU0l+SXD+CM/bJQ5LJaDpb1B4CAAAAAAAAAAAAALyeyOyAdG1zmhKaCR3YV6uUi2UXo+lsWXkL/IXgjD1ylxKYLWsPAQAAAAAAAAAAAAA2Q2R2YPrI4bfaO2DDrlMuls1rD4EfIThjh/13NJ19rj0CAAAAAAAAAAAAANgskdkB6trmPMkvtXfAK62SXKTEZfe1x8BLCc7YEQ9JzsS8AAAAAAAAAAAAALCfRGYHqmubyySfau+AF7hKCcsWtYfApnVtc5YSm32sPAWeukkJzJa1hwAAAAAAAAAAAAAAb0NkdqC6tjlKskjyvvIU+BGulnFQ+nf0Wf94T1PTr6Pp7Lz2CAAAAAAAAAAAAADgbYnMDpjQjB3gahkHr2ubkySfUy6cHdddwwFZJZmMprPb2kMAAAAAAAAAAAAAgLcnMjtwfWi2TPKu8hRYWyW5THLhahn8Vdc2k5TY7FPtLey1/yY59w4GAAAAAAAAAAAAgMMhMiNd25ymXDQTmlHTTUpYNq89BIauD4QnKRfOXKNkU1ZJzlyPBAAAAAAAAAAAAIDDIzIjidCMah6SzFMu5iwrb4Gd1LXNSUpsdhbvcF7O9TIAAAAAAAAAAAAAOGAiM/4kNGOLVknOk8wFDbA5XdtMUmKzj5WnsDtcLwMAAAAAAAAAAAAARGb8Vdc2Rymh2fvKU9hP10kuxAzwtvrrZpOUC2fHddcwYK6XAQAAAAAAAAAAAABJRGZ8hdCMDXtIcpkSly3rToHD07XNOOW62ae6SxiQmySfR9PZbe0hAAAAAAAAAAAAAMAwiMz4qj40u4gogZdbJTlPMnclB+rr3+vr62Yi4sP0kBKXXdYeAgAAAAAAAAAAAAAMi8iMf9S1zXmSX2rvYKdcp1wtW9QeAnxd1zYnKbHZWZJ3VcewLb+mvJtFvwAAAAAAAAAAAADA34jM+K6ubSZJLiNE4NseUi7fXY6ms2XlLcAz9O/4syQfK0/hbVwlOfduBgAAAAAAAAAAAAD+iciMH9K1zWlKaPa+8hSG5S7lMs5l7SHA63Rtc5QSm53Fu34f3KTEZYvaQwAAAAAAAAAAAACA4ROZ8Sxd21wk+bn2Dqq7Srlatqg9BNi8rm1OknxOMklyXHcNzyQuAwAAAAAAAAAAAACeTWTGs3VtM04yT/Ku8hS2a5Vyze5iNJ3dV94CbEn/zj9LCc6894dLXAYAAAAAAAAAAAAAvJjIjBfp2uYoyUWST7W38OZuUsKyee0hQF1d20xSYjPB2XBcp7yjF7WHAAAAAAAAAAAAAAC7S2TGq/QXbi6THNddwoY95PFq2bLuFGCIBGfVXaVcLlvWHgIAAAAAAAAAAAAA7D6RGa/WXzX73D9Cg912k+RyNJ1d1h4C7A7B2dasUq6IXo6ms/vaYwAAAAAAAAAAAACA/SEyY2O6tjlJcp7kU90lPJOrZcDG9Bcu18GZK5ebcZ0Sls1rDwEAAAAAAAAAAAAA9pPIjI3rA4PzJB/qLuE7XC0D3lQfH0+SjJN8rDpm99ylBMCulgEAAAAAAAAAAAAAb05kxpsRmw3SKsk8rpYBFTy5cjZO8r7qmGFah2Vz72gAAAAAAAAAAAAAYJtEZry5Pir4HFdsarpKiRbmtYcAJEnXNkcpsdn6OdToTFgGAAAAAAAAAAAAAFQnMmNrurY5SblsNknyruqYw3CTx3DhvvIWgO/qo+RxktP+cx//VqySLPrH+xkAAAAAAAAAAAAAGASRGVvXX685S7ludlx3zd5xEQfYG32cfJrH6Owku/d34y7JbfqwzLsZAAAAAAAAAAAAABgikRlV9VdrzpJ8qrtkpwnLgIPS/+046Z9xkqMk76sNenSTZJkSld2OprNF1TUAAAAAAAAAAAAAAD9IZMYg9NfNJinB2Ye6a3bCdZJ5Slh2X3sMwBD0l89OUqKz0/6fx/3na0O0VUpAlpSI7L7/vUwJyryLAQAAAAAAAAAAAICdJTJjcPpIYB2cDeEyzRCsUqKyxWg6m9ceA7Av+qtoXxKNAQAAAAAAAAAAAAAHRWTGoD25cDZJuUbzruqg7VklWayf0XS2rDkGAAAAAAAAAAAAAACA/SUyY6f0F2fWz4eaWzbsLsltRGUAAAAAAAAAAAAAAABsmciMndZHZ6cp0dlpkuOae37QXZJlHqOy29F0dl9zEAAAAAAAAAAAAAAAAIdLZMbeeRKeHaXEZyfZfnz2kBKR3feft0mWo+nsdss7AAAAAAAAAAAAAAAA4B+JzDgYXducpARnSYnP8pXvz7F48n0dlN0LyQAAAAAAAAAAAAAAANgl/wdPCDP0okxyGAAAAABJRU5ErkJggg==;" vertex="1" parent="sKCnBn6jHw3cgLW9KgB4-4">
          <mxGeometry x="14.805000000000007" width="290.39" height="80" as="geometry" />
        </mxCell>
        <mxCell id="sKCnBn6jHw3cgLW9KgB4-3" value="" style="rounded=0;whiteSpace=wrap;html=1;aspect=fixed;fillColor=none;strokeColor=none;" vertex="1" parent="sKCnBn6jHw3cgLW9KgB4-4">
          <mxGeometry width="320" height="80" as="geometry" />
        </mxCell>
        <mxCell id="sKCnBn6jHw3cgLW9KgB4-10" value="Openweather API&lt;br&gt;Request Flow Chart" style="rounded=0;whiteSpace=wrap;html=1;fillColor=none;strokeColor=none;fontSize=36;fontFamily=Pretendard;fontSource=https%3A%2F%2Ffastly.jsdelivr.net%2Fgh%2FProject-Noonnu%2Fnoonfonts_2107%401.1%2FPretendard-Regular.woff;align=left;spacingLeft=10;fontStyle=1;fontColor=#ca9353;" vertex="1" parent="WIyWlLk6GJQsqaUBKTNV-1">
          <mxGeometry x="40.01" y="140" width="359.99" height="80" as="geometry" />
        </mxCell>
        <mxCell id="sKCnBn6jHw3cgLW9KgB4-12" style="edgeStyle=orthogonalEdgeStyle;rounded=0;orthogonalLoop=1;jettySize=auto;html=1;exitX=0.75;exitY=1;exitDx=0;exitDy=0;entryX=0.733;entryY=0.75;entryDx=0;entryDy=0;entryPerimeter=0;fontSize=22;fontFamily=Pretendard;fontSource=https%3A%2F%2Ffastly.jsdelivr.net%2Fgh%2FProject-Noonnu%2Fnoonfonts_2107%401.1%2FPretendard-Regular.woff;fontStyle=1" edge="1" parent="WIyWlLk6GJQsqaUBKTNV-1">
          <mxGeometry relative="1" as="geometry">
            <mxPoint x="870" y="550.0000000000002" as="sourcePoint" />
            <mxPoint x="859.8000000000002" y="530.0000000000002" as="targetPoint" />
          </mxGeometry>
        </mxCell>
        <mxCell id="sKCnBn6jHw3cgLW9KgB4-28" style="edgeStyle=orthogonalEdgeStyle;rounded=0;orthogonalLoop=1;jettySize=auto;html=1;exitX=1;exitY=0.5;exitDx=0;exitDy=0;exitPerimeter=0;entryX=0;entryY=0.5;entryDx=0;entryDy=0;fontFamily=Pretendard;fontSource=https%3A%2F%2Ffastly.jsdelivr.net%2Fgh%2FProject-Noonnu%2Fnoonfonts_2107%401.1%2FPretendard-Regular.woff;fontSize=24;fontColor=#FFFFFF;fontStyle=1;strokeColor=#FFFFFF;strokeWidth=2;" edge="1" parent="WIyWlLk6GJQsqaUBKTNV-1" source="sKCnBn6jHw3cgLW9KgB4-13" target="sKCnBn6jHw3cgLW9KgB4-16">
          <mxGeometry relative="1" as="geometry" />
        </mxCell>
        <mxCell id="sKCnBn6jHw3cgLW9KgB4-13" value="날씨 정보 요청" style="strokeWidth=3;html=1;shape=mxgraph.flowchart.start_2;whiteSpace=wrap;fillColor=#2E4B5A;strokeColor=none;shadow=1;fontFamily=Pretendard;fontSource=https%3A%2F%2Ffastly.jsdelivr.net%2Fgh%2FProject-Noonnu%2Fnoonfonts_2107%401.1%2FPretendard-Regular.woff;fontColor=#000000;fontSize=22;fontStyle=1;" vertex="1" parent="WIyWlLk6GJQsqaUBKTNV-1">
          <mxGeometry x="200" y="320" width="240" height="120" as="geometry" />
        </mxCell>
        <mxCell id="sKCnBn6jHw3cgLW9KgB4-44" style="edgeStyle=orthogonalEdgeStyle;shape=connector;rounded=0;orthogonalLoop=1;jettySize=auto;html=1;entryX=0.5;entryY=0;entryDx=0;entryDy=0;strokeColor=#FFFFFF;strokeWidth=2;align=center;verticalAlign=middle;fontFamily=Pretendard;fontSource=https%3A%2F%2Ffastly.jsdelivr.net%2Fgh%2FProject-Noonnu%2Fnoonfonts_2107%401.1%2FPretendard-Regular.woff;fontSize=24;fontColor=#FFFFFF;fontStyle=1;labelBackgroundColor=default;endArrow=classic;" edge="1" parent="WIyWlLk6GJQsqaUBKTNV-1" source="sKCnBn6jHw3cgLW9KgB4-16" target="sKCnBn6jHw3cgLW9KgB4-24">
          <mxGeometry relative="1" as="geometry" />
        </mxCell>
        <mxCell id="sKCnBn6jHw3cgLW9KgB4-16" value="회원 정보 조회" style="rounded=1;whiteSpace=wrap;html=1;absoluteArcSize=1;arcSize=14;strokeWidth=2;shadow=1;strokeColor=none;align=center;verticalAlign=middle;fontFamily=Pretendard;fontSource=https%3A%2F%2Ffastly.jsdelivr.net%2Fgh%2FProject-Noonnu%2Fnoonfonts_2107%401.1%2FPretendard-Regular.woff;fontSize=22;fontColor=#000000;fontStyle=1;fillColor=#6076f9;glass=0;" vertex="1" parent="WIyWlLk6GJQsqaUBKTNV-1">
          <mxGeometry x="519.99" y="320" width="240" height="120" as="geometry" />
        </mxCell>
        <mxCell id="sKCnBn6jHw3cgLW9KgB4-31" style="edgeStyle=orthogonalEdgeStyle;shape=connector;rounded=0;orthogonalLoop=1;jettySize=auto;html=1;entryX=0.5;entryY=0;entryDx=0;entryDy=0;strokeColor=#FFFFFF;strokeWidth=2;align=center;verticalAlign=middle;fontFamily=Pretendard;fontSource=https%3A%2F%2Ffastly.jsdelivr.net%2Fgh%2FProject-Noonnu%2Fnoonfonts_2107%401.1%2FPretendard-Regular.woff;fontSize=24;fontColor=#FFFFFF;fontStyle=1;labelBackgroundColor=default;endArrow=classic;" edge="1" parent="WIyWlLk6GJQsqaUBKTNV-1" source="sKCnBn6jHw3cgLW9KgB4-18" target="sKCnBn6jHw3cgLW9KgB4-20">
          <mxGeometry relative="1" as="geometry" />
        </mxCell>
        <mxCell id="sKCnBn6jHw3cgLW9KgB4-47" value="NO" style="edgeLabel;html=1;align=center;verticalAlign=middle;resizable=0;points=[];rounded=1;shadow=1;glass=0;strokeColor=#FFFFFF;strokeWidth=2;arcSize=14;fontFamily=Pretendard;fontSource=https%3A%2F%2Ffastly.jsdelivr.net%2Fgh%2FProject-Noonnu%2Fnoonfonts_2107%401.1%2FPretendard-Regular.woff;fontSize=24;fontColor=#FFFFFF;fontStyle=1;labelBackgroundColor=none;fillColor=#000000;gradientColor=none;" vertex="1" connectable="0" parent="sKCnBn6jHw3cgLW9KgB4-31">
          <mxGeometry x="-0.3417" y="1" relative="1" as="geometry">
            <mxPoint x="29" y="28" as="offset" />
          </mxGeometry>
        </mxCell>
        <mxCell id="sKCnBn6jHw3cgLW9KgB4-32" style="edgeStyle=orthogonalEdgeStyle;shape=connector;rounded=0;orthogonalLoop=1;jettySize=auto;html=1;entryX=0;entryY=0.5;entryDx=0;entryDy=0;strokeColor=#FFFFFF;strokeWidth=2;align=center;verticalAlign=middle;fontFamily=Pretendard;fontSource=https%3A%2F%2Ffastly.jsdelivr.net%2Fgh%2FProject-Noonnu%2Fnoonfonts_2107%401.1%2FPretendard-Regular.woff;fontSize=24;fontColor=#FFFFFF;fontStyle=1;labelBackgroundColor=default;endArrow=classic;" edge="1" parent="WIyWlLk6GJQsqaUBKTNV-1" source="sKCnBn6jHw3cgLW9KgB4-18" target="sKCnBn6jHw3cgLW9KgB4-23">
          <mxGeometry relative="1" as="geometry">
            <Array as="points">
              <mxPoint x="960" y="380" />
            </Array>
          </mxGeometry>
        </mxCell>
        <mxCell id="sKCnBn6jHw3cgLW9KgB4-45" value="&lt;span style=&quot;&quot;&gt;YES&lt;/span&gt;" style="edgeLabel;html=1;align=center;verticalAlign=middle;resizable=0;points=[];rounded=1;shadow=1;glass=0;strokeColor=#FFFFFF;strokeWidth=2;arcSize=14;fontFamily=Pretendard;fontSource=https%3A%2F%2Ffastly.jsdelivr.net%2Fgh%2FProject-Noonnu%2Fnoonfonts_2107%401.1%2FPretendard-Regular.woff;fontSize=24;fontColor=#FFFFFF;fontStyle=1;labelBackgroundColor=none;fillColor=#000000;" vertex="1" connectable="0" parent="sKCnBn6jHw3cgLW9KgB4-32">
          <mxGeometry x="-0.4214" y="-2" relative="1" as="geometry">
            <mxPoint x="28" as="offset" />
          </mxGeometry>
        </mxCell>
        <mxCell id="sKCnBn6jHw3cgLW9KgB4-18" value="데이터가 존재하는가?" style="strokeWidth=2;html=1;shape=mxgraph.flowchart.decision;whiteSpace=wrap;rounded=1;shadow=1;glass=0;strokeColor=none;align=center;verticalAlign=middle;arcSize=14;fontFamily=Pretendard;fontSource=https%3A%2F%2Ffastly.jsdelivr.net%2Fgh%2FProject-Noonnu%2Fnoonfonts_2107%401.1%2FPretendard-Regular.woff;fontSize=22;fontColor=#000000;fontStyle=1;fillColor=#FDB822;" vertex="1" parent="WIyWlLk6GJQsqaUBKTNV-1">
          <mxGeometry x="840" y="600" width="240" height="120" as="geometry" />
        </mxCell>
        <mxCell id="sKCnBn6jHw3cgLW9KgB4-39" style="edgeStyle=orthogonalEdgeStyle;shape=connector;rounded=0;orthogonalLoop=1;jettySize=auto;html=1;entryX=0.5;entryY=1;entryDx=0;entryDy=0;strokeColor=#FFFFFF;strokeWidth=2;align=center;verticalAlign=middle;fontFamily=Pretendard;fontSource=https%3A%2F%2Ffastly.jsdelivr.net%2Fgh%2FProject-Noonnu%2Fnoonfonts_2107%401.1%2FPretendard-Regular.woff;fontSize=24;fontColor=#FFFFFF;fontStyle=1;labelBackgroundColor=default;endArrow=classic;" edge="1" parent="WIyWlLk6GJQsqaUBKTNV-1" source="sKCnBn6jHw3cgLW9KgB4-19" target="sKCnBn6jHw3cgLW9KgB4-21">
          <mxGeometry relative="1" as="geometry" />
        </mxCell>
        <mxCell id="sKCnBn6jHw3cgLW9KgB4-48" value="YES" style="edgeLabel;html=1;align=center;verticalAlign=middle;resizable=0;points=[];rounded=1;shadow=1;glass=0;strokeColor=#FFFFFF;strokeWidth=2;arcSize=14;fontFamily=Pretendard;fontSource=https%3A%2F%2Ffastly.jsdelivr.net%2Fgh%2FProject-Noonnu%2Fnoonfonts_2107%401.1%2FPretendard-Regular.woff;fontSize=24;fontColor=#FFFFFF;fontStyle=1;labelBackgroundColor=none;fillColor=#000000;gradientColor=none;" vertex="1" connectable="0" parent="sKCnBn6jHw3cgLW9KgB4-39">
          <mxGeometry x="0.0812" relative="1" as="geometry">
            <mxPoint x="30" y="7" as="offset" />
          </mxGeometry>
        </mxCell>
        <mxCell id="sKCnBn6jHw3cgLW9KgB4-19" value="Status Code 2xx인가?" style="strokeWidth=2;html=1;shape=mxgraph.flowchart.decision;whiteSpace=wrap;rounded=1;shadow=1;glass=0;strokeColor=none;align=center;verticalAlign=middle;arcSize=14;fontFamily=Pretendard;fontSource=https%3A%2F%2Ffastly.jsdelivr.net%2Fgh%2FProject-Noonnu%2Fnoonfonts_2107%401.1%2FPretendard-Regular.woff;fontSize=22;fontColor=#000000;fontStyle=1;fillColor=#FDB822;" vertex="1" parent="WIyWlLk6GJQsqaUBKTNV-1">
          <mxGeometry x="1160" y="880" width="240" height="120" as="geometry" />
        </mxCell>
        <mxCell id="sKCnBn6jHw3cgLW9KgB4-20" value="Openweather API 요청" style="rounded=1;whiteSpace=wrap;html=1;absoluteArcSize=1;arcSize=14;strokeWidth=2;shadow=1;strokeColor=none;align=center;verticalAlign=middle;fontFamily=Pretendard;fontSource=https%3A%2F%2Ffastly.jsdelivr.net%2Fgh%2FProject-Noonnu%2Fnoonfonts_2107%401.1%2FPretendard-Regular.woff;fontSize=22;fontColor=#000000;fontStyle=1;fillColor=#6076f9;glass=0;" vertex="1" parent="WIyWlLk6GJQsqaUBKTNV-1">
          <mxGeometry x="840" y="880" width="240" height="120" as="geometry" />
        </mxCell>
        <mxCell id="sKCnBn6jHw3cgLW9KgB4-36" style="edgeStyle=orthogonalEdgeStyle;shape=connector;rounded=0;orthogonalLoop=1;jettySize=auto;html=1;entryX=0.5;entryY=1;entryDx=0;entryDy=0;strokeColor=#FFFFFF;strokeWidth=2;align=center;verticalAlign=middle;fontFamily=Pretendard;fontSource=https%3A%2F%2Ffastly.jsdelivr.net%2Fgh%2FProject-Noonnu%2Fnoonfonts_2107%401.1%2FPretendard-Regular.woff;fontSize=24;fontColor=#FFFFFF;fontStyle=1;labelBackgroundColor=default;endArrow=classic;" edge="1" parent="WIyWlLk6GJQsqaUBKTNV-1" source="sKCnBn6jHw3cgLW9KgB4-21" target="sKCnBn6jHw3cgLW9KgB4-23">
          <mxGeometry relative="1" as="geometry" />
        </mxCell>
        <mxCell id="sKCnBn6jHw3cgLW9KgB4-21" value="Redis에 날씨&lt;br style=&quot;font-size: 22px;&quot;&gt;데이터 저장" style="rounded=1;whiteSpace=wrap;html=1;absoluteArcSize=1;arcSize=14;strokeWidth=2;shadow=1;strokeColor=none;align=center;verticalAlign=middle;fontFamily=Pretendard;fontSource=https%3A%2F%2Ffastly.jsdelivr.net%2Fgh%2FProject-Noonnu%2Fnoonfonts_2107%401.1%2FPretendard-Regular.woff;fontSize=22;fontColor=#000000;fontStyle=1;fillColor=#6076f9;glass=0;" vertex="1" parent="WIyWlLk6GJQsqaUBKTNV-1">
          <mxGeometry x="1160" y="600" width="240" height="120" as="geometry" />
        </mxCell>
        <mxCell id="sKCnBn6jHw3cgLW9KgB4-22" value="&lt;div style=&quot;font-size: 22px;&quot;&gt;External Server&amp;nbsp;&lt;span style=&quot;background-color: initial; font-size: 22px;&quot;&gt;Exception&lt;/span&gt;&lt;/div&gt;" style="strokeWidth=2;html=1;shape=mxgraph.flowchart.terminator;whiteSpace=wrap;rounded=1;shadow=1;glass=0;strokeColor=none;align=center;verticalAlign=middle;arcSize=14;fontFamily=Pretendard;fontSource=https%3A%2F%2Ffastly.jsdelivr.net%2Fgh%2FProject-Noonnu%2Fnoonfonts_2107%401.1%2FPretendard-Regular.woff;fontSize=22;fontColor=#000000;fontStyle=1;fillColor=#2E4B5A;" vertex="1" parent="WIyWlLk6GJQsqaUBKTNV-1">
          <mxGeometry x="1480" y="880" width="240" height="120" as="geometry" />
        </mxCell>
        <mxCell id="sKCnBn6jHw3cgLW9KgB4-23" value="회원 설정에 맞는&lt;div style=&quot;font-size: 22px;&quot;&gt;날씨 정보 변환&lt;/div&gt;" style="rounded=1;whiteSpace=wrap;html=1;absoluteArcSize=1;arcSize=14;strokeWidth=2;shadow=1;strokeColor=none;align=center;verticalAlign=middle;fontFamily=Pretendard;fontSource=https%3A%2F%2Ffastly.jsdelivr.net%2Fgh%2FProject-Noonnu%2Fnoonfonts_2107%401.1%2FPretendard-Regular.woff;fontSize=22;fontColor=#000000;fontStyle=1;fillColor=#6076f9;glass=0;" vertex="1" parent="WIyWlLk6GJQsqaUBKTNV-1">
          <mxGeometry x="1160" y="320" width="240" height="120" as="geometry" />
        </mxCell>
        <mxCell id="sKCnBn6jHw3cgLW9KgB4-24" value="Redis에서&lt;br style=&quot;font-size: 22px;&quot;&gt;날씨 데이터 조회" style="rounded=1;whiteSpace=wrap;html=1;absoluteArcSize=1;arcSize=14;strokeWidth=2;shadow=1;strokeColor=none;align=center;verticalAlign=middle;fontFamily=Pretendard;fontSource=https%3A%2F%2Ffastly.jsdelivr.net%2Fgh%2FProject-Noonnu%2Fnoonfonts_2107%401.1%2FPretendard-Regular.woff;fontSize=22;fontColor=#000000;fontStyle=1;fillColor=#6076f9;glass=0;" vertex="1" parent="WIyWlLk6GJQsqaUBKTNV-1">
          <mxGeometry x="520" y="600" width="240" height="120" as="geometry" />
        </mxCell>
        <mxCell id="sKCnBn6jHw3cgLW9KgB4-26" value="&lt;div style=&quot;font-size: 22px;&quot;&gt;날씨 정보 반환&lt;/div&gt;" style="strokeWidth=2;html=1;shape=mxgraph.flowchart.terminator;whiteSpace=wrap;rounded=1;shadow=1;glass=0;strokeColor=none;align=center;verticalAlign=middle;arcSize=14;fontFamily=Pretendard;fontSource=https%3A%2F%2Ffastly.jsdelivr.net%2Fgh%2FProject-Noonnu%2Fnoonfonts_2107%401.1%2FPretendard-Regular.woff;fontSize=22;fontColor=#000000;fontStyle=1;fillColor=#2E4B5A;" vertex="1" parent="WIyWlLk6GJQsqaUBKTNV-1">
          <mxGeometry x="1480" y="320" width="240" height="120" as="geometry" />
        </mxCell>
        <mxCell id="sKCnBn6jHw3cgLW9KgB4-30" style="edgeStyle=orthogonalEdgeStyle;shape=connector;rounded=0;orthogonalLoop=1;jettySize=auto;html=1;entryX=0;entryY=0.5;entryDx=0;entryDy=0;entryPerimeter=0;strokeColor=#FFFFFF;strokeWidth=2;align=center;verticalAlign=middle;fontFamily=Pretendard;fontSource=https%3A%2F%2Ffastly.jsdelivr.net%2Fgh%2FProject-Noonnu%2Fnoonfonts_2107%401.1%2FPretendard-Regular.woff;fontSize=24;fontColor=#FFFFFF;fontStyle=1;labelBackgroundColor=default;endArrow=classic;" edge="1" parent="WIyWlLk6GJQsqaUBKTNV-1" source="sKCnBn6jHw3cgLW9KgB4-24" target="sKCnBn6jHw3cgLW9KgB4-18">
          <mxGeometry relative="1" as="geometry" />
        </mxCell>
        <mxCell id="sKCnBn6jHw3cgLW9KgB4-37" style="edgeStyle=orthogonalEdgeStyle;shape=connector;rounded=0;orthogonalLoop=1;jettySize=auto;html=1;entryX=0;entryY=0.5;entryDx=0;entryDy=0;entryPerimeter=0;strokeColor=#FFFFFF;strokeWidth=2;align=center;verticalAlign=middle;fontFamily=Pretendard;fontSource=https%3A%2F%2Ffastly.jsdelivr.net%2Fgh%2FProject-Noonnu%2Fnoonfonts_2107%401.1%2FPretendard-Regular.woff;fontSize=24;fontColor=#FFFFFF;fontStyle=1;labelBackgroundColor=default;endArrow=classic;" edge="1" parent="WIyWlLk6GJQsqaUBKTNV-1" source="sKCnBn6jHw3cgLW9KgB4-23" target="sKCnBn6jHw3cgLW9KgB4-26">
          <mxGeometry relative="1" as="geometry" />
        </mxCell>
        <mxCell id="sKCnBn6jHw3cgLW9KgB4-38" style="edgeStyle=orthogonalEdgeStyle;shape=connector;rounded=0;orthogonalLoop=1;jettySize=auto;html=1;entryX=0;entryY=0.5;entryDx=0;entryDy=0;entryPerimeter=0;strokeColor=#FFFFFF;strokeWidth=2;align=center;verticalAlign=middle;fontFamily=Pretendard;fontSource=https%3A%2F%2Ffastly.jsdelivr.net%2Fgh%2FProject-Noonnu%2Fnoonfonts_2107%401.1%2FPretendard-Regular.woff;fontSize=24;fontColor=#FFFFFF;fontStyle=1;labelBackgroundColor=default;endArrow=classic;" edge="1" parent="WIyWlLk6GJQsqaUBKTNV-1" source="sKCnBn6jHw3cgLW9KgB4-20" target="sKCnBn6jHw3cgLW9KgB4-19">
          <mxGeometry relative="1" as="geometry" />
        </mxCell>
        <mxCell id="sKCnBn6jHw3cgLW9KgB4-40" style="edgeStyle=orthogonalEdgeStyle;shape=connector;rounded=0;orthogonalLoop=1;jettySize=auto;html=1;entryX=0;entryY=0.5;entryDx=0;entryDy=0;entryPerimeter=0;strokeColor=#FFFFFF;strokeWidth=2;align=center;verticalAlign=middle;fontFamily=Pretendard;fontSource=https%3A%2F%2Ffastly.jsdelivr.net%2Fgh%2FProject-Noonnu%2Fnoonfonts_2107%401.1%2FPretendard-Regular.woff;fontSize=24;fontColor=#FFFFFF;fontStyle=1;labelBackgroundColor=default;endArrow=classic;" edge="1" parent="WIyWlLk6GJQsqaUBKTNV-1" source="sKCnBn6jHw3cgLW9KgB4-19" target="sKCnBn6jHw3cgLW9KgB4-22">
          <mxGeometry relative="1" as="geometry" />
        </mxCell>
        <mxCell id="sKCnBn6jHw3cgLW9KgB4-49" value="NO" style="edgeLabel;html=1;align=center;verticalAlign=middle;resizable=0;points=[];rounded=1;shadow=1;glass=0;strokeColor=#FFFFFF;strokeWidth=2;arcSize=14;fontFamily=Pretendard;fontSource=https%3A%2F%2Ffastly.jsdelivr.net%2Fgh%2FProject-Noonnu%2Fnoonfonts_2107%401.1%2FPretendard-Regular.woff;fontSize=24;fontColor=#FFFFFF;fontStyle=1;labelBackgroundColor=none;fillColor=#000000;gradientColor=none;" vertex="1" connectable="0" parent="sKCnBn6jHw3cgLW9KgB4-40">
          <mxGeometry x="-0.1687" y="4" relative="1" as="geometry">
            <mxPoint y="-16" as="offset" />
          </mxGeometry>
        </mxCell>
      </root>
    </mxGraphModel>
  </diagram>
</mxfile>
